<ttFont>
        <CharString name=".notdef">
          654 -6 20 -15 15 -6 -21 30 12 69 45 58 22 hstemhm
          315 28 51 16 30 17 24 17 -14 45 30 13 44 17 24 14 33 13 hintmask 0100101010010110
          495 98 rmoveto
          19 18 1 3 18 hvcurveto
          2 -8 9 -17 16 2 7 -4 6 -3 2 -3 -26 -17 -30 -18 -28 -22 -21 -5 -28 3 -23 -31 rrcurveto
          -5 2 0 3 -2 vhcurveto
          16 14 7 5 26 4 -13 -8 -9 -13 -5 -18 1 -4 2 -1 5 1 13 21 16 21 24 5 23 3 22 -2 25 -6 rrcurveto
          3 4 0 1 3 vvcurveto
          -16 10 -20 1 -21 1 rrcurveto
          34 29 41 17 11 vvcurveto
          6 -5 2 -8 6 vhcurveto
          10 9 -2 16 -1 7 134 46 88 118 62 64 42 43 154 -8 61 56 9 8 -5 16 -10 -2 rrcurveto
          -7 -278 -30 -2 -42 hvcurveto
          -227 45 -199 8 -29 42 rrcurveto
          70 -40 -39 28 -57 hhcurveto
          -65 -43 -53 -49 hvcurveto
          -62 -29 rlineto
          -3 -5 6 0 0 vvcurveto
          85 -16 44 -26 4 -54 5 -76 rlinecurve
          8 -121 71 -68 133 -19 rrcurveto
          -7 1 3 -17 14 hhcurveto
          hintmask 1000100000010000
          12 -12 -30 -10 -35 -13 -30 -15 rlinecurve
          -21 -32 4 -22 -30 hvcurveto
          -5 1 0 3 -2 vhcurveto
          18 9 15 6 25 -2 -13 -6 -14 -8 -10 -16 rrcurveto
          hintmask 0100000000010000
          2 -4 4 -1 3 -1 18 18 21 15 25 -1 22 -1 6 -2 23 -11 rrcurveto
          hintmask 1000000000010000
          3 2 2 -2 1 6 -13 14 -10 1 -20 6 rrcurveto
          hintmask 0100100010000000
          43 23 44 8 7 vvcurveto
          5 -5 5 -6 5 vhcurveto
          10 8 15 4 1 hvcurveto
          244 127 rmoveto
          -14 -11 5 12 -6 hvcurveto
          -9 -3 -6 -8 -10 hhcurveto
          -11 -9 9 8 -3 hvcurveto
          -8 -2 -10 -6 -7 hhcurveto
          -15 -1 -8 8 -3 10 -5 -8 -8 -8 -13 -1 rrcurveto
          -30 -10 25 28 1 hvcurveto
          1 21 4 25 7 12 rrcurveto
          25 2 18 -10 -29 vvcurveto
          -19 -9 -22 -16 -5 vhcurveto
          2 -8 3 -8 5 -4 10 5 7 13 4 10 rrcurveto
          15 vlineto
          hintmask 0001001000000000
          1 21 4 19 14 14 rrcurveto
          6 8 -1 -2 7 hvcurveto
          3 4 15 1 2 vhcurveto
          7 1 14 -5 5 -5 -5 -30 -2 -47 8 -29 rrcurveto
          hintmask 0010001000000000
          6 -1 6 13 3 5 -1 3 rcurveline
          hintmask 0001000010000000
          -11 54 7 71 22 41 rrcurveto
          hintmask 0100100010000000
          34 -5 9 -15 -35 vvcurveto
          -33 -12 -40 -21 -9 vhcurveto
          -20 4 -16 9 -13 vhcurveto
          12 10 10 18 5 29 1 2 1 3 1 -5 rrcurveto
          -21 3 -3 -46 -35 hhcurveto
          -275 111 rmoveto
          -91 11 -17 -102 -56 hhcurveto
          hintmask 0000111100000000
          -21 -5 11 21 9 2 9 2 8 hvcurveto
          10 11 -3 -8 8 hvcurveto
          -2 -11 -2 -14 3 -12 24 16 1 25 4 38 rrcurveto
          -2 -1 -4 -3 -3 hhcurveto
          -14 -10 8 13 -6 hvcurveto
          -12 -4 -9 -13 -19 hhcurveto
          -45 -16 42 41 -1 hvcurveto
          -1 46 11 48 32 27 rrcurveto
          18 -3 26 -7 -36 vvcurveto
          -13 -8 -12 -11 -9 vhcurveto
          -3 -4 0 3 1 2 2 15 -6 24 -5 7 -19 -19 -13 -116 36 -26 15 5 10 16 3 10 rrcurveto
          -3 13 -1 16 15 vvcurveto
          14 2 11 3 6 vhcurveto
          6 -1 14 -3 7 -7 -1 -31 0 -29 8 -27 4 1 1 5 1 2 8 36 -9 43 -3 22 rrcurveto
          hintmask 0100100010000000
          10 1 16 -6 8 -9 rrcurveto
          4 5 rmoveto
          hintmask 0000100001000100
          8 6 -1 -1 5 hvcurveto
          5 -1 4 -2 3 -3 5 -8 3 -11 1 -16 7 13 4 8 2 8 rrcurveto
          5 3 9 2 4 vhcurveto
          12 11 -4 -7 5 hvcurveto
          -3 -14 -1 -19 2 -14 -15 -4 -10 6 -2 16 rrcurveto
          hintmask 0000100000100000
          -4 -8 -7 -8 -3 -11 rrcurveto
          -9 0 -17 -3 -8 vhcurveto
          hintmask 0000100010000000
          -3 -12 -8 -8 -13 2 rrcurveto
          hintmask 0100100010000000
          -2 34 -1 51 -13 30 rrcurveto
          hintmask 0100000000010110
          178 -103 rmoveto
          5 4 8 8 1 8 -6 21 0 27 1 10 -9 -10 -7 -44 7 -24 rrcurveto
          85 59 rmoveto
          13 19 4 46 -4 23 -6 -24 -6 -34 -1 -30 rrcurveto
          hintmask 0100000000001000
          -138 20 rmoveto
          -5 -15 -2 -17 -19 vvcurveto
          8 2 5 16 14 vvcurveto
          9 -3 7 -3 3 vhcurveto
          endchar
        </CharString>
        <CharString name=".null">
          -556 endchar
        </CharString>
        <CharString name="A">
          154 -17 48 373 44 147 48 hstemhm
          24 47 -15 50 335 92 129 49 hintmask 11101110
          430 333 rmoveto
          139 71 93 123 53 hhcurveto
          32 -29 -81 -11 -5 hvcurveto
          -41 -109 -45 -101 -49 -97 -17 50 -29 48 -34 39 rrcurveto
          -153 -261 rmoveto
          49 -17 49 -12 30 -7 rrcurveto
          22 -6 14 -2 -4 vvcurveto
          -27 17 -18 27 32 16 24 24 vhcurveto
          16 -2 14 14 vvcurveto
          25 179 118 140 37 168 rrcurveto
          hintmask 11110110
          39 7 -8 46 -48 hhcurveto
          -100 -74 -125 -148 -87 hvcurveto
          hintmask 11101110
          46 -51 -57 32 -63 hhcurveto
          -88 -86 -64 -92 -32 10 -29 18 -26 hvcurveto
          -39 -29 -21 -46 -41 vvcurveto
          -55 35 -51 67 61 46 35 54 44 vhcurveto
          hintmask 11110110
          -165 99 rmoveto
          34 -34 44 -26 44 -19 rrcurveto
          -38 -34 -33 -23 -35 hhcurveto
          -43 -18 28 32 30 15 32 26 18 hvcurveto
          192 -63 rmoveto
          40 57 27 66 38 63 rrcurveto
          41 -53 35 -47 -54 vvcurveto
          -22 -8 -38 -11 -17 vhcurveto
          -42 9 -64 13 -56 23 rrcurveto
          -44 20 rmoveto
          hintmask 11101110
          -83 37 -71 51 77 vvcurveto
          75 70 36 59 52 50 -34 -39 43 vhcurveto
          hintmask 11110110
          -38 -69 -34 -72 -48 -62 rrcurveto
          endchar
        </CharString>
        <CharString name="AE">
          442 -27 44 -28 44 144 37 -11 43 -4 39 22 50 55 41 13 75 56 40 -28 44 hstemhm
          70 42 63 82 0 44 223 60 56 55 33 91 -15 75 26 48 -44 48 hintmask 010010101010111100100000
          hintmask 010010111010111010100000
          850 462 rmoveto
          hintmask 010010110110111101000000
          59 44 38 53 72 -64 24 -59 -39 -35 -10 -18 -30 hvcurveto
          4 8 rlineto
          hintmask 010010101010111100100000
          3 -17 -14 1 -17 hhcurveto
          -135 -77 -82 -102 -53 hvcurveto
          -10 hlineto
          -100 -50 -51 -51 -38 27 -38 56 -18 hvcurveto
          -119 -42 -37 -101 -82 hhcurveto
          -46 -21 30 35 hvcurveto
          hintmask 011010101011011100100000
          39 32 38 31 2 vhcurveto
          -5 vlineto
          -23 18 -18 23 23 18 18 23 28 -25 14 -31 -55 -76 -42 -76 -69 55 -38 60 vhcurveto
          hintmask 010010101010111100100000
          112 44 121 133 46 hvcurveto
          -1 9 9 0 10 hhcurveto
          51 50 7 11 45 hvcurveto
          -26 -30 -11 -35 -37 vvcurveto
          hintmask 100101100110111100100000
          -94 87 -91 137 129 80 81 84 62 -51 46 -69 -60 -49 -61 -51 -32 19 -32 36 19 17 15 24 23 -15 25 -25 5 vhcurveto
          27 9 24 14 29 hhcurveto
          46 22 -30 -34 -79 -81 -43 -77 -83 -84 47 96 83 57 60 151 10 0 6 21 26 -10 -3 -13 -57 -27 79 42 75 53 56 81 hvcurveto
          hintmask 010010110110111101000000
          49 27 -22 -28 -15 -9 -18 -17 -16 hvcurveto
          hintmask 010010111010111010100000
          21 -5 -18 10 -17 hhcurveto
          -18 -17 -11 -22 -20 16 -22 30 hvcurveto
          hintmask 010010101010111100100000
          -431 -181 rmoveto
          -19 hlineto
          15 42 16 43 18 39 90 -7 104 -24 43 -22 6 -6 6 -5 7 -4 -22 -6 -20 -6 -18 -8 rrcurveto
          -17 -61 -85 -19 -80 hhcurveto
          50 164 rmoveto
          47 82 65 62 108 4 rrcurveto
          -31 -30 -18 -41 -46 vvcurveto
          -22 6 -29 12 -27 vhcurveto
          -58 21 -67 18 -64 8 rrcurveto
          -168 -93 rmoveto
          29 30 27 65 vhcurveto
          2 hlineto
          -17 -38 -14 -39 -14 -39 rrcurveto
          -34 14 -18 23 23 vvcurveto
          endchar
        </CharString>
        <CharString name="Aacute">
          192 -17 48 373 44 147 48 hstemhm
          24 47 -15 50 335 92 129 49 hintmask 11101110
          430 333 rmoveto
          139 71 93 123 53 hhcurveto
          32 -29 -81 -11 -5 hvcurveto
          -41 -109 -45 -101 -49 -97 -17 50 -29 48 -34 39 rrcurveto
          -153 -261 rmoveto
          49 -17 49 -12 30 -7 rrcurveto
          22 -6 14 -2 -4 vvcurveto
          -27 17 -18 27 32 16 24 24 vhcurveto
          16 -2 14 14 vvcurveto
          25 179 118 140 37 168 rrcurveto
          hintmask 10010000
          39 7 -8 46 -48 hhcurveto
          -100 -74 -125 -148 -87 hvcurveto
          hintmask 11101110
          46 -51 -57 32 -63 hhcurveto
          -88 -86 -64 -92 -32 10 -29 18 -26 hvcurveto
          -39 -29 -21 -46 -41 vvcurveto
          -55 35 -51 67 61 46 35 54 44 vhcurveto
          hintmask 10010100
          -165 99 rmoveto
          34 -34 44 -26 44 -19 rrcurveto
          -38 -34 -33 -23 -35 hhcurveto
          -43 -18 28 32 30 15 32 26 18 hvcurveto
          192 -63 rmoveto
          40 57 27 66 38 63 rrcurveto
          41 -53 35 -47 -54 vvcurveto
          -22 -8 -38 -11 -17 vhcurveto
          -42 9 -64 13 -56 23 rrcurveto
          -44 20 rmoveto
          hintmask 01001000
          -83 37 -71 51 77 vvcurveto
          75 70 36 59 52 50 -34 -39 43 vhcurveto
          hintmask 10010100
          -38 -69 -34 -72 -48 -62 rrcurveto
          425 689 rmoveto
          -27 -42 -102 -33 -10 12 -5 6 13 70 70 44 8 hvcurveto
          18 -20 18 -20 vhcurveto
          endchar
        </CharString>
        <CharString name="Acircumflex">
          192 -17 48 373 44 147 48 hstemhm
          24 47 -15 50 335 92 129 49 hintmask 11101110
          430 333 rmoveto
          139 71 93 123 53 hhcurveto
          32 -29 -81 -11 -5 hvcurveto
          -41 -109 -45 -101 -49 -97 -17 50 -29 48 -34 39 rrcurveto
          -153 -261 rmoveto
          49 -17 49 -12 30 -7 rrcurveto
          22 -6 14 -2 -4 vvcurveto
          -27 17 -18 27 32 16 24 24 vhcurveto
          16 -2 14 14 vvcurveto
          25 179 118 140 37 168 rrcurveto
          hintmask 10010000
          39 7 -8 46 -48 hhcurveto
          -100 -74 -125 -148 -87 hvcurveto
          hintmask 11101110
          46 -51 -57 32 -63 hhcurveto
          -88 -86 -64 -92 -32 10 -29 18 -26 hvcurveto
          -39 -29 -21 -46 -41 vvcurveto
          -55 35 -51 67 61 46 35 54 44 vhcurveto
          hintmask 10010100
          -165 99 rmoveto
          34 -34 44 -26 44 -19 rrcurveto
          -38 -34 -33 -23 -35 hhcurveto
          -43 -18 28 32 30 15 32 26 18 hvcurveto
          192 -63 rmoveto
          40 57 27 66 38 63 rrcurveto
          41 -53 35 -47 -54 vvcurveto
          -22 -8 -38 -11 -17 vhcurveto
          -42 9 -64 13 -56 23 rrcurveto
          -44 20 rmoveto
          hintmask 01001000
          -83 37 -71 51 77 vvcurveto
          75 70 36 59 52 50 -34 -39 43 vhcurveto
          hintmask 10010100
          -38 -69 -34 -72 -48 -62 rrcurveto
          372 663 rmoveto
          -28 -29 -38 -29 -29 -29 -11 -11 34 -35 16 12 1 1 61 54 19 19 77 -75 rcurveline
          9 -11 40 37 -8 9 -95 87 rcurveline
          -20 18 -12 -3 -16 -15 rrcurveto
          endchar
        </CharString>
        <CharString name="Adieresis">
          192 -17 48 373 44 147 48 24 86 hstemhm
          24 47 -15 50 335 92 3 107 19 49 -38 107 hintmask 1110011010000000
          430 333 rmoveto
          139 71 93 123 53 hhcurveto
          32 -29 -81 -11 -5 hvcurveto
          -41 -109 -45 -101 -49 -97 -17 50 -29 48 -34 39 rrcurveto
          -153 -261 rmoveto
          49 -17 49 -12 30 -7 rrcurveto
          22 -6 14 -2 -4 vvcurveto
          -27 17 -18 27 32 16 24 24 vhcurveto
          16 -2 14 14 vvcurveto
          25 179 118 140 37 168 rrcurveto
          hintmask 1000100000000000
          39 7 -8 46 -48 hhcurveto
          -100 -74 -125 -148 -87 hvcurveto
          hintmask 1110011010000000
          46 -51 -57 32 -63 hhcurveto
          -88 -86 -64 -92 -32 10 -29 18 -26 hvcurveto
          -39 -29 -21 -46 -41 vvcurveto
          -55 35 -51 67 61 46 35 54 44 vhcurveto
          hintmask 1000101000000000
          -165 99 rmoveto
          34 -34 44 -26 44 -19 rrcurveto
          -38 -34 -33 -23 -35 hhcurveto
          -43 -18 28 32 30 15 32 26 18 hvcurveto
          192 -63 rmoveto
          40 57 27 66 38 63 rrcurveto
          41 -53 35 -47 -54 vvcurveto
          -22 -8 -38 -11 -17 vhcurveto
          -42 9 -64 13 -56 23 rrcurveto
          -44 20 rmoveto
          hintmask 0100010000000000
          -83 37 -71 51 77 vvcurveto
          75 70 36 59 52 50 -34 -39 43 vhcurveto
          hintmask 1000101000000000
          -38 -69 -34 -72 -48 -62 rrcurveto
          hintmask 0001000100000000
          325 609 rmoveto
          9 -7 -12 9 -9 hhcurveto
          -12 -9 -8 -19 -33 33 -28 16 20 38 26 33 19 -12 8 -16 -10 -11 -8 -8 -9 hvcurveto
          hintmask 0001000001000000
          137 hmoveto
          9 -7 -11 9 -9 hhcurveto
          -13 -9 -8 -19 -33 33 -28 16 20 38 26 33 19 -13 8 -15 -10 -11 -8 -8 -9 hvcurveto
          endchar
        </CharString>
        <CharString name="Agrave">
          193 -17 48 373 44 147 48 hstemhm
          24 47 -15 50 335 92 129 49 hintmask 11101110
          430 333 rmoveto
          139 71 93 123 53 hhcurveto
          32 -29 -81 -11 -5 hvcurveto
          -41 -109 -45 -101 -49 -97 -17 50 -29 48 -34 39 rrcurveto
          -153 -261 rmoveto
          49 -17 49 -12 30 -7 rrcurveto
          22 -6 14 -2 -4 vvcurveto
          -27 17 -18 27 32 16 24 24 vhcurveto
          16 -2 14 14 vvcurveto
          25 179 118 140 37 168 rrcurveto
          hintmask 10010000
          39 7 -8 46 -48 hhcurveto
          -100 -74 -125 -148 -87 hvcurveto
          hintmask 11101110
          46 -51 -57 32 -63 hhcurveto
          -88 -86 -64 -92 -32 10 -29 18 -26 hvcurveto
          -39 -29 -21 -46 -41 vvcurveto
          -55 35 -51 67 61 46 35 54 44 vhcurveto
          hintmask 10010100
          -165 99 rmoveto
          34 -34 44 -26 44 -19 rrcurveto
          -38 -34 -33 -23 -35 hhcurveto
          -43 -18 28 32 30 15 32 26 18 hvcurveto
          192 -63 rmoveto
          40 57 27 66 38 63 rrcurveto
          41 -53 35 -47 -54 vvcurveto
          -22 -8 -38 -11 -17 vhcurveto
          -42 9 -64 13 -56 23 rrcurveto
          -44 20 rmoveto
          hintmask 01001000
          -83 37 -71 51 77 vvcurveto
          75 70 36 59 52 50 -34 -39 43 vhcurveto
          hintmask 10010100
          -38 -69 -34 -72 -48 -62 rrcurveto
          367 689 rmoveto
          -20 -20 -18 -18 hvcurveto
          -44 8 70 -70 13 hhcurveto
          6 12 5 10 33 -42 102 -27 hvcurveto
          endchar
        </CharString>
        <CharString name="Aring">
          192 -17 48 373 44 147 48 27 49 69 49 hstemhm
          24 47 -15 50 335 92 40 48 41 49 -23 46 hintmask 1110101111000000
          430 333 rmoveto
          139 71 93 123 53 hhcurveto
          32 -29 -81 -11 -5 hvcurveto
          -41 -109 -45 -101 -49 -97 -17 50 -29 48 -34 39 rrcurveto
          -153 -261 rmoveto
          49 -17 49 -12 30 -7 rrcurveto
          22 -6 14 -2 -4 vvcurveto
          -27 17 -18 27 32 16 24 24 vhcurveto
          16 -2 14 14 vvcurveto
          25 179 118 140 37 168 rrcurveto
          hintmask 1000010000000000
          39 7 -8 46 -48 hhcurveto
          -100 -74 -125 -148 -87 hvcurveto
          hintmask 1110101111000000
          46 -51 -57 32 -63 hhcurveto
          -88 -86 -64 -92 -32 10 -29 18 -26 hvcurveto
          -39 -29 -21 -46 -41 vvcurveto
          -55 35 -51 67 61 46 35 54 44 vhcurveto
          hintmask 1000010100000000
          -165 99 rmoveto
          34 -34 44 -26 44 -19 rrcurveto
          -38 -34 -33 -23 -35 hhcurveto
          -43 -18 28 32 30 15 32 26 18 hvcurveto
          192 -63 rmoveto
          40 57 27 66 38 63 rrcurveto
          41 -53 35 -47 -54 vvcurveto
          -22 -8 -38 -11 -17 vhcurveto
          -42 9 -64 13 -56 23 rrcurveto
          -44 20 rmoveto
          hintmask 0100001000000000
          -83 37 -71 51 77 vvcurveto
          75 70 36 59 52 50 -34 -39 43 vhcurveto
          hintmask 1000010100000000
          -38 -69 -34 -72 -48 -62 rrcurveto
          hintmask 0001100010100000
          394 591 rmoveto
          -22 -11 17 18 17 11 17 22 22 12 -17 -17 -18 -12 -17 -22 hvcurveto
          -2 118 rmoveto
          -41 -38 -42 -46 -46 41 -33 43 52 25 38 42 42 -28 45 -54 hvcurveto
          endchar
        </CharString>
        <CharString name="Atilde">
          192 -17 48 373 44 147 48 23 79 -69 79 hstemhm
          24 47 -15 50 335 92 -2 58 73 49 14 57 hintmask 1110001101000000
          430 333 rmoveto
          139 71 93 123 53 hhcurveto
          32 -29 -81 -11 -5 hvcurveto
          -41 -109 -45 -101 -49 -97 -17 50 -29 48 -34 39 rrcurveto
          -153 -261 rmoveto
          49 -17 49 -12 30 -7 rrcurveto
          22 -6 14 -2 -4 vvcurveto
          -27 17 -18 27 32 16 24 24 vhcurveto
          16 -2 14 14 vvcurveto
          25 179 118 140 37 168 rrcurveto
          hintmask 1000010000000000
          39 7 -8 46 -48 hhcurveto
          -100 -74 -125 -148 -87 hvcurveto
          hintmask 1110001101000000
          46 -51 -57 32 -63 hhcurveto
          -88 -86 -64 -92 -32 10 -29 18 -26 hvcurveto
          -39 -29 -21 -46 -41 vvcurveto
          -55 35 -51 67 61 46 35 54 44 vhcurveto
          hintmask 1000010100000000
          -165 99 rmoveto
          34 -34 44 -26 44 -19 rrcurveto
          -38 -34 -33 -23 -35 hhcurveto
          -43 -18 28 32 30 15 32 26 18 hvcurveto
          192 -63 rmoveto
          40 57 27 66 38 63 rrcurveto
          41 -53 35 -47 -54 vvcurveto
          -22 -8 -38 -11 -17 vhcurveto
          -42 9 -64 13 -56 23 rrcurveto
          -44 20 rmoveto
          hintmask 0100001000000000
          -83 37 -71 51 77 vvcurveto
          75 70 36 59 52 50 -34 -39 43 vhcurveto
          hintmask 1000010100000000
          -38 -69 -34 -72 -48 -62 rrcurveto
          hintmask 0001000000100000
          469 538 rmoveto
          28 25 12 34 19 -12 14 -18 -22 -5 -18 -14 hvcurveto
          hintmask 0000100010000000
          10 -42 -56 32 -43 hhcurveto
          -29 -24 -12 -35 -19 14 -13 15 22 7 15 15 hvcurveto
          hintmask 0001000000100000
          -10 40 57 -30 43 hhcurveto
          endchar
        </CharString>
        <CharString name="B">
          267 -17 42 -38 49 61 90 52 41 315 47 hstemhm
          30 47 339 42 -8 45 145 46 56 47 hintmask 0111111011000000
          680 433 rmoveto
          4 15 2 16 15 vvcurveto
          88 -65 75 -90 -200 -301 -295 -241 -76 41 -43 54 147 123 285 153 60 vhcurveto
          24 61 28 72 13 36 rrcurveto
          1 5 4 0 5 hhcurveto
          70 36 -56 -58 -14 -2 -14 -4 -13 hvcurveto
          hintmask 1011110111000000
          -93 3 -91 -72 -87 vvcurveto
          -27 14 -18 39 66 82 82 67 18 vhcurveto
          49 -16 24 -50 -47 vvcurveto
          -124 -79 -126 -123 vhcurveto
          hintmask 1011111011000000
          -44 -38 29 42 10 1 9 5 8 hvcurveto
          -16 11 18 -10 20 hhcurveto
          26 12 17 21 24 -19 28 -35 -55 -26 -50 -52 -73 69 -29 62 148 94 144 145 hvcurveto
          hintmask 0111111011000000
          73 -39 60 -70 28 vhcurveto
          -260 40 rmoveto
          -67 -29 -132 -370 -132 hhcurveto
          -30 -20 27 46 194 256 245 130 34 hvcurveto
          -15 -35 -14 -40 -14 -34 rrcurveto
          hintmask 0111110111000000
          89 -193 rmoveto
          -8 -6 6 8 43 63 65 63 -5 hvcurveto
          -57 -14 -76 -60 -22 hhcurveto
          endchar
        </CharString>
        <CharString name="C">
          9 -11 49 346 41 169 45 hstemhm
          41 58 294 95 -4 49 hintmask 11110100
          349 437 rmoveto
          -31 37 -22 27 71 49 58 65 94 -75 38 -77 -212 -128 -231 -180 -133 81 -106 155 vhcurveto
          hintmask 11111000
          135 76 113 64 33 -24 16 -23 -24 -24 -17 -31 -24 16 -19 20 -5 hvcurveto
          -49 -22 -69 -32 -57 hhcurveto
          -130 -52 89 101 152 111 214 182 hvcurveto
          hintmask 11110100
          52 40 -29 -66 -38 -23 -36 -33 hvcurveto
          -8 4 51 -39 hhcurveto
          -20 -16 -18 -21 hvcurveto
          endchar
        </CharString>
        <CharString name="Ccedilla">
          0 -184 40 134 48 346 41 169 45 hstemhm
          32 58 154 44 21 55 20 95 -4 49 hintmask 1111110010000000
          244 -64 rmoveto
          -19 8 -1 6 -1 vhcurveto
          hintmask 1111111010000000
          31 -1 20 -6 -19 vvcurveto
          -33 -50 0 -49 -10 -8 -2 -16 -11 6 -11 12 97 57 24 63 42 -35 14 -41 6 vhcurveto
          hintmask 1111110100000000
          25 vlineto
          122 10 69 105 61 vvcurveto
          33 -24 16 -23 -24 -24 -17 -31 -24 16 -19 20 -5 vhcurveto
          -49 -22 -69 -32 -57 hhcurveto
          -130 -52 89 101 152 111 214 182 52 40 -29 -66 hvcurveto
          hintmask 1111110010000000
          -38 -23 -36 -33 vhcurveto
          -8 4 51 -39 hhcurveto
          -20 -16 -18 -21 -31 37 -22 27 71 49 58 65 94 -75 38 -77 -212 -128 -231 -180 -126 73 -102 139 -10 hvcurveto
          endchar
        </CharString>
        <CharString name="D">
          186 -20 45 -41 42 185 44 65 45 217 44 hstemhm
          34 50 -4 45 73 78 384 47 hintmask 1011101010000000
          hintmask 0111110010000000
          106 -16 rmoveto
          109 58 93 90 53 hvcurveto
          hintmask 1011101110000000
          -67 56 40 -120 91 hhcurveto
          131 63 177 113 179 -119 177 -233 -136 -139 -67 -134 -73 44 -32 49 58 45 42 42 24 -14 21 -25 -21 -18 -19 -23 -12 4 -10 7 -8 hvcurveto
          -8 -11 -12 -4 -12 hhcurveto
          -26 -23 20 33 105 123 59 115 57 49 -13 -21 40 hvcurveto
          -91 -73 -53 -124 -56 -110 rrcurveto
          9 -16 -18 5 -19 hhcurveto
          hintmask 1011110010000000
          -97 -125 -109 -94 hvcurveto
          hintmask 0111110010000000
          -45 34 -22 38 -1 vhcurveto
          hintmask 1011110010000000
          243 223 rmoveto
          55 108 46 122 98 85 rrcurveto
          72 -57 40 -94 -100 vvcurveto
          -90 -54 -156 -91 -67 -41 116 66 -58 vhcurveto
          -96 4 rmoveto
          12 12 -4 -5 11 hvcurveto
          hintmask 0111110010000000
          -77 -43 -67 -99 -61 hhcurveto
          -19 -14 11 23 hvcurveto
          hintmask 1011110010000000
          68 101 83 68 vhcurveto
          endchar
        </CharString>
        <CharString name="E">
          -42 -34 44 240 41 67 41 51 72 80 40 hstemhm
          21 55 76 52 125 84 -55 44 33 50 hintmask 1111111011000000
          hintmask 1111111101000000
          360 97 rmoveto
          -52 -25 -74 -35 -62 hhcurveto
          -80 -43 46 81 61 37 77 77 31 hvcurveto
          hintmask 1111111011000000
          -38 32 42 -18 45 hhcurveto
          81 4 12 53 27 vvcurveto
          49 -42 16 -46 -40 -42 -12 -13 -21 vhcurveto
          -5 18 -2 17 17 vvcurveto
          93 70 83 94 35 32 -14 -40 -20 -10 -21 -17 -14 vhcurveto
          17 -12 -16 12 -14 hhcurveto
          -19 -10 -15 -16 -19 16 -22 36 62 34 49 49 72 -58 22 -57 -121 -97 -81 -139 -24 9 -29 10 -23 hvcurveto
          -98 -42 -52 -85 -78 vvcurveto
          -100 59 -75 119 vhcurveto
          hintmask 1111111101000000
          90 124 74 96 38 -25 19 -22 -19 -18 -14 -27 -21 11 -23 20 -11 hvcurveto
          hintmask 1111111011000000
          -60 194 rmoveto
          -33 -25 22 21 -13 hvcurveto
          8 14 43 16 33 hhcurveto
          22 17 -7 -21 -17 -18 -19 -40 -3 hvcurveto
          endchar
        </CharString>
        <CharString name="Eacute">
          -34 -34 44 240 41 67 41 51 72 80 40 hstemhm
          29 55 76 52 125 84 -55 44 33 50 hintmask 1111111011000000
          hintmask 1111111101000000
          368 97 rmoveto
          -52 -25 -74 -35 -62 hhcurveto
          -80 -43 46 81 61 37 77 77 31 hvcurveto
          hintmask 1111111011000000
          -38 32 42 -18 45 hhcurveto
          81 4 12 53 27 vvcurveto
          49 -42 16 -46 -40 -42 -12 -13 -21 vhcurveto
          -5 18 -2 17 17 vvcurveto
          93 70 83 94 35 32 -14 -40 -20 -10 -21 -17 -14 vhcurveto
          17 -12 -16 12 -14 hhcurveto
          -19 -10 -15 -16 -19 16 -22 36 62 34 49 49 72 -58 22 -57 -121 -97 -81 -139 -24 9 -29 10 -23 hvcurveto
          -98 -42 -52 -85 -78 vvcurveto
          -100 59 -75 119 vhcurveto
          hintmask 1111111101000000
          90 124 74 96 38 -25 19 -22 -19 -18 -14 -27 -21 11 -23 20 -11 hvcurveto
          hintmask 1111111011000000
          -60 194 rmoveto
          -33 -25 22 21 -13 hvcurveto
          8 14 43 16 33 hhcurveto
          22 17 -7 -21 -17 -18 -19 -40 -3 hvcurveto
          77 526 rmoveto
          -27 -42 -102 -33 -10 12 -5 6 13 70 70 44 8 hvcurveto
          18 -20 18 -20 vhcurveto
          endchar
        </CharString>
        <CharString name="Ecircumflex">
          -34 -34 44 240 41 67 41 51 72 80 40 hstemhm
          29 55 76 52 125 84 -55 44 33 50 hintmask 1111111011000000
          hintmask 1111111101000000
          368 97 rmoveto
          -52 -25 -74 -35 -62 hhcurveto
          -80 -43 46 81 61 37 77 77 31 hvcurveto
          hintmask 1111111011000000
          -38 32 42 -18 45 hhcurveto
          81 4 12 53 27 vvcurveto
          49 -42 16 -46 -40 -42 -12 -13 -21 vhcurveto
          -5 18 -2 17 17 vvcurveto
          93 70 83 94 35 32 -14 -40 -20 -10 -21 -17 -14 vhcurveto
          17 -12 -16 12 -14 hhcurveto
          -19 -10 -15 -16 -19 16 -22 36 62 34 49 49 72 -58 22 -57 -121 -97 -81 -139 -24 9 -29 10 -23 hvcurveto
          -98 -42 -52 -85 -78 vvcurveto
          -100 59 -75 119 vhcurveto
          hintmask 1111111101000000
          90 124 74 96 38 -25 19 -22 -19 -18 -14 -27 -21 11 -23 20 -11 hvcurveto
          hintmask 1111111011000000
          -60 194 rmoveto
          -33 -25 22 21 -13 hvcurveto
          8 14 43 16 33 hhcurveto
          22 17 -7 -21 -17 -18 -19 -40 -3 hvcurveto
          44 500 rmoveto
          -28 -29 -38 -29 -29 -29 -11 -11 34 -35 16 12 1 1 61 54 19 19 77 -75 rcurveline
          9 -11 40 37 -8 9 -95 87 rcurveline
          -20 18 -12 -3 -16 -15 rrcurveto
          endchar
        </CharString>
        <CharString name="Edieresis">
          -34 -34 44 240 41 67 41 51 72 80 40 25 86 hstemhm
          29 55 76 52 44 107 -26 84 -55 44 -17 107 -57 50 hintmask 1111101100101000
          hintmask 1111101101001000
          368 97 rmoveto
          -52 -25 -74 -35 -62 hhcurveto
          -80 -43 46 81 61 37 77 77 31 hvcurveto
          hintmask 1111101100101000
          -38 32 42 -18 45 hhcurveto
          81 4 12 53 27 vvcurveto
          49 -42 16 -46 -40 -42 -12 -13 -21 vhcurveto
          -5 18 -2 17 17 vvcurveto
          93 70 83 94 35 32 -14 -40 -20 -10 -21 -17 -14 vhcurveto
          17 -12 -16 12 -14 hhcurveto
          -19 -10 -15 -16 -19 16 -22 36 62 34 49 49 72 -58 22 -57 -121 -97 -81 -139 -24 9 -29 10 -23 hvcurveto
          -98 -42 -52 -85 -78 vvcurveto
          -100 59 -75 119 vhcurveto
          hintmask 1111101101001000
          90 124 74 96 38 -25 19 -22 -19 -18 -14 -27 -21 11 -23 20 -11 hvcurveto
          hintmask 1111101100101000
          -60 194 rmoveto
          -33 -25 22 21 -13 hvcurveto
          8 14 43 16 33 hhcurveto
          22 17 -7 -21 -17 -18 -19 -40 -3 hvcurveto
          hintmask 1111111110001000
          -3 446 rmoveto
          9 -7 -12 9 -9 hhcurveto
          -12 -9 -8 -19 -33 33 -28 16 20 38 26 33 19 -12 8 -16 -10 -11 -8 -8 -9 hvcurveto
          hintmask 1111111100010000
          137 hmoveto
          9 -7 -11 9 -9 hhcurveto
          -13 -9 -8 -19 -33 33 -28 16 20 38 26 33 19 -13 8 -15 -10 -11 -8 -8 -9 hvcurveto
          endchar
        </CharString>
        <CharString name="Egrave">
          -34 -34 44 240 41 67 41 51 72 80 40 hstemhm
          29 55 76 52 125 84 -55 44 33 50 hintmask 1111111011000000
          hintmask 1111111101000000
          368 97 rmoveto
          -52 -25 -74 -35 -62 hhcurveto
          -80 -43 46 81 61 37 77 77 31 hvcurveto
          hintmask 1111111011000000
          -38 32 42 -18 45 hhcurveto
          81 4 12 53 27 vvcurveto
          49 -42 16 -46 -40 -42 -12 -13 -21 vhcurveto
          -5 18 -2 17 17 vvcurveto
          93 70 83 94 35 32 -14 -40 -20 -10 -21 -17 -14 vhcurveto
          17 -12 -16 12 -14 hhcurveto
          -19 -10 -15 -16 -19 16 -22 36 62 34 49 49 72 -58 22 -57 -121 -97 -81 -139 -24 9 -29 10 -23 hvcurveto
          -98 -42 -52 -85 -78 vvcurveto
          -100 59 -75 119 vhcurveto
          hintmask 1111111101000000
          90 124 74 96 38 -25 19 -22 -19 -18 -14 -27 -21 11 -23 20 -11 hvcurveto
          hintmask 1111111011000000
          -60 194 rmoveto
          -33 -25 22 21 -13 hvcurveto
          8 14 43 16 33 hhcurveto
          22 17 -7 -21 -17 -18 -19 -40 -3 hvcurveto
          55 526 rmoveto
          -20 -20 -18 -18 hvcurveto
          -44 8 70 -70 13 hhcurveto
          6 12 5 10 33 -42 102 -27 hvcurveto
          endchar
        </CharString>
        <CharString name="Eth">
          229 -11 42 -41 44 115 43 -13 46 51 39 0 48 -29 80 169 47 hstemhm
          33 47 2 45 -8 89 -29 85 433 52 hintmask 0100010101001000
          hintmask 0100001101011000
          179 374 rmoveto
          -20 15 -17 20 -3 vhcurveto
          hintmask 0100100101011000
          -13 -10 -13 -6 -13 hhcurveto
          -25 -26 22 37 117 165 92 139 hvcurveto
          5 hlineto
          hintmask 1001010110101000
          -12 -55 -16 -82 -23 -83 rrcurveto
          -86 hlineto
          -11 0 -6 -19 -20 6 -3 9 hvcurveto
          68 hlineto
          -146 -44 -67 -138 -110 hhcurveto
          -38 -32 21 55 35 17 35 24 2 hvcurveto
          -1 -6 -1 -5 -4 vvcurveto
          -33 24 -16 22 29 14 20 23 32 -22 35 -42 -73 -38 -54 -60 -83 61 -39 66 93 63 66 89 45 vhcurveto
          hintmask 0110100101011000
          3 5 5 2 4 43 3 -159 122 hhcurveto
          162 44 201 94 247 -157 98 -165 -151 -194 -90 -162 -69 44 -33 48 43 47 29 58 hvcurveto
          hintmask 0100001101011000
          28 -14 23 -29 -23 -19 -18 -22 vhcurveto
          hintmask 0110010101001000
          371 -59 rmoveto
          9 7 3 20 19 0 6 -11 hvcurveto
          -119 hlineto
          21 86 14 80 16 49 rrcurveto
          114 -21 96 -86 -188 vvcurveto
          -103 -58 -146 -100 vhcurveto
          -96 9 14 140 -74 9 16 39 13 42 11 42 rrcurveto
          endchar
        </CharString>
        <CharString name="Euro">
          -28 -11 49 182 48 52 48 16 41 169 45 hstemhm
          102 46 -38 47 226 76 -3 39 hintmask 1110110010000000
          294 220 rmoveto
          9 7 3 20 19 0 6 -11 hvcurveto
          hintmask 1110101010000000
          -149 hlineto
          1 17 3 17 3 18 rrcurveto
          137 hlineto
          9 7 3 20 19 0 6 -11 hvcurveto
          -130 hlineto
          117 35 75 109 104 hhcurveto
          41 32 -29 -66 hvcurveto
          hintmask 1111110010000000
          -38 -18 -36 -27 vhcurveto
          -6 3 51 -31 hhcurveto
          -16 -13 -18 -21 -31 30 -22 21 57 39 58 65 94 -60 38 -61 hvcurveto
          hintmask 1110101010000000
          -128 -89 -130 -141 -37 hvcurveto
          -72 hlineto
          -11 0 -6 -19 -20 6 -3 9 hvcurveto
          58 hlineto
          -3 -18 -2 -17 -2 -17 rrcurveto
          hintmask 1110110100000000
          -55 hlineto
          -11 0 -6 -19 -20 6 -3 9 hvcurveto
          50 hlineto
          -130 2 65 -101 122 hhcurveto
          108 60 113 64 33 -19 16 -18 -19 -20 -17 -31 -24 13 -19 16 -5 hvcurveto
          -49 -17 -56 -32 -45 hhcurveto
          -101 -43 84 98 -2 hvcurveto
          endchar
        </CharString>
        <CharString name="F">
          93 -17 43 52 80 15 46 -27 52 52 52 -27 46 23 42 -1 44 63 47 17 36 hstemhm
          30 47 5 52 -2 43 388 51 -34 43 hintmask 1010010110101010
          511 173 rmoveto
          62 50 39 62 hvcurveto
          hintmask 1010100110101010
          53 -49 21 -40 -24 -20 -10 -24 -13 18 -24 14 vhcurveto
          8 15 19 14 hhcurveto
          11 10 -8 -16 -34 -37 -19 -35 -52 -34 33 35 -35 hvcurveto
          10 52 8 51 10 46 rrcurveto
          -3 18 19 -2 18 hhcurveto
          hintmask 1010010111101100
          91 53 76 55 41 -30 35 -65 -73 -40 -64 -84 -27 hvcurveto
          hintmask 1010011010101010
          28 -95 -81 67 -68 hhcurveto
          -60 -45 -40 -71 -49 29 -35 56 42 33 25 30 13 -17 19 -14 hvcurveto
          -19 -2 -45 -30 hhcurveto
          -22 -9 17 20 48 27 21 34 48 87 -57 -32 95 hvcurveto
          hintmask 1001010110101010
          -9 -36 -8 -42 -7 -43 rrcurveto
          22 -27 -31 17 -42 hhcurveto
          -62 -50 -39 -62 -53 49 -21 40 24 20 10 24 12 -18 25 -13 hvcurveto
          -8 -16 -19 -14 hhcurveto
          -11 -10 8 16 34 37 19 35 36 27 -17 -22 26 hvcurveto
          hintmask 1110010110010010
          -129 -24 -33 -127 -90 hhcurveto
          -35 -20 28 24 hvcurveto
          16 3 24 15 21 vvcurveto
          23 -17 18 -22 -35 -18 -44 -26 -65 50 -40 66 110 43 123 135 27 vhcurveto
          hintmask 1010010110101010
          -35 35 38 -33 60 hhcurveto
          hintmask 1010010111101100
          -28 411 rmoveto
          12 14 15 6 13 hhcurveto
          21 17 -15 -22 -59 -51 -31 -44 -14 -14 1 2 -14 hvcurveto
          13 47 18 38 26 21 rrcurveto
          endchar
        </CharString>
        <CharString name="G">
          62 -323 45 63 97 41 40 318 40 101 67 119 36 hstemhm
          31 50 -10 57 5 89 13 35 48 50 151 48 -18 43 hintmask 1111110101010000
          hintmask 1111110011010000
          133 -165 rmoveto
          -34 25 -16 29 vhcurveto
          hintmask 1111111001010000
          54 29 39 42 46 -26 51 -73 -96 -44 -66 -66 -75 56 -79 101 156 1 191 121 21 hvcurveto
          107 12 94 95 121 vvcurveto
          74 -37 30 -42 -150 -5 -186 -108 -13 vhcurveto
          hintmask 1111110101101000
          -134 25 -58 95 112 vvcurveto
          193 143 156 178 66 34 -29 -35 -22 -9 -33 -27 -32 -17 -19 -18 -16 14 -14 29 60 25 61 50 83 -58 28 -84 -230 -149 -161 -218 -152 81 -104 166 -25 vhcurveto
          -72 -8 -8 -190 -114 hhcurveto
          hintmask 1111111001010000
          -68 -39 59 54 57 48 31 43 41 22 -24 -33 -11 -4 -11 -9 -8 hvcurveto
          hintmask 1111110011010000
          26 -1 -20 20 -24 hhcurveto
          -25 -19 -21 -26 hvcurveto
          hintmask 1111110101110000
          235 198 rmoveto
          64 5 19 184 90 hhcurveto
          21 16 -22 -40 -87 -57 -81 -94 -18 hvcurveto
          endchar
        </CharString>
        <CharString name="H">
          380 -15 42 119 96 -72 44 -13 48 5 47 -38 46 -2 41 240 47 hstemhm
          35 46 -12 45 17 91 54 43 115 51 145 49 66 92 23 43 hintmask 1010010101011101
          hintmask 1100010101011111
          789 146 rmoveto
          23 21 19 24 4 hvcurveto
          hintmask 1100010101011101
          17 6 -22 -24 -73 -62 -43 -49 -37 -33 25 56 136 154 297 9 19 hvcurveto
          16 7 -27 12 -14 hhcurveto
          -8 -6 -3 -8 -3 hvcurveto
          hintmask 1010100101011101
          -25 -59 -54 -112 -38 -110 rrcurveto
          3 -8 -9 2 -7 hhcurveto
          hintmask 1001001101011101
          -48 -49 -52 -1 hhcurveto
          2 -2 -23 97 -64 -3 -3 -1 -3 hhcurveto
          16 51 15 64 39 vvcurveto
          72 -36 62 -86 -119 -175 -99 -166 vhcurveto
          hintmask 1010010101011101
          -73 41 -34 52 91 66 79 78 26 -12 25 -28 -23 -17 -18 -23 -20 18 -17 19 -4 vhcurveto
          -45 -8 -54 -35 -44 hhcurveto
          -31 -25 18 46 129 139 86 101 48 32 -23 -66 -165 -156 -307 -121 hvcurveto
          hintmask 1010001110111101
          -39 -37 27 46 27 19 43 31 hvcurveto
          -32 1 23 -15 23 hhcurveto
          21 23 15 26 31 -38 19 -31 -67 -51 -51 -63 -83 62 -32 63 139 91 193 112 45 hvcurveto
          6 17 rlineto
          2 hlineto
          hintmask 1001001101011101
          69 -26 -106 65 hhcurveto
          hintmask 1010100101011101
          37 30 53 40 hhcurveto
          2 hlineto
          -18 -58 -12 -54 -44 vvcurveto
          -82 53 -31 57 84 79 64 84 vhcurveto
          hintmask 1100010101011101
          74 -45 35 -60 vhcurveto
          hintmask 1100010101011111
          -36 -17 -26 -23 -24 15 -23 29 hvcurveto
          endchar
        </CharString>
        <CharString name="I">
          -90 -12 42 299 40 43 75 89 46 hstemhm
          23 46 63 57 -23 36 116 59 -36 96 hintmask 1101110100000000
          hintmask 1101110010000000
          341 148 rmoveto
          -23 24 -19 18 -7 vhcurveto
          -41 -19 -60 -28 -46 hhcurveto
          -39 -30 22 51 hvcurveto
          hintmask 1101110100000000
          130 188 114 154 vvcurveto
          74 -61 47 -85 -99 -109 -67 -123 -67 41 -36 52 vhcurveto
          hintmask 1111101100000000
          55 31 48 42 32 -12 36 -35 -23 -19 -17 -21 -21 23 -16 30 hvcurveto
          -27 -7 -23 -16 -20 hhcurveto
          -34 -13 29 30 103 95 45 62 65 27 -37 -49 hvcurveto
          hintmask 1101110100000000
          -148 -186 -83 -147 vvcurveto
          -71 48 -53 84 vhcurveto
          hintmask 1101110010000000
          93 80 74 86 29 -22 23 -26 -26 -22 -23 -29 hvcurveto
          endchar
        </CharString>
        <CharString name="Iacute">
          -90 -12 42 299 40 43 75 89 46 hstemhm
          23 46 63 57 -23 36 116 59 -36 96 hintmask 1101110100000000
          hintmask 1101110010000000
          341 148 rmoveto
          -23 24 -19 18 -7 vhcurveto
          -41 -19 -60 -28 -46 hhcurveto
          -39 -30 22 51 hvcurveto
          hintmask 1101110100000000
          130 188 114 154 vvcurveto
          74 -61 47 -85 -99 -109 -67 -123 -67 41 -36 52 vhcurveto
          hintmask 1111101100000000
          55 31 48 42 32 -12 36 -35 -23 -19 -17 -21 -21 23 -16 30 hvcurveto
          -27 -7 -23 -16 -20 hhcurveto
          -34 -13 29 30 103 95 45 62 65 27 -37 -49 hvcurveto
          hintmask 1101110100000000
          -148 -186 -83 -147 vvcurveto
          -71 48 -53 84 vhcurveto
          hintmask 1101110010000000
          93 80 74 86 29 -22 23 -26 -26 -22 -23 -29 hvcurveto
          -63 669 rmoveto
          -27 -42 -102 -33 -10 12 -5 6 13 70 70 44 8 hvcurveto
          18 -20 18 -20 vhcurveto
          endchar
        </CharString>
        <CharString name="Icircumflex">
          -90 -12 42 299 40 43 75 89 46 hstemhm
          23 46 63 57 -23 36 116 59 -36 96 hintmask 1101110100000000
          hintmask 1101110010000000
          341 148 rmoveto
          -23 24 -19 18 -7 vhcurveto
          -41 -19 -60 -28 -46 hhcurveto
          -39 -30 22 51 hvcurveto
          hintmask 1101110100000000
          130 188 114 154 vvcurveto
          74 -61 47 -85 -99 -109 -67 -123 -67 41 -36 52 vhcurveto
          hintmask 1111101100000000
          55 31 48 42 32 -12 36 -35 -23 -19 -17 -21 -21 23 -16 30 hvcurveto
          -27 -7 -23 -16 -20 hhcurveto
          -34 -13 29 30 103 95 45 62 65 27 -37 -49 hvcurveto
          hintmask 1101110100000000
          -148 -186 -83 -147 vvcurveto
          -71 48 -53 84 vhcurveto
          hintmask 1101110010000000
          93 80 74 86 29 -22 23 -26 -26 -22 -23 -29 hvcurveto
          -96 643 rmoveto
          -28 -29 -38 -29 -29 -29 -11 -11 34 -35 16 12 1 1 61 54 19 19 77 -75 rcurveline
          9 -11 40 37 -8 9 -95 87 rcurveline
          -20 18 -12 -3 -16 -15 rrcurveto
          endchar
        </CharString>
        <CharString name="Idieresis">
          -90 -12 42 299 40 43 75 89 46 45 86 hstemhm
          23 46 63 57 -40 107 -90 36 84 107 -75 59 -36 96 hintmask 1101011000100000
          hintmask 1101011000010000
          341 148 rmoveto
          -23 24 -19 18 -7 vhcurveto
          -41 -19 -60 -28 -46 hhcurveto
          -39 -30 22 51 hvcurveto
          hintmask 1101011000100000
          130 188 114 154 vvcurveto
          74 -61 47 -85 -99 -109 -67 -123 -67 41 -36 52 vhcurveto
          hintmask 1111010010100000
          55 31 48 42 32 -12 36 -35 -23 -19 -17 -21 -21 23 -16 30 hvcurveto
          -27 -7 -23 -16 -20 hhcurveto
          -34 -13 29 30 103 95 45 62 65 27 -37 -49 hvcurveto
          hintmask 1101011000100000
          -148 -186 -83 -147 vvcurveto
          -71 48 -53 84 vhcurveto
          hintmask 1101011000010000
          93 80 74 86 29 -22 23 -26 -26 -22 -23 -29 hvcurveto
          hintmask 1101110100100000
          -143 589 rmoveto
          9 -7 -12 9 -9 hhcurveto
          -12 -9 -8 -19 -33 33 -28 16 20 38 26 33 19 -12 8 -16 -10 -11 -8 -8 -9 hvcurveto
          hintmask 1101111001000000
          137 hmoveto
          9 -7 -11 9 -9 hhcurveto
          -13 -9 -8 -19 -33 33 -28 16 20 38 26 33 19 -13 8 -15 -10 -11 -8 -8 -9 hvcurveto
          endchar
        </CharString>
        <CharString name="Igrave">
          -90 -12 42 299 40 43 75 89 46 hstemhm
          23 46 63 57 -23 36 116 59 -36 96 hintmask 1101110100000000
          hintmask 1101110010000000
          341 148 rmoveto
          -23 24 -19 18 -7 vhcurveto
          -41 -19 -60 -28 -46 hhcurveto
          -39 -30 22 51 hvcurveto
          hintmask 1101110100000000
          130 188 114 154 vvcurveto
          74 -61 47 -85 -99 -109 -67 -123 -67 41 -36 52 vhcurveto
          hintmask 1111101100000000
          55 31 48 42 32 -12 36 -35 -23 -19 -17 -21 -21 23 -16 30 hvcurveto
          -27 -7 -23 -16 -20 hhcurveto
          -34 -13 29 30 103 95 45 62 65 27 -37 -49 hvcurveto
          hintmask 1101110100000000
          -148 -186 -83 -147 vvcurveto
          -71 48 -53 84 vhcurveto
          hintmask 1101110010000000
          93 80 74 86 29 -22 23 -26 -26 -22 -23 -29 hvcurveto
          -85 669 rmoveto
          -20 -20 -18 -18 hvcurveto
          -44 8 70 -70 13 hhcurveto
          6 12 5 10 33 -42 102 -27 hvcurveto
          endchar
        </CharString>
        <CharString name="J">
          60 -96 48 56 91 42 50 239 85 67 50 -17 49 hstemhm
          30 50 34 39 14 80 -25 45 281 44 hintmask 1010101101100000
          455 480 rmoveto
          hintmask 1010011101100000
          77 15 30 58 31 hhcurveto
          13 4 -13 -13 hvcurveto
          hintmask 1010101101100000
          -55 -43 -45 -50 -9 vhcurveto
          hintmask 1110011101100000
          -293 -429 rmoveto
          -24 20 -19 27 43 15 42 36 51 -34 54 -62 -97 -44 -70 -71 -74 50 -72 97 219 13 319 209 36 vhcurveto
          95 7 52 72 70 vvcurveto
          40 -18 43 -44 -71 -32 -78 -104 -21 vhcurveto
          hintmask 1011101101100000
          26 -69 -16 124 -93 hhcurveto
          -69 -45 -59 -60 -51 26 -32 51 hvcurveto
          hintmask 1011101110100000
          39 17 22 24 24 -17 15 -22 -21 -19 -18 -23 -1 hvcurveto
          hintmask 1111101101100000
          -12 -2 14 13 45 36 36 40 59 36 -120 -26 73 hvcurveto
          -208 -35 -10 -276 -178 hhcurveto
          -60 -34 49 47 47 29 46 59 27 23 -14 -30 4 hvcurveto
          1 -4 -5 1 -4 hhcurveto
          hintmask 1110011101100000
          -27 -20 -22 -26 hvcurveto
          endchar
        </CharString>
        <CharString name="K">
          455 -23 43 -42 45 174 39 -31 42 -1 45 20 41 -5 47 30 79 96 44 -44 45 hstemhm
          35 54 -12 47 69 83 -76 71 225 47 98 50 -28 49 52 88 35 46 2 39 hintmask 100101010101011101100000
          200 439 rmoveto
          -16 8 -13 11 -8 vhcurveto
          -33 -18 -31 -17 -24 hhcurveto
          -13 -9 10 22 111 184 104 113 55 20 -29 -39 hvcurveto
          hintmask 010101010110101101100000
          -202 -222 -306 -117 -49 -19 32 38 48 36 64 49 9 9 -2 -5 10 vhcurveto
          -6 -10 -3 -13 -11 vvcurveto
          -25 15 -23 27 29 12 22 23 48 -56 38 -42 -89 -54 -81 -73 -60 38 -55 85 vhcurveto
          109 6 130 142 78 159 rrcurveto
          hintmask 100011010101011011100000
          -30 10 34 -9 26 hhcurveto
          48 36 23 29 29 hvcurveto
          3 -8 2 -9 -10 -52 -22 -61 -60 vvcurveto
          hintmask 101001010101011101100000
          -64 48 -57 66 119 59 82 91 44 -28 42 -58 -56 -27 -13 -39 -21 16 -21 27 25 20 20 35 vhcurveto
          27 8 -20 -24 -87 -47 -46 -76 -44 -29 33 46 hvcurveto
          49 21 62 48 vvcurveto
          30 -9 28 -15 21 vhcurveto
          hintmask 101001010101011011010000
          105 70 30 157 108 hhcurveto
          29 10 -21 -24 -22 -9 -25 -10 -13 hvcurveto
          6 -9 -11 3 -10 hhcurveto
          -22 -20 -13 -26 -22 17 -18 22 53 38 81 48 47 -26 43 -65 -127 -32 -170 -104 -68 hvcurveto
          hintmask 100100111001011101010000
          16 -21 -25 9 -26 hhcurveto
          -25 -27 -8 -14 -21 hvcurveto
          20 57 12 56 51 vvcurveto
          70 -48 38 -66 -130 -222 -100 -149 vhcurveto
          hintmask 100101010101011101100000
          -54 30 -30 39 64 61 71 55 23 -10 21 -22 -22 -17 -19 -23 vhcurveto
          317 -131 rmoveto
          26 3 30 13 30 hhcurveto
          hintmask 100010110101011101100000
          16 18 -5 -9 14 hvcurveto
          -24 -23 -28 -18 -38 hhcurveto
          -12 -10 4 13 hvcurveto
          endchar
        </CharString>
        <CharString name="L">
          237 -16 47 -41 45 56 110 -74 48 106 47 248 58 hstemhm
          6 48 187 73 125 52 -14 43 39 90 66 50 hintmask 0101111110110000
          hintmask 1010111101110000
          554 -16 rmoveto
          108 103 63 119 100 -88 62 -77 -79 -44 -66 -62 -56 35 -53 77 40 20 29 29 26 -17 26 -29 -25 -19 -25 -40 hvcurveto
          -27 6 -12 23 25 vvcurveto
          42 32 49 55 52 56 -39 -70 -102 -81 -39 -81 -79 -73 40 38 -71 vhcurveto
          hintmask 0101111110110000
          98 112 63 171 140 vvcurveto
          56 -21 46 -67 -63 -99 -84 -69 -36 21 -18 19 17 16 13 28 16 -12 14 -10 8 vhcurveto
          42 23 46 28 47 hhcurveto
          28 3 -25 -23 -137 -69 -158 -88 -99 hvcurveto
          23 -47 -46 18 -47 hhcurveto
          -80 -56 -53 -56 hvcurveto
          -58 5 48 -18 48 hhcurveto
          69 65 32 52 55 hvcurveto
          hintmask 1010111101110000
          -41 78 85 -49 95 hhcurveto
          hintmask 0101111110110000
          -500 85 rmoveto
          41 45 17 45 32 34 -12 -16 36 vhcurveto
          -40 -44 -47 -24 -45 hhcurveto
          -28 -27 8 26 -1 hvcurveto
          endchar
        </CharString>
        <CharString name="M">
          500 -14 43 -41 44 -44 53 293 45 184 51 -48 48 -22 47 hstemhm
          38 44 -33 94 197 45 51 46 139 43 95 48 68 52 1 95 hintmask 0100001101111100
          hintmask 0100001101111010
          962 106 rmoveto
          -41 -17 -49 -33 -38 hhcurveto
          -28 -23 18 46 hvcurveto
          hintmask 0100100101111100
          118 120 170 133 vvcurveto
          70 -45 27 -50 -58 -58 -36 -54 -52 vhcurveto
          hintmask 0100010101111100
          50 -7 -24 40 -62 hhcurveto
          -62 -77 -32 -47 -47 hvcurveto
          hintmask 1001001101111100
          59 -3 -27 45 -71 hhcurveto
          -114 -132 -100 -118 -62 37 -25 39 37 39 20 37 25 -18 20 -22 hvcurveto
          -43 11 -57 -15 hhcurveto
          -16 -5 20 16 98 120 79 74 51 13 -30 -36 -96 -96 -401 -100 hvcurveto
          hintmask 1000010011111100
          -15 -20 4 12 -11 hvcurveto
          28 10 17 22 20 vvcurveto
          26 -19 13 -21 -26 -28 -20 -42 -60 51 -28 43 139 79 354 137 19 vhcurveto
          42 39 68 47 61 hhcurveto
          63 10 -40 -43 hvcurveto
          -8 vlineto
          hintmask 0100100101111100
          -107 -137 -78 -199 -90 vvcurveto
          -44 17 -16 18 vhcurveto
          2 3 -1 2 hhcurveto
          116 63 306 165 8 hvcurveto
          61 50 56 43 54 hhcurveto
          28 22 -15 -41 hvcurveto
          -123 -116 -154 -140 vvcurveto
          -71 40 -31 50 vhcurveto
          hintmask 0100001101111010
          77 97 73 94 28 -22 22 -27 -32 -14 -21 -24 -21 12 -23 22 -10 hvcurveto
          hintmask 0010001101111100
          -471 -65 rmoveto
          -2 -1 -1 1 -1 hvcurveto
          1 vlineto
          -4 -1 7 9 64 55 148 78 120 hvcurveto
          -164 -20 -63 -185 -41 hhcurveto
          endchar
        </CharString>
        <CharString name="N">
          504 -11 54 -47 43 86 79 65 43 58 74 117 51 -25 47 hstemhm
          6 40 381 52 -1 55 233 41 187 50 hintmask 0101001101110000
          107 -4 rmoveto
          hintmask 0101010101110000
          202 -23 565 147 hhcurveto
          47 -2 -40 -36 hvcurveto
          -100 -51 -179 -80 vvcurveto
          hintmask 1001101110110000
          -78 18 -59 63 vhcurveto
          172 -48 598 271 hhcurveto
          57 34 -45 -58 -79 -60 -93 -78 -32 -17 23 24 12 4 13 9 9 hvcurveto
          -16 6 14 -7 14 hhcurveto
          19 20 13 22 19 -16 20 -30 -51 -30 -40 -43 -66 43 -26 48 111 76 123 98 77 -44 67 -105 hvcurveto
          -286 9 -591 -106 hhcurveto
          -24 -9 33 46 hvcurveto
          100 54 161 109 vvcurveto
          71 -19 49 -71 vhcurveto
          hintmask 0111110101110000
          -227 58 -573 -178 hhcurveto
          -29 -21 26 23 20 7 21 11 12 hvcurveto
          -12 7 22 -4 12 hhcurveto
          25 20 17 22 22 -20 18 -25 -60 -39 -57 -53 -50 31 -48 70 hvcurveto
          endchar
        </CharString>
        <CharString name="Ntilde">
          537 -11 54 -47 43 86 79 65 43 58 74 117 51 -25 47 32 79 -69 79 hstemhm
          27 40 381 52 -1 55 -15 58 136 57 -3 41 187 50 hintmask 0101001001010011
          128 -4 rmoveto
          hintmask 0101010001010011
          202 -23 565 147 hhcurveto
          47 -2 -40 -36 hvcurveto
          -100 -51 -179 -80 vvcurveto
          hintmask 1001101001100011
          -78 18 -59 63 vhcurveto
          172 -48 598 271 hhcurveto
          57 34 -45 -58 -79 -60 -93 -78 -32 -17 23 24 12 4 13 9 9 hvcurveto
          -16 6 14 -7 14 hhcurveto
          19 20 13 22 19 -16 20 -30 -51 -30 -40 -43 -66 43 -26 48 111 76 123 98 77 -44 67 -105 hvcurveto
          -286 9 -591 -106 hhcurveto
          -24 -9 33 46 hvcurveto
          100 54 161 109 vvcurveto
          71 -19 49 -71 vhcurveto
          hintmask 0111110001010011
          -227 58 -573 -178 hhcurveto
          -29 -21 26 23 20 7 21 11 12 hvcurveto
          -12 7 22 -4 12 hhcurveto
          25 20 17 22 22 -20 18 -25 -60 -39 -57 -53 -50 31 -48 70 hvcurveto
          609 670 rmoveto
          hintmask 0101001001010011
          28 25 12 34 hvcurveto
          hintmask 0101001101010101
          19 -12 14 -18 -22 -5 -18 -14 vhcurveto
          10 -42 -56 32 -43 hhcurveto
          -29 -24 -12 -35 hvcurveto
          hintmask 0101001011001011
          -19 14 -13 15 22 7 15 15 vhcurveto
          -10 40 57 -30 43 hhcurveto
          endchar
        </CharString>
        <CharString name="O">
          102 -12 44 189 40 254 49 34 49 hstem
          33 54 128 48 115 91 105 53 vstem
          378 345 rmoveto
          -24 17 -22 18 -7 vhcurveto
          -21 -19 -22 -10 -20 hhcurveto
          -58 -31 51 55 95 71 53 85 113 42 -72 -86 -201 -164 -124 -139 -125 -59 91 118 197 142 160 185 29 16 1 17 21 -24 10 -29 -228 -145 -212 -201 -135 75 -111 161 172 186 138 224 hvcurveto
          118 -70 96 -135 -109 -98 -69 -124 -77 45 -73 91 66 52 58 66 29 -21 24 -25 -25 -20 -24 -29 vhcurveto
          endchar
        </CharString>
        <CharString name="OE">
          303 -27 44 -43 50 179 43 71 50 34 48 13 75 47 46 -25 44 hstemhm
          35 55 172 61 66 60 -41 55 42 55 33 91 -15 75 26 48 -44 48 hintmask 101110101010100010000000
          hintmask 101111101010101010000000
          715 462 rmoveto
          hintmask 011111011010100100000000
          59 44 38 53 72 -64 24 -59 -106 -84 -75 -98 -42 25 -58 40 -25 hvcurveto
          -135 -35 -46 -81 -77 vvcurveto
          -20 3 -20 8 -18 vhcurveto
          -45 -48 -63 -31 -49 hhcurveto
          -87 -63 88 113 hvcurveto
          hintmask 011110101101100010000000
          208 118 151 130 52 18 -24 -35 -36 -28 -40 -42 -9 -9 4 8 -9 vhcurveto
          8 11 4 11 9 vvcurveto
          18 -15 12 -14 -16 -16 -13 -27 -52 39 -29 44 70 48 65 61 54 -38 49 -94 -83 -213 -101 -288 -160 76 -107 121 57 66 21 64 68 vhcurveto
          hintmask 101110101001110010000000
          -50 38 66 -36 86 hhcurveto
          129 80 81 84 62 -51 46 -69 -60 -49 -61 -51 -32 19 -32 36 19 17 15 24 23 -15 25 -25 5 hvcurveto
          27 9 24 14 29 hhcurveto
          46 22 -30 -34 -79 -81 -43 -77 hvcurveto
          hintmask 101111011010100100000000
          -83 -84 47 96 83 57 74 151 10 0 6 21 26 -10 -3 -13 -57 -27 65 42 75 53 56 81 49 27 -22 -28 -15 -9 -18 -17 -16 hvcurveto
          hintmask 101111101010101010000000
          21 -5 -18 10 -17 hhcurveto
          -18 -17 -11 -22 -20 16 -22 30 hvcurveto
          endchar
        </CharString>
        <CharString name="Oacute">
          102 -12 44 189 40 254 49 34 49 hstem
          33 54 128 48 115 91 105 53 vstem
          378 345 rmoveto
          -24 17 -22 18 -7 vhcurveto
          -21 -19 -22 -10 -20 hhcurveto
          -58 -31 51 55 95 71 53 85 113 42 -72 -86 -201 -164 -124 -139 -125 -59 91 118 197 142 160 185 29 16 1 17 21 -24 10 -29 -228 -145 -212 -201 -135 75 -111 161 172 186 138 224 hvcurveto
          118 -70 96 -135 -109 -98 -69 -124 -77 45 -73 91 66 52 58 66 29 -21 24 -25 -25 -20 -24 -29 vhcurveto
          38 472 rmoveto
          -27 -42 -102 -33 -10 12 -5 6 13 70 70 44 8 hvcurveto
          18 -20 18 -20 vhcurveto
          endchar
        </CharString>
        <CharString name="Ocircumflex">
          102 -12 44 189 40 254 49 34 49 hstem
          33 54 128 48 115 91 105 53 vstem
          378 345 rmoveto
          -24 17 -22 18 -7 vhcurveto
          -21 -19 -22 -10 -20 hhcurveto
          -58 -31 51 55 95 71 53 85 113 42 -72 -86 -201 -164 -124 -139 -125 -59 91 118 197 142 160 185 29 16 1 17 21 -24 10 -29 -228 -145 -212 -201 -135 75 -111 161 172 186 138 224 hvcurveto
          118 -70 96 -135 -109 -98 -69 -124 -77 45 -73 91 66 52 58 66 29 -21 24 -25 -25 -20 -24 -29 vhcurveto
          5 446 rmoveto
          -28 -29 -38 -29 -29 -29 -11 -11 34 -35 16 12 1 1 61 54 19 19 77 -75 rcurveline
          9 -11 40 37 -8 9 -95 87 rcurveline
          -20 18 -12 -3 -16 -15 rrcurveto
          endchar
        </CharString>
        <CharString name="Odieresis">
          102 -12 44 189 40 254 49 34 49 20 86 hstemhm
          33 54 128 48 24 107 -16 91 -45 107 43 53 hintmask 1111011010100000
          378 345 rmoveto
          -24 17 -22 18 -7 vhcurveto
          -21 -19 -22 -10 -20 hhcurveto
          -58 -31 51 55 95 71 53 85 113 42 -72 -86 -201 -164 -124 -139 -125 -59 91 118 197 142 160 185 29 16 1 17 21 -24 10 -29 -228 -145 -212 -201 -135 75 -111 161 172 186 138 224 hvcurveto
          118 -70 96 -135 -109 -98 -69 -124 -77 45 -73 91 66 52 58 66 29 -21 24 -25 -25 -20 -24 -29 vhcurveto
          hintmask 1111111100100000
          -42 392 rmoveto
          9 -7 -12 9 -9 hhcurveto
          -12 -9 -8 -19 -33 33 -28 16 20 38 26 33 19 -12 8 -16 -10 -11 -8 -8 -9 hvcurveto
          hintmask 1111111001100000
          137 hmoveto
          9 -7 -11 9 -9 hhcurveto
          -13 -9 -8 -19 -33 33 -28 16 20 38 26 33 19 -13 8 -15 -10 -11 -8 -8 -9 hvcurveto
          endchar
        </CharString>
        <CharString name="Ograve">
          102 -12 44 189 40 254 49 34 49 hstem
          33 54 128 48 115 91 105 53 vstem
          378 345 rmoveto
          -24 17 -22 18 -7 vhcurveto
          -21 -19 -22 -10 -20 hhcurveto
          -58 -31 51 55 95 71 53 85 113 42 -72 -86 -201 -164 -124 -139 -125 -59 91 118 197 142 160 185 29 16 1 17 21 -24 10 -29 -228 -145 -212 -201 -135 75 -111 161 172 186 138 224 hvcurveto
          118 -70 96 -135 -109 -98 -69 -124 -77 45 -73 91 66 52 58 66 29 -21 24 -25 -25 -20 -24 -29 vhcurveto
          16 472 rmoveto
          -20 -20 -18 -18 hvcurveto
          -44 8 70 -70 13 hhcurveto
          6 12 5 10 33 -42 102 -27 hvcurveto
          endchar
        </CharString>
        <CharString name="Oslash">
          78 -12 44 -18 -21 595 46 hstemhm
          27 54 474 51 hintmask 10111000
          488 702 rmoveto
          -40 -76 rlineto
          5 -20 -22 3 -23 hhcurveto
          -205 -151 -234 -186 hvcurveto
          hintmask 01111000
          -93 37 -81 87 -34 vhcurveto
          -12 -26 -10 -24 -7 -18 -4 -20 38 -20 5 16 8 20 12 28 14 31 rrcurveto
          hintmask 10111000
          -3 18 20 -2 22 hhcurveto
          209 142 234 186 88 -39 76 -75 38 hvcurveto
          16 30 13 27 11 19 2 18 -38 17 -8 -19 rrcurveto
          -407 -481 rmoveto
          161 124 206 169 19 17 -2 -4 16 vhcurveto
          -75 -151 -112 -229 -69 -152 rrcurveto
          -62 30 -27 65 76 vvcurveto
          176 -189 rmoveto
          -15 -14 1 3 -13 hvcurveto
          70 152 109 227 75 150 rrcurveto
          56 -30 30 -59 -67 vvcurveto
          -162 -130 -215 -168 vhcurveto
          endchar
        </CharString>
        <CharString name="Otilde">
          102 -12 44 189 40 254 49 34 49 19 79 -69 79 hstemhm
          33 54 128 48 19 58 38 91 7 57 41 53 hintmask 1111001101010000
          378 345 rmoveto
          -24 17 -22 18 -7 vhcurveto
          -21 -19 -22 -10 -20 hhcurveto
          -58 -31 51 55 95 71 53 85 113 42 -72 -86 -201 -164 -124 -139 -125 -59 91 118 197 142 160 185 29 16 1 17 21 -24 10 -29 -228 -145 -212 -201 -135 75 -111 161 172 186 138 224 hvcurveto
          118 -70 96 -135 -109 -98 -69 -124 -77 45 -73 91 66 52 58 66 29 -21 24 -25 -25 -20 -24 -29 vhcurveto
          hintmask 1111101100110000
          102 321 rmoveto
          28 25 12 34 19 -12 14 -18 -22 -5 -18 -14 hvcurveto
          hintmask 1111011111010000
          10 -42 -56 32 -43 hhcurveto
          -29 -24 -12 -35 -19 14 -13 15 22 7 15 15 hvcurveto
          hintmask 1111101100110000
          -10 40 57 -30 43 hhcurveto
          endchar
        </CharString>
        <CharString name="P">
          188 -65 45 74 94 36 48 186 44 153 48 hstem
          6 42 326 49 71 86 90 50 vstem
          207 143 rmoveto
          -50 -8 -19 -113 -70 hhcurveto
          -39 -23 28 30 8 1 8 3 7 hvcurveto
          -5 8 10 -2 10 hhcurveto
          32 16 25 25 22 -14 22 -29 -51 -28 -63 -42 -75 51 -33 42 118 34 129 113 15 hvcurveto
          197 26 45 241 200 hhcurveto
          93 40 -74 -83 -106 -65 -120 -101 -43 -38 21 52 47 28 62 43 4 hvcurveto
          -20 3 18 -13 22 hhcurveto
          24 19 16 22 27 -25 12 -28 -83 -70 -61 -91 -87 65 -39 70 129 82 144 130 107 -56 98 -130 -272 -23 -323 -197 -32 hvcurveto
          endchar
        </CharString>
        <CharString name="Q">
          261 -137 47 80 42 -33 85 12 49 -4 49 -9 40 124 81 182 43 hstemhm
          29 51 -31 56 226 42 152 58 -29 40 144 52 hintmask 1101010101110100
          585 -137 rmoveto
          105 100 77 114 hvcurveto
          hintmask 1010100101101100
          72 -52 64 -76 -69 -39 -58 -53 -46 35 -34 56 31 16 22 21 21 -14 21 -30 -20 -20 -14 -18 -7 vhcurveto
          -6 9 -1 10 11 vvcurveto
          38 31 21 35 44 34 -29 -50 -94 -79 -58 -79 vhcurveto
          hintmask 1101011101110100
          -85 -51 62 60 -58 hvcurveto
          126 61 71 121 143 vvcurveto
          172 -100 122 -168 -132 -134 -92 -186 -98 48 -94 122 75 79 47 99 53 -31 46 -67 -39 -15 -23 -21 -19 14 -18 27 20 21 15 17 5 vhcurveto
          16 -12 7 -19 -20 vvcurveto
          -68 -61 -37 -47 -89 -29 79 76 161 111 71 99 131 79 -100 -137 -137 -62 -112 -113 -55 vhcurveto
          43 -47 -56 35 -82 hhcurveto
          hintmask 1101010110110100
          -60 -74 -18 -52 -2 hvcurveto
          -66 3 79 -19 79 hhcurveto
          56 51 8 15 45 hvcurveto
          hintmask 1101010101110100
          -66 70 61 -84 112 hhcurveto
          hintmask 1101010110110100
          -413 233 rmoveto
          52 41 -20 -28 36 hvcurveto
          -11 -36 -40 -5 -44 hhcurveto
          -40 -50 5 26 -11 hvcurveto
          28 5 48 5 39 hhcurveto
          endchar
        </CharString>
        <CharString name="R">
          442 -30 46 56 81 46 43 -33 42 -35 48 59 49 211 49 hstemhm
          16 51 403 49 121 52 -23 52 7 51 -7 41 105 49 hintmask 1010011111010100
          hintmask 1110011111001100
          813 153 rmoveto
          34 7 24 12 21 hhcurveto
          38 15 -34 -35 -79 -71 -35 -64 -48 -43 23 51 hvcurveto
          55 29 50 49 vvcurveto
          hintmask 1010011110100100
          16 -3 15 -8 16 vhcurveto
          44 46 25 67 62 vvcurveto
          hintmask 1001011111010100
          87 -56 79 -107 vhcurveto
          -379 167 -616 -259 hhcurveto
          -36 -42 28 58 43 21 48 33 16 hvcurveto
          -29 8 7 -35 37 hhcurveto
          23 16 22 24 44 -42 16 -31 -79 -44 -81 -71 -71 55 -58 89 hvcurveto
          287 -131 613 296 hhcurveto
          79 37 -47 -61 -54 -26 -60 -23 -31 hvcurveto
          22 -26 -36 20 -49 hhcurveto
          -70 -28 -45 -35 -55 51 -21 52 hvcurveto
          hintmask 1000111110100100
          37 37 15 17 21 hvcurveto
          1 -5 0 -5 -5 -45 -29 -57 -42 vvcurveto
          -81 66 -37 73 vhcurveto
          hintmask 1110011111001100
          91 97 43 112 78 -48 38 -60 -38 -49 -30 -65 -50 27 -25 23 21 10 16 18 21 -14 24 -26 2 hvcurveto
          -163 143 rmoveto
          -17 -10 -44 -15 -34 hhcurveto
          hintmask 1000111111010100
          -30 -13 11 12 26 25 10 29 31 35 -12 -15 11 hvcurveto
          endchar
        </CharString>
        <CharString name="S">
          -63 -13 43 236 39 95 82 123 42 hstemhm
          41 49 14 52 48 94 100 54 -49 48 hintmask 1101011100000000
          298 225 rmoveto
          58 -60 22 -39 vhcurveto
          hintmask 1101111100000000
          -104 -54 -66 -84 -121 96 -47 103 124 88 56 129 hvcurveto
          hintmask 1101011100000000
          187 -296 12 130 vvcurveto
          67 67 37 66 vhcurveto
          hintmask 1111011010000000
          57 57 -31 -62 -22 -9 -24 -18 -22 hvcurveto
          21 -12 -24 17 -17 hhcurveto
          -21 -18 -13 -22 -30 29 -17 32 69 37 61 57 94 -82 35 -81 -96 -88 -42 -104 hvcurveto
          hintmask 1101011100000000
          -183 294 14 -166 vvcurveto
          -98 -74 -38 -93 vhcurveto
          hintmask 1101111100000000
          -76 -65 39 87 60 47 50 56 15 16 -3 -8 15 hvcurveto
          -16 -8 -19 -20 -25 vvcurveto
          -24 22 -12 19 vhcurveto
          hintmask 1101011100000000
          24 29 21 38 hvcurveto
          endchar
        </CharString>
        <CharString name="T">
          92 -11 46 71 92 71 48 30 43 58 47 10 -20 106 48 hstemhm
          41 49 2 49 89 81 -1 45 34 50 135 78 hintmask 1101011010111000
          195 154 rmoveto
          -36 24 -12 32 59 45 48 56 vhcurveto
          hintmask 1111101010111000
          54 -36 53 -79 -84 -64 -77 -91 -89 70 -71 105 221 -79 353 108 59 vhcurveto
          -1 8 8 -1 8 hhcurveto
          76 80 46 75 4 hvcurveto
          20 -8 24 -28 -25 -17 -19 -20 -13 5 -14 12 -9 vhcurveto
          -29 -30 -36 -14 -37 -117 -67 144 -125 hhcurveto
          hintmask 1101011101011000
          -88 -50 -68 -77 -89 73 -58 76 72 49 53 62 24 -18 19 -23 -23 -17 -19 -24 -18 9 -14 14 -7 hvcurveto
          -33 -21 -49 0 -6 hhcurveto
          -56 3 -31 52 51 vvcurveto
          48 29 47 63 vhcurveto
          hintmask 1111101011011000
          67 79 -91 -37 92 hvcurveto
          -137 -57 64 -291 -170 hhcurveto
          -58 -58 44 74 62 32 54 68 hvcurveto
          hintmask 1111011010111000
          42 27 -28 -34 -14 -9 -15 -12 -12 hvcurveto
          18 -7 -19 14 -20 hhcurveto
          hintmask 1101011010111000
          -26 -21 -20 -24 -1 hvcurveto
          endchar
        </CharString>
        <CharString name="Thorn">
          84 -11 38 41 72 18 43 248 37 143 36 hstemhm
          33 43 18 47 29 74 277 49 hintmask 1011101010000000
          414 659 rmoveto
          4 -29 -33 2 -30 hhcurveto
          -89 -139 -23 -109 -57 44 -27 40 hvcurveto
          hintmask 1011101110000000
          35 31 20 37 22 -16 17 -21 -20 -17 -17 -22 -7 1 -6 3 -6 hvcurveto
          -1 -3 -2 0 -3 hhcurveto
          hintmask 1011101010000000
          -17 -8 20 16 79 80 27 138 1 hvcurveto
          hintmask 1111111010000000
          -593 -137 -32 -9 -54 hhcurveto
          -29 -31 17 26 3 0 4 2 3 hvcurveto
          -8 7 9 -4 12 hhcurveto
          21 17 15 21 22 -20 14 -24 -44 -23 -37 -28 -59 52 -27 53 75 33 31 141 42 hvcurveto
          hintmask 1011101010000000
          -2 16 18 -1 13 hhcurveto
          124 111 73 138 122 -82 50 -99 16 hvcurveto
          -9 -36 rmoveto
          104 -18 37 -64 -65 vvcurveto
          -116 -89 -57 -96 -10 -14 0 1 -12 vhcurveto
          21 77 25 104 34 138 rrcurveto
          endchar
        </CharString>
        <CharString name="U">
          304 -9 45 -43 50 262 43 227 55 -40 41 hstemhm
          29 45 92 77 -21 53 79 52 123 47 111 96 -10 50 hintmask 0110110111010000
          hintmask 0111011011010000
          768 517 rmoveto
          -23 -74 -76 -127 -89 -104 rrcurveto
          168 20 100 195 55 hhcurveto
          26 -9 -44 -14 -4 hvcurveto
          -602 -75 rmoveto
          -19 13 -16 17 -4 vhcurveto
          -33 -13 -34 -22 -40 hhcurveto
          -28 -7 23 22 hvcurveto
          hintmask 0110110111010000
          74 104 123 100 52 24 -33 -43 vhcurveto
          -121 -132 -154 -139 vvcurveto
          -57 38 -50 66 62 74 43 63 72 vhcurveto
          hintmask 1010110111100000
          -66 12 36 -42 66 hhcurveto
          67 68 62 57 30 -21 24 -27 -31 -17 -30 -28 -20 11 -21 17 -9 hvcurveto
          -15 -23 -25 -5 -19 hhcurveto
          -41 -27 39 64 -4 hvcurveto
          hintmask 0111010111010000
          133 134 114 193 104 vvcurveto
          31 -15 29 -32 -124 -123 -281 -192 vhcurveto
          -67 -67 -70 -47 -59 hhcurveto
          -44 -14 30 33 hvcurveto
          132 131 153 118 vvcurveto
          hintmask 0110111011010000
          82 -42 40 -83 -110 -142 -116 -113 -54 25 -43 60 72 57 71 61 23 -16 22 -23 vhcurveto
          hintmask 0111011011010000
          -21 -17 -18 -22 hvcurveto
          endchar
        </CharString>
        <CharString name="Uacute">
          304 -9 45 -43 50 262 43 227 55 -40 41 hstemhm
          29 45 92 77 -21 53 79 52 123 47 111 96 -10 50 hintmask 0110110111010000
          hintmask 0111011011010000
          768 517 rmoveto
          -23 -74 -76 -127 -89 -104 rrcurveto
          168 20 100 195 55 hhcurveto
          26 -9 -44 -14 -4 hvcurveto
          -602 -75 rmoveto
          -19 13 -16 17 -4 vhcurveto
          -33 -13 -34 -22 -40 hhcurveto
          -28 -7 23 22 hvcurveto
          hintmask 0110110111010000
          74 104 123 100 52 24 -33 -43 vhcurveto
          -121 -132 -154 -139 vvcurveto
          -57 38 -50 66 62 74 43 63 72 vhcurveto
          hintmask 1010110111100000
          -66 12 36 -42 66 hhcurveto
          67 68 62 57 30 -21 24 -27 -31 -17 -30 -28 -20 11 -21 17 -9 hvcurveto
          -15 -23 -25 -5 -19 hhcurveto
          -41 -27 39 64 -4 hvcurveto
          hintmask 0111010111010000
          133 134 114 193 104 vvcurveto
          31 -15 29 -32 -124 -123 -281 -192 vhcurveto
          -67 -67 -70 -47 -59 hhcurveto
          -44 -14 30 33 hvcurveto
          132 131 153 118 vvcurveto
          hintmask 0110111011010000
          82 -42 40 -83 -110 -142 -116 -113 -54 25 -43 60 72 57 71 61 23 -16 22 -23 vhcurveto
          hintmask 0111011011010000
          -21 -17 -18 -22 hvcurveto
          382 375 rmoveto
          -27 -42 -102 -33 -10 12 -5 6 13 70 70 44 8 hvcurveto
          18 -20 18 -20 vhcurveto
          endchar
        </CharString>
        <CharString name="Ucircumflex">
          304 -9 45 -43 50 262 43 227 55 -40 41 hstemhm
          29 45 92 77 -21 53 79 52 123 47 111 96 -10 50 hintmask 0110110111010000
          hintmask 0111011011010000
          768 517 rmoveto
          -23 -74 -76 -127 -89 -104 rrcurveto
          168 20 100 195 55 hhcurveto
          26 -9 -44 -14 -4 hvcurveto
          -602 -75 rmoveto
          -19 13 -16 17 -4 vhcurveto
          -33 -13 -34 -22 -40 hhcurveto
          -28 -7 23 22 hvcurveto
          hintmask 0110110111010000
          74 104 123 100 52 24 -33 -43 vhcurveto
          -121 -132 -154 -139 vvcurveto
          -57 38 -50 66 62 74 43 63 72 vhcurveto
          hintmask 1010110111100000
          -66 12 36 -42 66 hhcurveto
          67 68 62 57 30 -21 24 -27 -31 -17 -30 -28 -20 11 -21 17 -9 hvcurveto
          -15 -23 -25 -5 -19 hhcurveto
          -41 -27 39 64 -4 hvcurveto
          hintmask 0111010111010000
          133 134 114 193 104 vvcurveto
          31 -15 29 -32 -124 -123 -281 -192 vhcurveto
          -67 -67 -70 -47 -59 hhcurveto
          -44 -14 30 33 hvcurveto
          132 131 153 118 vvcurveto
          hintmask 0110111011010000
          82 -42 40 -83 -110 -142 -116 -113 -54 25 -43 60 72 57 71 61 23 -16 22 -23 vhcurveto
          hintmask 0111011011010000
          -21 -17 -18 -22 hvcurveto
          349 349 rmoveto
          -28 -29 -38 -29 -29 -29 -11 -11 34 -35 16 12 1 1 61 54 19 19 77 -75 rcurveline
          9 -11 40 37 -8 9 -95 87 rcurveline
          -20 18 -12 -3 -16 -15 rrcurveto
          endchar
        </CharString>
        <CharString name="Udieresis">
          304 -9 45 -43 50 262 43 227 55 -40 41 36 86 hstemhm
          29 45 92 77 -21 53 79 52 13 107 3 47 -20 107 24 96 -10 50 hintmask 0110101011010010
          hintmask 0111001101010010
          768 517 rmoveto
          -23 -74 -76 -127 -89 -104 rrcurveto
          168 20 100 195 55 hhcurveto
          26 -9 -44 -14 -4 hvcurveto
          -602 -75 rmoveto
          -19 13 -16 17 -4 vhcurveto
          -33 -13 -34 -22 -40 hhcurveto
          -28 -7 23 22 hvcurveto
          hintmask 0110101011010010
          74 104 123 100 52 24 -33 -43 vhcurveto
          -121 -132 -154 -139 vvcurveto
          -57 38 -50 66 62 74 43 63 72 vhcurveto
          hintmask 1010101011010100
          -66 12 36 -42 66 hhcurveto
          67 68 62 57 30 -21 24 -27 -31 -17 -30 -28 -20 11 -21 17 -9 hvcurveto
          -15 -23 -25 -5 -19 hhcurveto
          -41 -27 39 64 -4 hvcurveto
          hintmask 0111001011010010
          133 134 114 193 104 vvcurveto
          31 -15 29 -32 -124 -123 -281 -192 vhcurveto
          -67 -67 -70 -47 -59 hhcurveto
          -44 -14 30 33 hvcurveto
          132 131 153 118 vvcurveto
          hintmask 0110101101010010
          82 -42 40 -83 -110 -142 -116 -113 -54 25 -43 60 72 57 71 61 23 -16 22 -23 vhcurveto
          hintmask 0111001101010010
          -21 -17 -18 -22 hvcurveto
          hintmask 0110111011100010
          302 295 rmoveto
          9 -7 -12 9 -9 hhcurveto
          -12 -9 -8 -19 -33 33 -28 16 20 38 26 33 19 -12 8 -16 -10 -11 -8 -8 -9 hvcurveto
          hintmask 0110111011001010
          137 hmoveto
          9 -7 -11 9 -9 hhcurveto
          -13 -9 -8 -19 -33 33 -28 16 20 38 26 33 19 -13 8 -15 -10 -11 -8 -8 -9 hvcurveto
          endchar
        </CharString>
        <CharString name="Ugrave">
          304 -9 45 -43 50 262 43 227 55 -40 41 hstemhm
          29 45 92 77 -21 53 79 52 123 47 111 96 -10 50 hintmask 0110110111010000
          hintmask 0111011011010000
          768 517 rmoveto
          -23 -74 -76 -127 -89 -104 rrcurveto
          168 20 100 195 55 hhcurveto
          26 -9 -44 -14 -4 hvcurveto
          -602 -75 rmoveto
          -19 13 -16 17 -4 vhcurveto
          -33 -13 -34 -22 -40 hhcurveto
          -28 -7 23 22 hvcurveto
          hintmask 0110110111010000
          74 104 123 100 52 24 -33 -43 vhcurveto
          -121 -132 -154 -139 vvcurveto
          -57 38 -50 66 62 74 43 63 72 vhcurveto
          hintmask 1010110111100000
          -66 12 36 -42 66 hhcurveto
          67 68 62 57 30 -21 24 -27 -31 -17 -30 -28 -20 11 -21 17 -9 hvcurveto
          -15 -23 -25 -5 -19 hhcurveto
          -41 -27 39 64 -4 hvcurveto
          hintmask 0111010111010000
          133 134 114 193 104 vvcurveto
          31 -15 29 -32 -124 -123 -281 -192 vhcurveto
          -67 -67 -70 -47 -59 hhcurveto
          -44 -14 30 33 hvcurveto
          132 131 153 118 vvcurveto
          hintmask 0110111011010000
          82 -42 40 -83 -110 -142 -116 -113 -54 25 -43 60 72 57 71 61 23 -16 22 -23 vhcurveto
          hintmask 0111011011010000
          -21 -17 -18 -22 hvcurveto
          360 375 rmoveto
          -20 -20 -18 -18 hvcurveto
          -44 8 70 -70 13 hhcurveto
          6 12 5 10 33 -42 102 -27 hvcurveto
          endchar
        </CharString>
        <CharString name="V">
          306 -2 45 295 42 43 84 66 46 -28 44 hstemhm
          30 48 77 72 7 50 22 50 471 39 hintmask 1111011011000000
          725 465 rmoveto
          -23 20 -19 25 64 32 44 57 56 -43 39 -67 vhcurveto
          hintmask 1111010111000000
          -226 17 -576 -199 hhcurveto
          -50 -14 44 53 hvcurveto
          129 72 111 124 vvcurveto
          hintmask 1110111011000000
          92 -56 39 -67 -89 -114 -53 -122 -66 36 -56 73 56 32 51 45 23 -16 19 -20 -20 -16 -19 -23 -17 8 -14 12 -7 vhcurveto
          -9 -7 -12 -7 -24 hhcurveto
          -39 -15 36 31 107 90 37 63 41 34 -23 -55 hvcurveto
          -135 -72 -95 -152 vvcurveto
          -72 26 -61 87 vhcurveto
          hintmask 1111010111000000
          261 -50 575 216 hhcurveto
          38 15 -30 -26 -13 -3 -13 -10 -6 hvcurveto
          11 -8 -21 11 -15 hhcurveto
          -25 -20 -19 -23 hvcurveto
          endchar
        </CharString>
        <CharString name="W">
          357 -4 45 -42 45 240 46 1 40 32 82 65 43 18 41 hstemhm
          29 75 48 52 20 53 110 49 68 46 4 45 96 88 49 45 hintmask 0101101110101110
          695 444 rmoveto
          -23 19 -18 25 vhcurveto
          -16 -6 -18 -16 -21 hhcurveto
          -65 -30 49 53 65 44 73 77 65 47 -51 -119 -168 -94 -229 -165 hvcurveto
          hintmask 0110101110110110
          -38 -35 13 24 -24 hvcurveto
          45 48 29 65 66 vvcurveto
          39 -15 31 -40 -48 -60 -60 -90 vhcurveto
          hintmask 1001101110101110
          -36 7 -30 13 -25 vhcurveto
          -29 -37 -44 -19 -39 hhcurveto
          -67 -16 46 62 hvcurveto
          106 73 135 107 vvcurveto
          hintmask 0101111111101110
          68 -45 28 -50 -70 -83 -55 -78 -31 17 -19 21 21 16 20 17 17 -13 16 -14 9 vhcurveto
          34 16 44 27 36 hhcurveto
          28 23 -16 -42 hvcurveto
          -122 -72 -121 -114 vvcurveto
          -76 32 -63 108 vhcurveto
          hintmask 1001101110101110
          53 52 19 32 42 hvcurveto
          -32 34 48 -16 50 hhcurveto
          199 107 232 215 hvcurveto
          hintmask 0101101110101110
          142 -63 64 -98 -110 -52 -85 -82 -78 46 -76 87 52 44 33 66 26 -14 29 -30 -25 -19 -18 -23 vhcurveto
          -259 -264 rmoveto
          35 16 59 35 10 vhcurveto
          13 4 -11 -17 hvcurveto
          hintmask 0110101110110110
          -44 -24 -47 -35 -39 vhcurveto
          -6 16 -3 18 20 vvcurveto
          endchar
        </CharString>
        <CharString name="X">
          201 -13 45 51 83 -68 77 58 45 80 38 54 85 47 40 -28 44 hstemhm
          35 41 -2 48 70 71 93 48 -13 46 65 38 130 44 -43 50 hintmask 1101110101101101
          192 461 rmoveto
          -17 8 -13 13 -6 vhcurveto
          -19 -12 -19 -10 -18 hhcurveto
          -31 -11 22 27 103 88 46 78 55 48 -35 -86 -201 -108 -241 -149 hvcurveto
          hintmask 1101110110110101
          -33 -25 20 27 6 1 6 3 7 hvcurveto
          -10 8 18 -4 12 hhcurveto
          31 15 22 22 29 -22 10 -23 -49 -35 -36 -44 -70 52 -29 58 80 77 64 94 54 hvcurveto
          -90 9 49 -68 119 hhcurveto
          106 82 89 83 67 -41 52 -76 -56 -46 -31 -68 hvcurveto
          hintmask 1011110101110101
          -41 16 -40 37 19 18 13 24 22 -23 18 -29 vhcurveto
          39 32 19 30 34 35 -24 -47 -90 -85 -40 -56 -96 -30 77 86 22 3 29 6 33 vhcurveto
          6 19 4 19 4 19 rrcurveto
          hintmask 1101111001101110
          117 33 66 129 95 hhcurveto
          34 15 -22 -28 hvcurveto
          2 -6 -6 1 -6 hhcurveto
          -27 -27 -18 -26 -30 22 -11 15 49 30 45 35 66 -55 26 -39 -72 -64 -57 -80 -47 hvcurveto
          hintmask 1101110101101101
          90 -8 -43 63 -92 hhcurveto
          -98 -122 -68 -125 -47 23 -40 61 51 54 34 69 22 -16 18 -20 -20 -15 -18 -22 hvcurveto
          endchar
        </CharString>
        <CharString name="Y">
          137 -19 40 45 91 71 45 77 38 228 43 hstemhm
          29 45 76 70 -21 98 -37 53 -2 54 hintmask 1011110010000000
          hintmask 1111110100000000
          315 21 rmoveto
          -42 1 -23 18 -6 26 rrcurveto
          31 22 21 25 31 -19 14 -22 -42 -15 -37 -35 -62 41 -42 82 222 15 393 223 101 hvcurveto
          2 5 3 6 5 vvcurveto
          13 -12 10 -15 -9 -10 -4 -10 -5 vhcurveto
          -29 -57 -25 -108 -30 -108 rrcurveto
          hintmask 1011110010000000
          -37 -34 -71 -39 -52 hhcurveto
          -35 -25 17 48 hvcurveto
          72 52 91 65 vvcurveto
          hintmask 1011111001000000
          69 -60 24 -58 -126 -92 -107 -108 -50 28 -44 60 42 61 34 50 28 -20 13 -18 -17 -15 -12 -24 -13 5 -14 8 -10 vhcurveto
          -9 -14 -15 -5 -13 hhcurveto
          -24 -23 18 30 109 92 71 84 34 27 -15 -46 hvcurveto
          -51 -51 -104 -75 vvcurveto
          -72 47 -25 55 vhcurveto
          hintmask 1011110010000000
          49 62 24 32 38 hvcurveto
          -139 -44 -58 -124 -94 hhcurveto
          endchar
        </CharString>
        <CharString name="Yacute">
          137 -19 40 45 91 71 45 77 38 228 43 hstemhm
          29 45 76 70 -21 98 -37 53 -2 54 hintmask 1011110010000000
          hintmask 1111110100000000
          315 21 rmoveto
          -42 1 -23 18 -6 26 rrcurveto
          31 22 21 25 31 -19 14 -22 -42 -15 -37 -35 -62 41 -42 82 222 15 393 223 101 hvcurveto
          2 5 3 6 5 vvcurveto
          13 -12 10 -15 -9 -10 -4 -10 -5 vhcurveto
          -29 -57 -25 -108 -30 -108 rrcurveto
          hintmask 1011110010000000
          -37 -34 -71 -39 -52 hhcurveto
          -35 -25 17 48 hvcurveto
          72 52 91 65 vvcurveto
          hintmask 1011111001000000
          69 -60 24 -58 -126 -92 -107 -108 -50 28 -44 60 42 61 34 50 28 -20 13 -18 -17 -15 -12 -24 -13 5 -14 8 -10 vhcurveto
          -9 -14 -15 -5 -13 hhcurveto
          -24 -23 18 30 109 92 71 84 34 27 -15 -46 hvcurveto
          -51 -51 -104 -75 vvcurveto
          -72 47 -25 55 vhcurveto
          hintmask 1011110010000000
          49 62 24 32 38 hvcurveto
          -139 -44 -58 -124 -94 hhcurveto
          149 796 rmoveto
          hintmask 1111110100000000
          -27 -42 -102 -33 -10 12 -5 6 13 70 70 44 8 hvcurveto
          18 -20 18 -20 vhcurveto
          endchar
        </CharString>
        <CharString name="Z">
          147 -66 47 3 45 33 43 -1 45 72 42 204 50 38 50 -15 45 hstemhm
          27 48 19 46 264 38 28 89 54 7 4 44 hintmask 1001111010100100
          hintmask 1010111010110100
          470 130 rmoveto
          -9 1 -8 4 -7 vhcurveto
          -1 -3 -3 0 -3 hhcurveto
          hintmask 1010111010100100
          -18 -6 13 15 59 46 29 45 46 45 -30 -67 -90 -69 -53 -83 -82 -38 73 50 -64 hvcurveto
          67 106 38 151 46 106 rrcurveto
          16 hlineto
          hintmask 1001110110101000
          75 85 31 63 5 hvcurveto
          39 -32 35 -39 -63 -43 -46 -66 -35 vhcurveto
          hintmask 1001111011100100
          20 -66 -43 62 -68 hhcurveto
          -68 -69 -60 -63 -31 13 -41 37 17 15 10 22 18 -12 21 -24 11 hvcurveto
          30 5 26 33 55 hhcurveto
          65 40 -49 -25 57 hvcurveto
          -48 -110 -34 -146 -58 -96 rrcurveto
          12 -25 -29 8 -36 hhcurveto
          hintmask 0101111010100100
          -70 -61 -49 -61 hvcurveto
          0 vlineto
          -30 22 -25 51 vhcurveto
          hintmask 1010111010100100
          67 51 31 49 41 hvcurveto
          -50 63 47 -80 106 hhcurveto
          99 94 73 103 101 -73 52 -69 -60 -62 -44 -77 hvcurveto
          hintmask 1010111010110100
          -42 23 -38 49 41 42 26 42 28 -20 22 -25 vhcurveto
          hintmask 0101110110101000
          -25 -19 -22 -28 hvcurveto
          -367 -101 rmoveto
          -15 -13 9 9 36 41 21 41 24 21 -6 -9 18 hvcurveto
          -37 -31 -38 -23 -48 hhcurveto
          453 561 rmoveto
          10 13 -4 -13 hvcurveto
          -8 -42 -58 -13 -50 -1 rrcurveto
          44 26 29 29 38 hhcurveto
          61 -29 rmoveto
          -1 -1 0 1 -2 hvcurveto
          -1 2 1 0 1 hhcurveto
          endchar
        </CharString>
        <CharString name="a">
          96 -12 42 -41 47 25 83 23 20 -13 37 42 20 20 20 134 47 hstemhm
          36 48 70 20 -7 20 13 18 23 19 14 20 -7 20 70 49 23 85 46 46 hintmask 010011011010010101000000
          209 -11 rmoveto
          69 51 36 49 34 hvcurveto
          hintmask 100011011010010101000000
          -51 12 35 -35 72 hhcurveto
          74 70 50 78 62 -42 33 -51 hvcurveto
          hintmask 010011011010010111000000
          -54 -30 -49 -43 hvcurveto
          hintmask 011011011010010111000000
          -39 24 -19 24 19 18 14 28 23 -18 18 -22 vhcurveto
          hintmask 100011011010010111000000
          20 8 16 10 17 hhcurveto
          23 22 -19 -32 -46 -34 -47 -60 hvcurveto
          hintmask 100011011010010101000000
          -91 3 92 63 13 hvcurveto
          10 35 5 35 29 vvcurveto
          120 -58 90 -115 -160 -57 -189 -106 vhcurveto
          hintmask 010011011010010101000000
          -120 58 -90 115 vhcurveto
          47 vmoveto
          -96 -29 96 75 108 62 132 108 95 28 -96 -75 -108 -61 -132 -107 hvcurveto
          hintmask 010101011010010101000000
          21 157 rmoveto
          -19 8 14 -7 13 hhcurveto
          15 14 11 15 7 -3 8 -10 9 hvcurveto
          hintmask 010011011010001101000000
          18 7 8 15 10 vvcurveto
          14 -8 10 -27 vhcurveto
          hintmask 010011011010110101000000
          -4 -4 0 -1 -4 hvcurveto
          hintmask 010011111010110101000000
          27 -2 -14 14 -14 hhcurveto
          hintmask 010011011011010101000000
          -13 -14 -14 -27 -3 hvcurveto
          1 -6 -3 0 -2 hhcurveto
          hintmask 010101011100010101000000
          -22 -13 -13 -14 -10 8 -12 18 -7 hvcurveto
          hintmask 010101011010010101000000
          -10 -9 -3 -8 -7 vvcurveto
          -15 14 -11 15 13 14 7 19 7 vhcurveto
          -1 17 rmoveto
          -10 -4 -15 -13 -14 hhcurveto
          -5 -4 3 3 2 1 10 24 21 hvcurveto
          hintmask 010011011100010101000000
          -31 12 -7 5 3 vvcurveto
          hintmask 010011011011010101000000
          6 6 3 38 -3 vhcurveto
          hintmask 010011111011010101000000
          27 3 5 14 4 hhcurveto
          4 5 -14 -27 2 hvcurveto
          hintmask 010101011010001101000000
          31 1 rlineto
          11 4 -1 -6 -3 -7 -5 -31 -12 hvcurveto
          25 -16 0 -11 -6 vvcurveto
          hintmask 010101011010010101000000
          -3 -4 -3 -5 -7 -23 13 10 -6 vhcurveto
          endchar
        </CharString>
        <CharString name="aacute">
          96 -12 42 -41 47 25 83 23 20 -13 37 42 20 20 20 134 47 hstemhm
          36 48 70 20 -7 20 13 18 23 19 14 20 -7 20 70 49 23 85 46 46 hintmask 010011011010010101000000
          209 -11 rmoveto
          69 51 36 49 34 hvcurveto
          hintmask 100011011010010101000000
          -51 12 35 -35 72 hhcurveto
          74 70 50 78 62 -42 33 -51 hvcurveto
          hintmask 010011011010010111000000
          -54 -30 -49 -43 hvcurveto
          hintmask 011011011010010111000000
          -39 24 -19 24 19 18 14 28 23 -18 18 -22 vhcurveto
          hintmask 100011011010010111000000
          20 8 16 10 17 hhcurveto
          23 22 -19 -32 -46 -34 -47 -60 hvcurveto
          hintmask 100011011010010101000000
          -91 3 92 63 13 hvcurveto
          10 35 5 35 29 vvcurveto
          120 -58 90 -115 -160 -57 -189 -106 vhcurveto
          hintmask 010011011010010101000000
          -120 58 -90 115 vhcurveto
          47 vmoveto
          -96 -29 96 75 108 62 132 108 95 28 -96 -75 -108 -61 -132 -107 hvcurveto
          hintmask 010101011010010101000000
          21 157 rmoveto
          -19 8 14 -7 13 hhcurveto
          15 14 11 15 7 -3 8 -10 9 hvcurveto
          hintmask 010011011010001101000000
          18 7 8 15 10 vvcurveto
          14 -8 10 -27 vhcurveto
          hintmask 010011011010110101000000
          -4 -4 0 -1 -4 hvcurveto
          hintmask 010011111010110101000000
          27 -2 -14 14 -14 hhcurveto
          hintmask 010011011011010101000000
          -13 -14 -14 -27 -3 hvcurveto
          1 -6 -3 0 -2 hhcurveto
          hintmask 010101011100010101000000
          -22 -13 -13 -14 -10 8 -12 18 -7 hvcurveto
          hintmask 010101011010010101000000
          -10 -9 -3 -8 -7 vvcurveto
          -15 14 -11 15 13 14 7 19 7 vhcurveto
          -1 17 rmoveto
          -10 -4 -15 -13 -14 hhcurveto
          -5 -4 3 3 2 1 10 24 21 hvcurveto
          hintmask 010011011100010101000000
          -31 12 -7 5 3 vvcurveto
          hintmask 010011011011010101000000
          6 6 3 38 -3 vhcurveto
          hintmask 010011111011010101000000
          27 3 5 14 4 hhcurveto
          4 5 -14 -27 2 hvcurveto
          hintmask 010101011010001101000000
          31 1 rlineto
          11 4 -1 -6 -3 -7 -5 -31 -12 hvcurveto
          25 -16 0 -11 -6 vvcurveto
          hintmask 010101011010010101000000
          -3 -4 -3 -5 -7 -23 13 10 -6 vhcurveto
          83 469 rmoveto
          -27 -42 -102 -33 -10 12 -5 6 13 62 77 44 8 hvcurveto
          18 -12 11 -20 vhcurveto
          endchar
        </CharString>
        <CharString name="acircumflex">
          96 -12 42 -41 47 25 83 23 20 -13 37 42 20 20 20 134 47 hstemhm
          36 48 70 20 -7 20 13 18 23 19 14 20 -7 20 70 49 23 85 46 46 hintmask 010011011010010101000000
          209 -11 rmoveto
          69 51 36 49 34 hvcurveto
          hintmask 100011011010010101000000
          -51 12 35 -35 72 hhcurveto
          74 70 50 78 62 -42 33 -51 hvcurveto
          hintmask 010011011010010111000000
          -54 -30 -49 -43 hvcurveto
          hintmask 011011011010010111000000
          -39 24 -19 24 19 18 14 28 23 -18 18 -22 vhcurveto
          hintmask 100011011010010111000000
          20 8 16 10 17 hhcurveto
          23 22 -19 -32 -46 -34 -47 -60 hvcurveto
          hintmask 100011011010010101000000
          -91 3 92 63 13 hvcurveto
          10 35 5 35 29 vvcurveto
          120 -58 90 -115 -160 -57 -189 -106 vhcurveto
          hintmask 010011011010010101000000
          -120 58 -90 115 vhcurveto
          47 vmoveto
          -96 -29 96 75 108 62 132 108 95 28 -96 -75 -108 -61 -132 -107 hvcurveto
          hintmask 010101011010010101000000
          21 157 rmoveto
          -19 8 14 -7 13 hhcurveto
          15 14 11 15 7 -3 8 -10 9 hvcurveto
          hintmask 010011011010001101000000
          18 7 8 15 10 vvcurveto
          14 -8 10 -27 vhcurveto
          hintmask 010011011010110101000000
          -4 -4 0 -1 -4 hvcurveto
          hintmask 010011111010110101000000
          27 -2 -14 14 -14 hhcurveto
          hintmask 010011011011010101000000
          -13 -14 -14 -27 -3 hvcurveto
          1 -6 -3 0 -2 hhcurveto
          hintmask 010101011100010101000000
          -22 -13 -13 -14 -10 8 -12 18 -7 hvcurveto
          hintmask 010101011010010101000000
          -10 -9 -3 -8 -7 vvcurveto
          -15 14 -11 15 13 14 7 19 7 vhcurveto
          -1 17 rmoveto
          -10 -4 -15 -13 -14 hhcurveto
          -5 -4 3 3 2 1 10 24 21 hvcurveto
          hintmask 010011011100010101000000
          -31 12 -7 5 3 vvcurveto
          hintmask 010011011011010101000000
          6 6 3 38 -3 vhcurveto
          hintmask 010011111011010101000000
          27 3 5 14 4 hhcurveto
          4 5 -14 -27 2 hvcurveto
          hintmask 010101011010001101000000
          31 1 rlineto
          11 4 -1 -6 -3 -7 -5 -31 -12 hvcurveto
          25 -16 0 -11 -6 vvcurveto
          hintmask 010101011010010101000000
          -3 -4 -3 -5 -7 -23 13 10 -6 vhcurveto
          443 vmoveto
          -28 -29 -27 -29 -29 -29 -11 -11 34 -35 16 12 1 1 50 54 19 19 66 -75 rcurveline
          9 -11 40 37 -8 9 -84 87 rcurveline
          -18 20 -14 -5 -16 -15 rrcurveto
          endchar
        </CharString>
        <CharString name="acute">
          -405 529 150 hstem
          27 101 vstem
          96 679 rmoveto
          -27 -42 -102 -33 -10 12 -5 6 13 62 77 44 8 hvcurveto
          18 -12 11 -20 vhcurveto
          endchar
        </CharString>
        <CharString name="acute.case">
          -395 667 150 hstem
          28 109 vstem
          97 817 rmoveto
          -27 -42 -102 -33 -10 12 -5 6 13 70 70 44 8 hvcurveto
          18 -20 18 -20 vhcurveto
          endchar
        </CharString>
        <CharString name="adieresis">
          96 -12 42 -41 47 25 83 23 20 -13 37 42 20 20 20 134 47 35 86 hstemhm
          36 48 59 83 -72 20 -7 20 13 18 23 19 14 20 -15 83 -75 20 70 49 23 85 46 46 hintmask 010011011100100100101000
          209 -11 rmoveto
          69 51 36 49 34 hvcurveto
          hintmask 100010000000000000101000
          -51 12 35 -35 72 hhcurveto
          74 70 50 78 62 -42 33 -51 hvcurveto
          hintmask 000010000000000000010000
          -54 -30 -49 -43 hvcurveto
          hintmask 001000000000000000010000
          -39 24 -19 24 19 18 14 28 23 -18 18 -22 vhcurveto
          hintmask 100010000000000000011000
          20 8 16 10 17 hhcurveto
          23 22 -19 -32 -46 -34 -47 -60 hvcurveto
          hintmask 100000010100000000100000
          -91 3 92 63 13 hvcurveto
          10 35 5 35 29 vvcurveto
          120 -58 90 -115 -160 -57 -189 -106 vhcurveto
          hintmask 010011011100100100101000
          -120 58 -90 115 vhcurveto
          47 vmoveto
          -96 -29 96 75 108 62 132 108 95 28 -96 -75 -108 -61 -132 -107 hvcurveto
          hintmask 000101000000000100000000
          21 157 rmoveto
          -19 8 14 -7 13 hhcurveto
          15 14 11 15 7 -3 8 -10 9 hvcurveto
          hintmask 000001000000000001000000
          18 7 8 15 10 vvcurveto
          14 -8 10 -27 vhcurveto
          hintmask 000001000000001000000000
          -4 -4 0 -1 -4 hvcurveto
          hintmask 000000100000001000000000
          27 -2 -14 14 -14 hhcurveto
          hintmask 000001000000010000000000
          -13 -14 -14 -27 -3 hvcurveto
          1 -6 -3 0 -2 hhcurveto
          hintmask 000101000001000000000000
          -22 -13 -13 -14 -10 8 -12 18 -7 hvcurveto
          hintmask 000100000000100000000000
          -10 -9 -3 -8 -7 vvcurveto
          -15 14 -11 15 vhcurveto
          hintmask 000101000000000100000000
          13 14 7 19 7 hvcurveto
          hintmask 000101000000100000000000
          -1 17 rmoveto
          -10 -4 -15 -13 -14 hhcurveto
          -5 -4 3 3 2 1 10 24 21 hvcurveto
          hintmask 000001000001000000000000
          -31 12 -7 5 3 vvcurveto
          hintmask 000001000000010000000000
          6 6 3 38 -3 vhcurveto
          hintmask 000000100000010000000000
          27 3 5 14 4 hhcurveto
          4 5 -14 -27 2 hvcurveto
          hintmask 000101000000000001000000
          31 1 rlineto
          11 4 -1 -6 -3 -7 -5 -31 -12 hvcurveto
          25 -16 0 -11 -6 vvcurveto
          hintmask 000100000000000100000000
          -3 -4 -3 -5 -7 -23 13 10 -6 vhcurveto
          hintmask 000101000000100000000000
          -44 319 rmoveto
          hintmask 000000001010000010000000
          27 14 21 22 21 -14 22 -27 -28 -14 -22 -21 -21 14 -22 28 hvcurveto
          136 hmoveto
          27 14 21 22 21 -14 22 -27 -28 -14 -22 -21 -21 14 -22 28 hvcurveto
          endchar
        </CharString>
        <CharString name="ae">
          135 -12 43 182 37 -10 38 19 48 97 42 hstemhm
          36 49 -12 40 209 41 -31 49 226 48 hintmask 1010110101000000
          hintmask 1010110011000000
          395 241 rmoveto
          22 23 -1 24 hhcurveto
          93 98 13 122 57 -35 53 -85 hvcurveto
          hintmask 1101101101000000
          -73 -73 -80 -100 -27 hvcurveto
          1 5 0 6 6 vvcurveto
          92 -75 70 -93 -64 -58 -39 -77 -39 22 -32 49 30 28 16 34 13 -15 6 -14 vhcurveto
          -11 -24 -21 -14 hhcurveto
          -7 -4 5 13 28 31 51 61 88 29 -72 -58 -24 -3 -24 -4 -23 hvcurveto
          6 -22 -23 3 -22 hhcurveto
          hintmask 1100110011000000
          -110 -102 -72 -92 -53 35 -45 76 66 78 52 102 41 hvcurveto
          -66 49 -90 95 68 80 36 64 5 -8 19 -10 vhcurveto
          -40 -33 -81 -62 hhcurveto
          -48 -42 36 76 hvcurveto
          hintmask 1010110011000000
          40 8 39 6 21 vhcurveto
          hintmask 1100110101000000
          -95 -36 rmoveto
          -42 -64 -132 -106 -25 -20 12 34 75 83 61 85 16 15 -3 -5 16 vhcurveto
          hintmask 1010110101000000
          115 73 rmoveto
          -6 -6 0 1 -5 hvcurveto
          76 9 79 85 60 hhcurveto
          31 30 -12 -51 -105 -134 6 -58 hvcurveto
          endchar
        </CharString>
        <CharString name="agrave">
          94 -12 42 -41 47 25 83 23 20 -13 37 42 20 20 20 134 47 hstemhm
          36 48 70 20 -7 20 13 18 23 19 14 20 -7 20 70 49 23 85 46 46 hintmask 010011011010010101000000
          209 -11 rmoveto
          69 51 36 49 34 hvcurveto
          hintmask 100011011010010101000000
          -51 12 35 -35 72 hhcurveto
          74 70 50 78 62 -42 33 -51 hvcurveto
          hintmask 010011011010010111000000
          -54 -30 -49 -43 hvcurveto
          hintmask 011011011010010111000000
          -39 24 -19 24 19 18 14 28 23 -18 18 -22 vhcurveto
          hintmask 100011011010010111000000
          20 8 16 10 17 hhcurveto
          23 22 -19 -32 -46 -34 -47 -60 hvcurveto
          hintmask 100011011010010101000000
          -91 3 92 63 13 hvcurveto
          10 35 5 35 29 vvcurveto
          120 -58 90 -115 -160 -57 -189 -106 vhcurveto
          hintmask 010011011010010101000000
          -120 58 -90 115 vhcurveto
          47 vmoveto
          -96 -29 96 75 108 62 132 108 95 28 -96 -75 -108 -61 -132 -107 hvcurveto
          hintmask 010101011010010101000000
          21 157 rmoveto
          -19 8 14 -7 13 hhcurveto
          15 14 11 15 7 -3 8 -10 9 hvcurveto
          hintmask 010011011010001101000000
          18 7 8 15 10 vvcurveto
          14 -8 10 -27 vhcurveto
          hintmask 010011011010110101000000
          -4 -4 0 -1 -4 hvcurveto
          hintmask 010011111010110101000000
          27 -2 -14 14 -14 hhcurveto
          hintmask 010011011011010101000000
          -13 -14 -14 -27 -3 hvcurveto
          1 -6 -3 0 -2 hhcurveto
          hintmask 010101011100010101000000
          -22 -13 -13 -14 -10 8 -12 18 -7 hvcurveto
          hintmask 010101011010010101000000
          -10 -9 -3 -8 -7 vvcurveto
          -15 14 -11 15 13 14 7 19 7 vhcurveto
          -1 17 rmoveto
          -10 -4 -15 -13 -14 hhcurveto
          -5 -4 3 3 2 1 10 24 21 hvcurveto
          hintmask 010011011100010101000000
          -31 12 -7 5 3 vvcurveto
          hintmask 010011011011010101000000
          6 6 3 38 -3 vhcurveto
          hintmask 010011111011010101000000
          27 3 5 14 4 hhcurveto
          4 5 -14 -27 2 hvcurveto
          hintmask 010101011010001101000000
          31 1 rlineto
          11 4 -1 -6 -3 -7 -5 -31 -12 hvcurveto
          25 -16 0 -11 -6 vvcurveto
          hintmask 010101011010010101000000
          -3 -4 -3 -5 -7 -23 13 10 -6 vhcurveto
          -7 469 rmoveto
          -20 -12 -11 -18 hvcurveto
          -44 8 62 -77 13 hhcurveto
          6 12 5 10 33 -42 102 -27 hvcurveto
          endchar
        </CharString>
        <CharString name="ampersand">
          527 -10 44 228 86 -54 46 -42 39 -13 42 11 41 -35 78 -52 39 53 41 -20 36 -8 42 18 35 hstemhm
          29 47 33 90 53 52 35 46 135 38 -16 41 -15 87 73 37 50 41 141 45 hintmask 101001000101111101011100
          hintmask 100010011001111110011100
          476 324 rmoveto
          42 40 20 43 hvcurveto
          45 -2 -38 16 -42 hhcurveto
          -31 -28 -7 -10 -25 hvcurveto
          -5 15 -2 17 17 vvcurveto
          13 1 12 3 12 vhcurveto
          -9 26 27 -7 32 hhcurveto
          hintmask 101001001001111101011100
          54 55 29 53 hvcurveto
          -2 hlineto
          2 hlineto
          47 -4 -44 15 -40 hhcurveto
          -60 -45 -31 -44 -26 hvcurveto
          hintmask 100101000011111101011100
          11 -31 -33 11 -40 hhcurveto
          -121 -110 -75 -110 -79 45 -30 47 41 37 31 40 28 -20 22 -25 -25 -20 -22 -28 -13 4 -11 7 -8 hvcurveto
          -2 hlineto
          -30 -12 30 32 102 81 49 106 32 26 -7 -9 26 hvcurveto
          -6 -18 -2 -18 -18 vvcurveto
          -24 4 -24 10 -22 vhcurveto
          -64 -45 -37 -79 -77 vvcurveto
          -117 85 -102 165 184 77 154 199 2 vhcurveto
          hintmask 101000100101111101011100
          -23 44 46 -26 52 hhcurveto
          72 63 45 89 72 -56 58 -68 -54 -49 -39 -62 -52 41 -22 33 32 15 22 21 25 -18 10 -19 -15 -18 -6 -7 -9 hvcurveto
          -1 4 0 5 4 vvcurveto
          36 26 25 39 53 23 -47 -47 -67 -50 -21 -49 vhcurveto
          hintmask 101001000101111100111100
          -100 -33 78 -87 hhcurveto
          -57 -53 -47 -55 hvcurveto
          hintmask 110001000101111100111100
          -33 25 -21 24 19 19 12 28 29 -24 17 -12 vhcurveto
          hintmask 101001000101111100111100
          22 28 7 17 21 21 -7 -9 22 vhcurveto
          -167 -7 -57 -160 -160 hhcurveto
          -139 -61 85 97 hvcurveto
          hintmask 100011000101111101011100
          60 25 61 45 37 vhcurveto
          hintmask 100010011001111110011100
          -30 23 34 -20 45 hhcurveto
          hintmask 101001001001111101011100
          66 257 rmoveto
          -30 -35 -9 -33 -25 -22 6 7 -22 vhcurveto
          32 19 33 23 44 hhcurveto
          20 21 -7 -22 hvcurveto
          hintmask 100010010101111110011100
          -71 -172 rmoveto
          20 26 -4 -16 3 hvcurveto
          -15 -31 -8 -13 -30 -22 12 18 -14 vhcurveto
          8 18 21 5 22 hhcurveto
          hintmask 101001000101111101011100
          71 172 rmoveto
          2 3 7 1 9 8 9 -1 3 hhcurveto
          -2 -33 0 -2 -4 hvcurveto
          endchar
        </CharString>
        <CharString name="ampersand_2">
          66 -43 37 -6 40 71 44 194 42 259 45 hstemhm
          35 53 72 42 19 43 -39 43 151 51 -18 46 -3 84 hintmask 0111110100100000
          hintmask 0111110011000000
          268 391 rmoveto
          108 28 94 104 84 vvcurveto
          38 -16 38 -44 vhcurveto
          hintmask 0111110100100000
          -114 -75 -131 -117 -6 0 -6 1 -6 hvcurveto
          -121 -30 -66 -108 -100 vvcurveto
          -99 65 -92 140 42 37 4 31 52 vhcurveto
          hintmask 1011110100010000
          -42 36 42 -24 41 hhcurveto
          48 41 28 59 32 -22 16 -22 -20 -20 -14 -28 -22 14 -17 20 -4 hvcurveto
          hintmask 1011110010100000
          -9 -9 -14 -4 -16 hhcurveto
          -28 -35 27 34 -22 hvcurveto
          63 48 30 61 61 vvcurveto
          84 -60 70 -122 -17 -16 -4 -4 -15 vhcurveto
          hintmask 0111110011000000
          -1 6 0 9 1 5 rrcurveto
          -42 -40 rmoveto
          hintmask 0111111100100000
          -41 -29 -25 -47 -49 vvcurveto
          -66 40 -61 68 13 17 3 8 15 vhcurveto
          10 -18 11 -17 11 -15 rrcurveto
          -20 -33 -37 -12 -34 hhcurveto
          -107 -46 70 77 hvcurveto
          hintmask 0111110010100000
          82 52 90 85 28 vhcurveto
          hintmask 0111110011000000
          -8 0 -8 1 -8 vhcurveto
          hintmask 0111110100100000
          48 -23 rmoveto
          6 15 17 3 17 hhcurveto
          86 43 -54 -59 -53 -29 -49 -42 -36 hvcurveto
          -49 71 -43 95 -15 76 rrcurveto
          hintmask 0111110101000000
          -10 110 rmoveto
          132 13 78 68 40 hhcurveto
          15 9 -11 -21 -56 -67 -95 -88 -17 hvcurveto
          hintmask 0111111100100000
          29 -292 rmoveto
          -2 -8 -8 -1 -7 hhcurveto
          -42 -26 38 47 31 12 26 20 19 hvcurveto
          12 -50 21 -57 26 -51 rrcurveto
          endchar
        </CharString>
        <CharString name="aring">
          96 -12 42 -41 47 25 83 23 20 -13 37 42 20 20 20 134 47 37 49 69 49 hstemhm
          36 48 70 20 -7 20 -16 48 -19 18 23 19 14 20 -8 46 -45 20 70 49 23 85 46 46 hintmask 010011011110010001010100
          209 -11 rmoveto
          69 51 36 49 34 hvcurveto
          hintmask 100010000000000000010100
          -51 12 35 -35 72 hhcurveto
          74 70 50 78 62 -42 33 -51 hvcurveto
          hintmask 000010000000000000001000
          -54 -30 -49 -43 hvcurveto
          hintmask 001000000000000000001000
          -39 24 -19 24 19 18 14 28 23 -18 18 -22 vhcurveto
          hintmask 100010000000000000001100
          20 8 16 10 17 hhcurveto
          23 22 -19 -32 -46 -34 -47 -60 hvcurveto
          hintmask 100000010010000000010000
          -91 3 92 63 13 hvcurveto
          10 35 5 35 29 vvcurveto
          120 -58 90 -115 -160 -57 -189 -106 vhcurveto
          hintmask 010011011110010001010100
          -120 58 -90 115 vhcurveto
          47 vmoveto
          -96 -29 96 75 108 62 132 108 95 28 -96 -75 -108 -61 -132 -107 hvcurveto
          hintmask 000101000000000010000000
          21 157 rmoveto
          -19 8 14 -7 13 hhcurveto
          15 14 11 15 7 -3 8 -10 9 hvcurveto
          hintmask 000001000000000000100000
          18 7 8 15 10 vvcurveto
          14 -8 10 -27 vhcurveto
          hintmask 000001000000000100000000
          -4 -4 0 -1 -4 hvcurveto
          hintmask 000000100000000100000000
          27 -2 -14 14 -14 hhcurveto
          hintmask 000001000000001000000000
          -13 -14 -14 -27 -3 hvcurveto
          1 -6 -3 0 -2 hhcurveto
          hintmask 000101000001000000000000
          -22 -13 -13 -14 -10 8 -12 18 -7 hvcurveto
          hintmask 000100000000100000000000
          -10 -9 -3 -8 -7 vvcurveto
          -15 14 -11 15 vhcurveto
          hintmask 000101000000000010000000
          13 14 7 19 7 hvcurveto
          hintmask 000101000000100000000000
          -1 17 rmoveto
          -10 -4 -15 -13 -14 hhcurveto
          -5 -4 3 3 2 1 10 24 21 hvcurveto
          hintmask 000001000001000000000000
          -31 12 -7 5 3 vvcurveto
          hintmask 000001000000001000000000
          6 6 3 38 -3 vhcurveto
          hintmask 000000100000001000000000
          27 3 5 14 4 hhcurveto
          4 5 -14 -27 2 hvcurveto
          hintmask 000101000000000000100000
          31 1 rlineto
          11 4 -1 -6 -3 -7 -5 -31 -12 hvcurveto
          25 -16 0 -11 -6 vvcurveto
          hintmask 000100000000000010000000
          -3 -4 -3 -5 -7 -23 13 10 -6 vhcurveto
          hintmask 000101000000100000000000
          23 370 rmoveto
          hintmask 000000001100010001000000
          -22 -11 17 18 17 11 17 22 22 12 -17 -17 -18 -12 -17 -22 hvcurveto
          -2 118 rmoveto
          -41 -38 -42 -46 -46 41 -33 43 52 25 38 42 42 -28 45 -54 hvcurveto
          endchar
        </CharString>
        <CharString name="asciicircum">
          -100 476 283 hstem
          33 382 vstem
          368 492 rmoveto
          10 -12 1 0 19 8 19 7 2 6 -7 10 -171 233 rcurveline
          -17 21 -16 -1 -15 -22 -157 -239 rcurveline
          -6 -10 2 -6 18 -6 19 -7 2 -2 9 14 140 205 rcurveline
          endchar
        </CharString>
        <CharString name="asciitilde">
          14 414 39 70 39 hstem
          30 67 375 67 vstem
          440 414 rmoveto
          52 47 19 60 24 -16 17 -19 -25 -7 -20 -17 -12 3 -12 4 -9 hvcurveto
          -8 -12 -10 -3 -11 hhcurveto
          2 -91 -118 107 -108 hhcurveto
          -52 -47 -19 -60 -24 16 -17 19 25 7 20 17 12 -3 12 -4 9 hvcurveto
          8 12 10 3 11 hhcurveto
          -2 91 118 -107 108 hhcurveto
          endchar
        </CharString>
        <CharString name="asterisk">
          -250 603 33 7 -20 hstemhm
          26 255 hintmask 01100000
          133 643 rmoveto
          8 -16 -41 36 -24 hhcurveto
          -8 -18 -28 -5 -11 65 -20 16 -9 hvcurveto
          -11 -13 -68 -41 -21 vvcurveto
          -11 22 -21 4 12 57 65 13 13 vhcurveto
          -16 9 24 -85 15 hhcurveto
          hintmask 10100000
          12 19 15 9 3 hvcurveto
          21 -40 53 -6 21 vhcurveto
          18 2 87 -6 4 11 1 4 -6 33 -7 3 -23 9 -58 -21 -18 -2 6 16 32 52 -3 24 -1 8 -30 15 -5 -1 rrcurveto
          hintmask 01100000
          -10 -1 -19 -89 -7 -17 rrcurveto
          endchar
        </CharString>
        <CharString name="at">
          170 -74 42 64 73 35 42 24 44 -38 40 178 61 -30 42 151 45 hstemhm
          33 51 135 51 42 38 11 69 50 51 -50 45 123 47 hintmask 1000101111100110
          hintmask 1000110111101010
          531 472 rmoveto
          19 4 -22 0 -10 hhcurveto
          -14 -6 0 -12 -2 hvcurveto
          hintmask 1001001111101010
          -2 -12 rlineto
          25 -32 -33 11 -31 hhcurveto
          -88 -76 -85 -99 -60 33 -53 78 42 54 25 42 33 hvcurveto
          hintmask 1000101111101010
          -43 14 31 -18 40 hhcurveto
          97 55 116 91 161 -123 119 -166 -234 -140 -209 -211 -180 120 -173 201 hvcurveto
          hintmask 1110101111100110
          108 64 59 76 61 -43 60 -82 -57 -32 -45 -41 -34 22 -30 44 hvcurveto
          hintmask 1100101111110110
          27 25 9 28 20 -16 16 -19 -18 -14 -13 -18 -2 hvcurveto
          hintmask 1110101111100110
          -5 2 -6 7 11 vvcurveto
          31 26 15 29 51 25 -35 -37 -66 -53 -34 -77 -147 -120 122 193 85 62 286 278 127 98 -99 -132 vhcurveto
          hintmask 1000101111101010
          -106 -53 -65 -52 -25 -22 18 26 vhcurveto
          hintmask 1001010111100110
          -47 27 rmoveto
          -39 -30 -52 -34 -29 hhcurveto
          -50 -19 38 35 hvcurveto
          hintmask 1000101111100110
          75 58 63 65 25 26 -9 -22 25 vhcurveto
          hintmask 1001010111100110
          0 -17 -94 -2 -13 vhcurveto
          endchar
        </CharString>
        <CharString name="atilde">
          96 -12 42 -41 47 25 83 23 20 -13 37 42 20 20 20 134 47 35 79 -69 79 hstemhm
          36 48 57 58 -45 20 -7 20 13 18 23 19 14 20 -7 20 2 57 11 49 23 85 46 46 hintmask 010011010010010010010100
          209 -11 rmoveto
          69 51 36 49 34 hvcurveto
          hintmask 100011010010010010010100
          -51 12 35 -35 72 hhcurveto
          74 70 50 78 62 -42 33 -51 hvcurveto
          hintmask 010011010010010010011100
          -54 -30 -49 -43 hvcurveto
          hintmask 011011010010010010011100
          -39 24 -19 24 19 18 14 28 23 -18 18 -22 vhcurveto
          hintmask 100011010010010010011100
          20 8 16 10 17 hhcurveto
          23 22 -19 -32 -46 -34 -47 -60 hvcurveto
          hintmask 100011010010010010010100
          -91 3 92 63 13 hvcurveto
          10 35 5 35 29 vvcurveto
          120 -58 90 -115 -160 -57 -189 -106 vhcurveto
          hintmask 010011010010010010010100
          -120 58 -90 115 vhcurveto
          47 vmoveto
          -96 -29 96 75 108 62 132 108 95 28 -96 -75 -108 -61 -132 -107 hvcurveto
          hintmask 010101010010010010010100
          21 157 rmoveto
          -19 8 14 -7 13 hhcurveto
          15 14 11 15 7 -3 8 -10 9 hvcurveto
          hintmask 010011010010010001010100
          18 7 8 15 10 vvcurveto
          14 -8 10 -27 vhcurveto
          hintmask 010011010010010110010100
          -4 -4 0 -1 -4 hvcurveto
          hintmask 010011110010010110010100
          27 -2 -14 14 -14 hhcurveto
          hintmask 010011010010011010010100
          -13 -14 -14 -27 -3 hvcurveto
          1 -6 -3 0 -2 hhcurveto
          hintmask 010101010010100010010100
          -22 -13 -13 -14 -10 8 -12 18 -7 hvcurveto
          hintmask 010101010010010010010100
          -10 -9 -3 -8 -7 vvcurveto
          -15 14 -11 15 13 14 7 19 7 vhcurveto
          -1 17 rmoveto
          -10 -4 -15 -13 -14 hhcurveto
          -5 -4 3 3 2 1 10 24 21 hvcurveto
          hintmask 010011010010100010010100
          -31 12 -7 5 3 vvcurveto
          hintmask 010011010010011010010100
          6 6 3 38 -3 vhcurveto
          hintmask 010011110010011010010100
          27 3 5 14 4 hhcurveto
          4 5 -14 -27 2 hvcurveto
          hintmask 010101010010010001010100
          31 1 rlineto
          11 4 -1 -6 -3 -7 -5 -31 -12 hvcurveto
          25 -16 0 -11 -6 vvcurveto
          hintmask 010101010010010010010100
          -3 -4 -3 -5 -7 -23 13 10 -6 vhcurveto
          84 319 rmoveto
          hintmask 010011011010010010110100
          28 25 12 34 19 -12 14 -18 -22 -5 -18 -14 hvcurveto
          10 -42 -30 32 -43 hhcurveto
          hintmask 010011010111000010010100
          -29 -24 -12 -35 -19 14 -13 15 22 7 15 15 hvcurveto
          -10 40 31 -30 43 hhcurveto
          endchar
        </CharString>
        <CharString name="b">
          -20 -11 48 99 37 273 48 215 44 hstemhm
          34 75 -37 49 12 44 -15 49 26 83 128 47 hintmask 1111010101000000
          hintmask 1111100101000000
          34 662 rmoveto
          -24 16 -19 21 21 17 19 24 13 -5 12 -8 8 vhcurveto
          10 11 10 4 9 hhcurveto
          21 15 -24 -30 hvcurveto
          hintmask 1111010101000000
          -119 -90 -167 -171 vvcurveto
          -144 70 -65 91 159 103 162 149 103 -58 91 -101 -79 -79 -50 -103 -40 vhcurveto
          33 147 40 73 92 vvcurveto
          69 -44 31 -44 vhcurveto
          hintmask 1111100101000000
          -45 -44 -32 -59 hvcurveto
          hintmask 1111011011000000
          226 -489 rmoveto
          -56 1 -27 59 45 vvcurveto
          100 83 68 75 55 58 -43 -108 -131 -94 -127 -113 vhcurveto
          hintmask 1111010101000000
          -86 -34 69 85 31 4 34 8 36 hvcurveto
          hintmask 1111011011000000
          -77 38 -79 71 52 26 35 47 35 -19 16 -23 -20 -21 -15 -30 -21 10 -19 13 -11 vhcurveto
          endchar
        </CharString>
        <CharString name="backslash">
          -142 -26 802 hstem
          19 373 vstem
          63 768 rmoveto
          -8 19 -38 -17 2 -18 74 -136 200 -491 60 -145 5 -16 38 20 -4 20 -58 147 -202 488 -69 129 rrcurveto
          endchar
        </CharString>
        <CharString name="bar">
          -422 -24 842 hstem
          41 48 vstem
          41 -8 rmoveto
          -9 3 -7 20 19 6 0 11 vhcurveto
          820 vlineto
          11 -6 0 -19 -20 -3 -6 -9 vhcurveto
          endchar
        </CharString>
        <CharString name="braceleft">
          -163 -96 43 407 22 406 50 hstemhm
          98 47 -23 53 120 48 -30 44 hintmask 11110100
          20 350 rmoveto
          hintmask 11101100
          -39 102 20 -57 -53 -24 -90 -77 vvcurveto
          hintmask 11110100
          -78 28 -72 87 64 66 45 73 34 -26 25 -19 -12 -4 -8 -11 vhcurveto
          -19 13 -25 -10 vvcurveto
          -20 -31 -41 -40 -62 -17 41 61 vhcurveto
          80 30 99 38 vvcurveto
          36 -14 34 -31 18 vhcurveto
          hintmask 11101010
          62 37 5 108 12 63 rrcurveto
          82 16 -16 138 93 hhcurveto
          7 4 -3 -7 hvcurveto
          -26 -32 -25 -13 vvcurveto
          -14 17 -13 13 29 17 33 36 40 -21 42 -47 vhcurveto
          -202 129 -456 -153 hhcurveto
          -24 -19 -12 -14 hvcurveto
          endchar
        </CharString>
        <CharString name="braceright">
          -107 -96 40 84 80 195 41 47 43 240 31 83 39 hstemhm
          25 42 19 77 -63 41 35 62 -37 48 1 45 89 46 hintmask 1111111010011000
          hintmask 1111111011011000
          188 709 rmoveto
          -4 -6 -6 0 -6 hhcurveto
          -12 -17 8 20 35 31 20 29 hvcurveto
          hintmask 1111111010011000
          25 24 -15 -33 hvcurveto
          -79 -49 -85 -77 vvcurveto
          hintmask 1111111010101000
          -52 10 -48 23 -41 vhcurveto
          -23 -39 -5 -51 -47 -30 2 -28 -22 vvcurveto
          -84 -16 -113 -72 -37 -16 31 32 21 7 21 12 12 vhcurveto
          -19 3 16 -14 20 hhcurveto
          hintmask 1111111100011000
          26 12 19 19 21 -14 21 -26 -41 -57 -40 -65 hvcurveto
          hintmask 1111111010101000
          -65 44 -34 48 193 -87 310 107 43 vhcurveto
          -10 19 27 -8 28 hhcurveto
          45 45 20 47 32 -30 32 -51 -29 -30 -12 -23 -18 hvcurveto
          -17 33 -6 32 30 80 46 79 93 vvcurveto
          58 -37 23 -42 vhcurveto
          hintmask 1111111010011000
          -54 -62 -29 -61 -43 34 -20 34 33 37 30 34 18 -14 14 -18 hvcurveto
          hintmask 1111111011011000
          -21 -9 -15 -16 -11 4 -11 8 -8 hvcurveto
          167 -318 rmoveto
          19 10 -9 -10 hvcurveto
          hintmask 1111111010011000
          -20 -20 -8 -21 -19 -22 6 12 -9 vhcurveto
          22 16 26 7 20 hhcurveto
          endchar
        </CharString>
        <CharString name="bracketleft">
          -247 -21 55 759 52 hstem
          33 50 vstem
          153 793 rmoveto
          114 hlineto
          15 2 10 8 10 vvcurveto
          14 -24 18 -62 -78 -24 -4 -64 -10 vhcurveto
          -41 -260 -4 -149 -16 -333 rrcurveto
          -39 2 -17 29 90 103 1 33 16 -3 5 -37 vhcurveto
          -134 hlineto
          23 364 -10 216 57 179 rrcurveto
          endchar
        </CharString>
        <CharString name="bracketright">
          -258 -25 54 752 50 hstem
          133 61 vstem
          212 782 rmoveto
          -24 -204 -38 -460 -17 -94 rrcurveto
          2 -23 -29 3 -18 hhcurveto
          -37 -8 -10 -11 -27 37 -6 64 37 38 5 35 285 55 322 18 141 hvcurveto
          1 6 1 7 5 vvcurveto
          42 -35 8 -83 -43 -23 -4 -23 -20 44 -3 37 vhcurveto
          21 19 1 6 hhcurveto
          endchar
        </CharString>
        <CharString name="brokenbar">
          -326 -150 784 hstem
          91 48 vstem
          91 308 rmoveto
          -9 3 -7 20 19 6 0 11 vhcurveto
          320 vlineto
          11 -6 0 -19 -20 -3 -6 -9 vhcurveto
          -753 vmoveto
          -9 3 -7 20 19 6 0 11 vhcurveto
          320 vlineto
          11 -6 0 -19 -20 -3 -6 -9 vhcurveto
          endchar
        </CharString>
        <CharString name="bullet">
          -121 421 239 hstem
          91 253 vstem
          344 533 rmoveto
          73 -64 54 -79 -71 -39 -65 -62 -72 67 -40 65 62 59 35 77 vhcurveto
          endchar
        </CharString>
        <CharString name="c">
          -97 -11 42 95 91 76 77 80 44 hstemhm
          41 55 283 38 -35 42 hintmask 11011100
          285 167 rmoveto
          -24 24 -17 23 18 18 10 24 7 vhcurveto
          3 -10 1 -8 -8 vvcurveto
          -72 -73 -31 -61 -101 -48 88 83 114 76 134 119 vhcurveto
          hintmask 11111010
          55 36 -35 -35 -14 -5 -15 -11 -12 hvcurveto
          16 -7 -16 15 -21 hhcurveto
          -27 -15 -19 -14 -29 26 -15 31 43 44 29 58 56 -47 58 -92 -167 -77 -153 -147 -116 66 -89 130 hvcurveto
          hintmask 11011100
          122 58 61 76 47 -16 44 -57 -36 -23 -23 -27 hvcurveto
          endchar
        </CharString>
        <CharString name="caron">
          -272 531 137 hstem
          32 219 vstem
          165 544 rmoveto
          28 29 27 29 29 29 11 11 -34 35 -16 -12 -1 -1 -50 -54 -19 -19 -66 75 rcurveline
          -9 11 -40 -37 8 -9 84 -87 rcurveline
          18 -20 14 5 16 15 rrcurveto
          endchar
        </CharString>
        <CharString name="caron.case">
          -250 669 136 hstem
          32 241 vstem
          176 681 rmoveto
          28 29 38 29 29 29 11 11 -34 35 -16 -12 -1 -1 -61 -54 -19 -19 -77 75 rcurveline
          -9 11 -40 -37 8 -9 95 -87 rcurveline
          20 -18 12 3 16 15 rrcurveto
          endchar
        </CharString>
        <CharString name="ccedilla">
          -105 -184 40 133 42 -18 -21 134 91 76 77 80 44 hstemhm
          33 55 103 44 21 55 60 38 -35 42 hintmask 1100011101000000
          191 -64 rmoveto
          -19 8 -1 6 -1 vhcurveto
          hintmask 1100011111000000
          31 -1 20 -6 -19 vvcurveto
          -33 -50 0 -49 -10 -8 -2 -16 -11 6 -11 12 97 57 24 63 42 -35 14 -41 6 vhcurveto
          hintmask 1101011101000000
          24 vlineto
          118 2 56 60 75 vvcurveto
          47 -16 44 -57 -36 -23 -23 -27 -24 24 -17 23 18 18 10 24 7 vhcurveto
          3 -10 1 -8 -8 vvcurveto
          -72 -73 -31 -61 -101 -48 88 83 114 76 134 119 55 36 -35 -35 vhcurveto
          hintmask 1010111100100000
          -14 -5 -15 -11 -12 vhcurveto
          16 -7 -16 15 -21 hhcurveto
          -27 -15 -19 -14 -29 26 -15 31 43 44 29 58 56 -47 58 -92 -167 -77 -153 -147 -104 53 -83 105 -15 hvcurveto
          endchar
        </CharString>
        <CharString name="cedilla">
          -329 -184 40 hstemhm
          80 44 21 55 hintmask 11000000
          80 -64 rmoveto
          -19 8 -1 6 -1 vhcurveto
          hintmask 11100000
          31 -1 20 -6 -19 vvcurveto
          -33 -50 0 -49 -10 -8 -2 -16 -11 6 -11 12 97 57 24 63 42 -35 14 -41 6 vhcurveto
          hintmask 11000000
          36 vlineto
          13 -44 0 -13 vvcurveto
          endchar
        </CharString>
        <CharString name="cent">
          -105 -11 42 -18 -21 134 91 76 77 80 44 hstemhm
          33 55 100 48 135 38 -35 42 hintmask 1010111100000000
          188 -158 rmoveto
          -9 3 -7 20 19 6 0 11 vhcurveto
          152 vlineto
          117 3 56 59 75 vvcurveto
          47 -16 44 -57 -36 -23 -23 -27 -24 24 -17 23 18 18 10 24 7 vhcurveto
          3 -10 1 -8 -8 vvcurveto
          -72 -73 -31 -61 vhcurveto
          -1 411 hlineto
          hintmask 0111111010000000
          5 15 15 3 17 hhcurveto
          55 36 -35 -35 -14 -5 -15 -11 -12 hvcurveto
          16 -7 -16 15 -21 hhcurveto
          -27 -15 -19 -14 -29 26 -15 31 43 44 29 58 56 -47 58 -92 -15 -13 -2 -2 -13 hvcurveto
          167 vlineto
          11 -6 0 -19 -20 -3 -6 -9 vhcurveto
          -176 vlineto
          -106 -44 -49 -121 -118 vvcurveto
          -103 52 -82 103 -17 vhcurveto
          -100 210 rmoveto
          79 37 90 63 46 vhcurveto
          -378 vlineto
          -68 23 -32 72 68 vvcurveto
          endchar
        </CharString>
        <CharString name="circumflex">
          -272 529 137 hstem
          33 219 vstem
          119 653 rmoveto
          -28 -29 -27 -29 -29 -29 -11 -11 34 -35 16 12 1 1 50 54 19 19 66 -75 rcurveline
          9 -11 40 37 -8 9 -84 87 rcurveline
          -18 20 -14 -5 -16 -15 rrcurveto
          endchar
        </CharString>
        <CharString name="circumflex.case">
          -250 667 136 hstem
          33 241 vstem
          130 791 rmoveto
          -28 -29 -38 -29 -29 -29 -11 -11 34 -35 16 12 1 1 61 54 19 19 77 -75 rcurveline
          9 -11 40 37 -8 9 -95 87 rcurveline
          -20 18 -12 -3 -16 -15 rrcurveto
          endchar
        </CharString>
        <CharString name="colon">
          -255 -11 49 86 48 174 48 86 47 hstemhm
          62 45 84 46 -46 49 hintmask 11111100
          150 38 rmoveto
          -28 -14 22 21 21 14 22 28 27 14 -22 -21 -22 -14 -21 -27 hvcurveto
          -2 134 rmoveto
          -45 -42 -46 -50 -51 45 -36 47 56 28 43 45 47 -31 48 -58 hvcurveto
          hintmask 11111010
          1 222 rmoveto
          -24 -18 22 23 18 14 23 27 25 18 -24 -22 -24 -21 -16 -21 hvcurveto
          -87 44 rmoveto
          -57 43 -35 45 60 30 46 37 50 -43 48 -52 -50 -33 -43 -46 vhcurveto
          endchar
        </CharString>
        <CharString name="comma">
          -233 54 45 hstem
          61 98 55 48 vstem
          107 -201 rmoveto
          84 44 71 54 97 vvcurveto
          51 -41 54 -68 -34 -58 -25 -59 -39 28 -27 30 23 17 18 21 20 -14 22 -32 8 vhcurveto
          11 13 16 5 15 hhcurveto
          30 27 -21 -37 -81 -84 -49 -54 -33 hvcurveto
          -4 -2 -2 -4 -5 vvcurveto
          -12 16 -13 13 3 2 1 1 3 vhcurveto
          endchar
        </CharString>
        <CharString name="copyright">
          208 4 40 35 47 332 48 5 39 139 40 hstemhm
          31 46 134 50 161 88 166 53 hintmask 1110111010000000
          31 347 rmoveto
          -176 48 -167 327 218 105 181 185 177 -93 182 -183 -86 -104 -37 -85 -10 vhcurveto
          -124 -22 -98 -114 -124 vvcurveto
          hintmask 1101111010000000
          297 164 rmoveto
          37 69 34 38 13 -15 17 -12 hvcurveto
          -30 6 -63 -60 hhcurveto
          -16 -14 20 26 50 72 43 88 162 61 -149 -135 -194 -76 -167 -224 -139 -160 63 201 136 46 56 102 49 hvcurveto
          4 8 9 4 8 21 7 -46 50 hhcurveto
          hintmask 1110111110000000
          92 -5 rmoveto
          -132 -77 -130 -117 -94 51 -86 115 42 102 43 47 9 -12 6 -9 -8 -8 -2 -6 -2 hvcurveto
          -31 -24 -46 -19 -46 hhcurveto
          -70 -35 58 65 90 60 119 86 19 15 -8 -13 16 hvcurveto
          -19 -5 -16 -20 -19 vvcurveto
          -18 15 -10 20 37 16 25 29 39 -32 48 -58 vhcurveto
          endchar
        </CharString>
        <CharString name="currency">
          145 75 40 -30 46 29 39 346 45 6 50 -27 58 hstemhm
          31 50 -35 49 19 52 379 52 -8 73 -61 48 hintmask 1010100011000000
          hintmask 1011000011000000
          221 562 rmoveto
          hintmask 0110101011000000
          47 -15 -53 37 -54 hhcurveto
          -24 -44 -11 -41 -36 15 -11 16 10 9 7 9 4 -2 5 -4 6 hvcurveto
          12 11 13 6 12 hhcurveto
          32 32 -32 -28 11 hvcurveto
          -50 -62 -22 -54 -50 vvcurveto
          -57 32 -51 55 -44 vhcurveto
          hintmask 0110100111000000
          -29 -32 -10 -54 -53 -1 rrcurveto
          -7 -7 8 8 hvcurveto
          15 9 14 9 vvcurveto
          7 -9 4 -12 -16 -21 -9 -20 -36 40 -46 44 61 34 63 43 18 vhcurveto
          hintmask 1010100010100000
          -24 36 41 -7 41 hhcurveto
          36 35 7 8 34 hvcurveto
          -56 12 61 -44 57 hhcurveto
          39 27 37 32 30 -20 12 -19 -18 -16 -10 -16 -11 7 -12 18 -14 hvcurveto
          hintmask 1010010011000000
          -6 -10 -10 -2 -11 hhcurveto
          -39 -34 36 45 hvcurveto
          62 48 25 59 61 vvcurveto
          68 -39 68 -65 54 vhcurveto
          hintmask 1010010010010000
          13 4 22 52 53 hhcurveto
          19 10 -7 -8 hvcurveto
          -9 -18 -1 -13 vvcurveto
          -13 14 -19 7 vhcurveto
          29 8 16 25 29 vvcurveto
          42 -41 24 -35 -50 -53 -46 -58 -22 vhcurveto
          hintmask 1011000011000000
          12 -36 -36 5 -35 hhcurveto
          -42 -41 -10 -18 -37 hvcurveto
          140 -363 rmoveto
          -83 -112 48 127 120 83 51 89 100 107 -65 -109 -98 -93 -73 -91 -1 hvcurveto
          endchar
        </CharString>
        <CharString name="d">
          36 -11 46 104 30 117 33 123 48 28 42 143 51 hstemhm
          41 52 66 39 101 37 53 42 70 72 57 46 hintmask 1111011111010000
          562 703 rmoveto
          47 21 -32 -35 hvcurveto
          hintmask 1111111111110000
          -35 -23 -39 -45 -2 vhcurveto
          7 11 4 11 11 vvcurveto
          24 -16 12 -17 -19 -20 -15 -32 -30 25 -34 43 69 38 60 60 57 -37 59 -76 -137 -25 -136 -153 -9 vhcurveto
          hintmask 1111011111010000
          17 -37 -36 8 -35 hhcurveto
          -133 -110 -120 -185 -120 88 -76 93 hvcurveto
          363 -278 714 255 hhcurveto
          -335 -668 rmoveto
          -70 -64 71 84 152 96 100 99 32 34 -11 -21 35 hvcurveto
          -185 -8 -1 -190 -153 hhcurveto
          26 104 rmoveto
          49 34 36 50 48 -33 46 -59 -49 -36 -36 -49 -58 47 -37 47 hvcurveto
          -55 91 rmoveto
          32 16 24 33 38 14 -32 -29 -33 -16 -23 -32 -35 -18 31 30 vhcurveto
          endchar
        </CharString>
        <CharString name="degree">
          -210 401 42 136 43 hstem
          61 48 129 47 vstem
          161 401 rmoveto
          88 36 81 46 53 -36 41 -65 -88 -35 -82 -46 -53 36 -40 64 hvcurveto
          42 vmoveto
          -37 -15 31 23 38 28 44 48 37 16 -31 -23 -37 -30 -45 -47 hvcurveto
          endchar
        </CharString>
        <CharString name="dieresis">
          -260 529 86 hstem
          38 83 53 83 vstem
          80 529 rmoveto
          27 14 21 22 21 -14 22 -27 -28 -14 -22 -21 -21 14 -22 28 hvcurveto
          136 hmoveto
          27 14 21 22 21 -14 22 -27 -28 -14 -22 -21 -21 14 -22 28 hvcurveto
          endchar
        </CharString>
        <CharString name="dieresis.case">
          -236 667 86 -86 88 hstemhm
          38 107 30 107 hintmask 01100000
          hintmask 10100000
          87 737 rmoveto
          9 -7 -12 9 -9 hhcurveto
          -12 -9 -8 -19 -33 33 -28 16 20 38 26 33 19 -12 8 -16 -10 -11 -8 -8 -9 hvcurveto
          hintmask 10110000
          137 hmoveto
          9 -7 -11 9 -9 hhcurveto
          -13 -9 -8 -19 -33 33 -28 16 20 38 26 33 19 -13 8 -15 -10 -11 -8 -8 -9 hvcurveto
          endchar
        </CharString>
        <CharString name="divide">
          -1 -11 49 86 48 58 48 68 48 86 47 hstemhm
          189 45 84 46 -46 49 hintmask 11111110
          277 38 rmoveto
          -28 -14 22 21 21 14 22 28 27 14 -22 -21 -22 -14 -21 -27 hvcurveto
          -2 134 rmoveto
          -45 -42 -46 -50 -51 45 -36 47 56 28 43 45 47 -31 48 -58 hvcurveto
          hintmask 11111101
          1 222 rmoveto
          -24 -18 22 23 18 14 23 27 25 18 -24 -22 -24 -21 -16 -21 hvcurveto
          -87 44 rmoveto
          -57 43 -35 45 60 30 46 37 50 -43 48 -52 -50 -33 -43 -46 vhcurveto
          284 -208 rmoveto
          9 7 3 20 19 0 6 -11 hvcurveto
          -401 hlineto
          -11 0 -6 -19 -20 6 -3 9 hvcurveto
          endchar
        </CharString>
        <CharString name="dollar">
          65 -178 41 116 35 -24 41 -17 -21 210 37 176 40 153 42 hstemhm
          -4 46 47 81 -20 50 47 49 202 51 -6 52 hintmask 1010111101110000
          hintmask 1100111110110000
          129 -79 rmoveto
          23 18 19 22 37 -31 15 -29 -80 -34 -35 -54 -53 36 -50 78 hvcurveto
          hintmask 1001111101110000
          107 53 71 100 32 hvcurveto
          hintmask 1010111101110000
          -2 15 16 -1 15 hhcurveto
          114 87 71 109 92 -99 49 -75 63 hvcurveto
          8 32 3 15 4 13 rrcurveto
          -12 22 36 -6 28 hhcurveto
          hintmask 1100111101101000
          67 52 56 56 63 -64 60 -99 -128 -57 -76 -78 -55 34 -45 45 -39 hvcurveto
          -8 -39 -8 -41 -6 -40 rrcurveto
          1 -9 -9 1 -11 hhcurveto
          -68 -57 -33 -78 -66 47 -40 58 -19 hvcurveto
          -84 -28 -43 -57 -71 hhcurveto
          -51 -20 28 30 27 13 26 38 5 hvcurveto
          hintmask 1100111110110000
          -3 -6 -1 -5 -6 vvcurveto
          -22 18 -19 22 vhcurveto
          hintmask 1010111101110000
          71 209 rmoveto
          57 55 16 43 vhcurveto
          -9 -56 -11 -54 -12 -49 rrcurveto
          -39 16 -27 30 40 vvcurveto
          298 43 rmoveto
          -82 -70 -60 -87 -9 -9 0 1 -8 vhcurveto
          19 83 13 109 19 103 18 -14 rcurveline
          58 -46 56 -41 -53 vvcurveto
          hintmask 1010111101101000
          -38 283 rmoveto
          -18 -24 4 9 -16 hvcurveto
          19 53 29 45 40 34 rrcurveto
          36 -16 17 -27 -28 vvcurveto
          -38 -32 -36 -51 vhcurveto
          -164 44 rmoveto
          66 57 40 81 3 vhcurveto
          -50 -39 -28 -73 -20 -86 rrcurveto
          -25 28 -15 28 33 vvcurveto
          endchar
        </CharString>
        <CharString name="dotlessi">
          -203 -10 45 416 42 hstemhm
          25 74 -26 53 67 50 -16 93 hintmask 11011000
          hintmask 11010100
          253 62 rmoveto
          -17 -19 -39 -10 -26 hhcurveto
          -32 -11 18 28 hvcurveto
          hintmask 11011000
          95 117 188 58 vvcurveto
          50 -36 21 -42 vhcurveto
          hintmask 11101000
          -61 -79 -40 -67 -29 8 -31 29 20 17 18 22 18 -15 14 -14 5 hvcurveto
          21 13 54 27 30 hhcurveto
          15 11 -7 -19 hvcurveto
          hintmask 11011000
          -68 -120 -178 -106 vvcurveto
          -58 44 -25 49 vhcurveto
          hintmask 11010100
          61 93 41 67 27 -21 23 -26 -28 -18 -23 -24 -16 8 -15 18 -8 hvcurveto
          endchar
        </CharString>
        <CharString name="e">
          -90 -11 45 70 80 40 44 179 45 hstemhm
          32 55 164 82 9 37 6 50 hintmask 10111001
          hintmask 11111010
          333 144 rmoveto
          6 -13 3 -11 -10 vvcurveto
          -50 -63 -26 -43 -96 -53 59 95 24 3 24 7 21 vhcurveto
          -23 34 45 -10 47 hhcurveto
          hintmask 10111001
          103 109 53 100 60 -50 55 -100 -153 -100 -158 -139 -140 91 -66 105 hvcurveto
          hintmask 11111010
          96 55 55 70 38 -22 32 -42 hvcurveto
          hintmask 11111101
          -38 -26 -20 -24 -23 17 -13 19 hvcurveto
          hintmask 11111010
          24 20 20 20 2 hvcurveto
          -222 150 rmoveto
          hintmask 10111001
          79 22 73 74 93 hhcurveto
          65 21 -30 -35 -78 -90 -36 -81 hvcurveto
          hintmask 11111010
          -41 -38 9 17 -24 hvcurveto
          endchar
        </CharString>
        <CharString name="eacute">
          -90 -11 45 70 80 40 44 179 45 hstemhm
          32 55 164 82 9 37 6 50 hintmask 10111001
          hintmask 11111010
          333 144 rmoveto
          6 -13 3 -11 -10 vvcurveto
          -50 -63 -26 -43 -96 -53 59 95 24 3 24 7 21 vhcurveto
          -23 34 45 -10 47 hhcurveto
          hintmask 10111001
          103 109 53 100 60 -50 55 -100 -153 -100 -158 -139 -140 91 -66 105 hvcurveto
          hintmask 11111010
          96 55 55 70 38 -22 32 -42 hvcurveto
          hintmask 11111101
          -38 -26 -20 -24 -23 17 -13 19 hvcurveto
          hintmask 11111010
          24 20 20 20 2 hvcurveto
          -222 150 rmoveto
          hintmask 10111001
          79 22 73 74 93 hhcurveto
          65 21 -30 -35 -78 -90 -36 -81 hvcurveto
          hintmask 11111010
          -41 -38 9 17 -24 hvcurveto
          222 385 rmoveto
          -27 -42 -102 -33 -10 12 -5 6 13 62 77 44 8 hvcurveto
          18 -12 11 -20 vhcurveto
          endchar
        </CharString>
        <CharString name="ecircumflex">
          -90 -11 45 70 80 40 44 179 45 hstemhm
          32 55 164 82 9 37 6 50 hintmask 10111001
          hintmask 11111010
          333 144 rmoveto
          6 -13 3 -11 -10 vvcurveto
          -50 -63 -26 -43 -96 -53 59 95 24 3 24 7 21 vhcurveto
          -23 34 45 -10 47 hhcurveto
          hintmask 10111001
          103 109 53 100 60 -50 55 -100 -153 -100 -158 -139 -140 91 -66 105 hvcurveto
          hintmask 11111010
          96 55 55 70 38 -22 32 -42 hvcurveto
          hintmask 11111101
          -38 -26 -20 -24 -23 17 -13 19 hvcurveto
          hintmask 11111010
          24 20 20 20 2 hvcurveto
          -222 150 rmoveto
          hintmask 10111001
          79 22 73 74 93 hhcurveto
          65 21 -30 -35 -78 -90 -36 -81 hvcurveto
          hintmask 11111010
          -41 -38 9 17 -24 hvcurveto
          149 359 rmoveto
          -28 -29 -27 -29 -29 -29 -11 -11 34 -35 16 12 1 1 50 54 19 19 66 -75 rcurveline
          9 -11 40 37 -8 9 -84 87 rcurveline
          -18 20 -14 -5 -16 -15 rrcurveto
          endchar
        </CharString>
        <CharString name="edieresis">
          -90 -11 45 70 80 40 44 179 45 37 86 hstemhm
          32 55 87 83 -6 82 -23 83 -51 37 6 50 hintmask 1011010000100000
          hintmask 1111010001000000
          333 144 rmoveto
          6 -13 3 -11 -10 vvcurveto
          -50 -63 -26 -43 -96 -53 59 95 24 3 24 7 21 vhcurveto
          -23 34 45 -10 47 hhcurveto
          hintmask 1011010000100000
          103 109 53 100 60 -50 55 -100 -153 -100 -158 -139 -140 91 -66 105 hvcurveto
          hintmask 1111010001000000
          96 55 55 70 38 -22 32 -42 hvcurveto
          hintmask 1111010100100000
          -38 -26 -20 -24 -23 17 -13 19 hvcurveto
          hintmask 1111010001000000
          24 20 20 20 2 hvcurveto
          -222 150 rmoveto
          hintmask 1011010000100000
          79 22 73 74 93 hhcurveto
          65 21 -30 -35 -78 -90 -36 -81 hvcurveto
          hintmask 1111010001000000
          -41 -38 9 17 -24 hvcurveto
          hintmask 1011111010000000
          105 235 rmoveto
          27 14 21 22 21 -14 22 -27 -28 -14 -22 -21 -21 14 -22 28 hvcurveto
          136 hmoveto
          27 14 21 22 21 -14 22 -27 -28 -14 -22 -21 -21 14 -22 28 hvcurveto
          endchar
        </CharString>
        <CharString name="egrave">
          -90 -11 45 70 80 40 44 179 45 hstemhm
          32 55 164 82 9 37 6 50 hintmask 10111001
          hintmask 11111010
          333 144 rmoveto
          6 -13 3 -11 -10 vvcurveto
          -50 -63 -26 -43 -96 -53 59 95 24 3 24 7 21 vhcurveto
          -23 34 45 -10 47 hhcurveto
          hintmask 10111001
          103 109 53 100 60 -50 55 -100 -153 -100 -158 -139 -140 91 -66 105 hvcurveto
          hintmask 11111010
          96 55 55 70 38 -22 32 -42 hvcurveto
          hintmask 11111101
          -38 -26 -20 -24 -23 17 -13 19 hvcurveto
          hintmask 11111010
          24 20 20 20 2 hvcurveto
          -222 150 rmoveto
          hintmask 10111001
          79 22 73 74 93 hhcurveto
          65 21 -30 -35 -78 -90 -36 -81 hvcurveto
          hintmask 11111010
          -41 -38 9 17 -24 hvcurveto
          156 385 rmoveto
          -20 -12 -11 -18 hvcurveto
          -44 8 62 -77 13 hhcurveto
          6 12 5 10 33 -42 102 -27 hvcurveto
          endchar
        </CharString>
        <CharString name="eight">
          -101 -9 47 124 81 29 41 288 44 hstemhm
          29 56 24 55 19 40 112 52 -17 52 hintmask 1011100100000000
          85 171 rmoveto
          215 302 -119 243 vvcurveto
          107 -65 28 -77 vhcurveto
          hintmask 1011110100000000
          -69 -67 -44 -90 -57 28 -60 57 -31 hvcurveto
          hintmask 1011101010000000
          -108 -34 -57 -71 -77 vvcurveto
          -127 97 -63 97 99 100 54 140 74 -39 54 -103 -67 -30 -41 -44 vhcurveto
          hintmask 1111101100000000
          -42 38 -24 32 22 24 13 28 23 -28 17 -26 -8 -7 -2 -3 -7 vhcurveto
          hintmask 1011101010000000
          27 6 33 7 28 hhcurveto
          56 24 -39 -58 -97 -78 -40 -72 hvcurveto
          hintmask 1011100100000000
          -69 -66 42 91 hvcurveto
          hintmask 1011110100000000
          167 430 rmoveto
          65 18 -52 -42 -55 -33 -59 -56 -51 -31 56 54 50 27 48 61 hvcurveto
          endchar
        </CharString>
        <CharString name="emdash">
          99 249 48 hstem
          66 523 vstem
          573 249 rmoveto
          9 7 3 20 19 0 6 -11 hvcurveto
          -501 hlineto
          -11 0 -6 -19 -20 6 -3 9 hvcurveto
          endchar
        </CharString>
        <CharString name="endash">
          -51 249 48 hstem
          66 373 vstem
          423 249 rmoveto
          9 7 3 20 19 0 6 -11 hvcurveto
          -351 hlineto
          -11 0 -6 -19 -20 6 -3 9 hvcurveto
          endchar
        </CharString>
        <CharString name="equal">
          -76 174 48 64 48 hstem
          66 348 vstem
          398 286 rmoveto
          9 7 3 20 19 0 6 -11 hvcurveto
          -326 hlineto
          -11 0 -6 -19 -20 6 -3 9 hvcurveto
          317 -112 rmoveto
          9 7 3 20 19 0 6 -11 hvcurveto
          -326 hlineto
          -11 0 -6 -19 -20 6 -3 9 hvcurveto
          endchar
        </CharString>
        <CharString name="eth">
          -40 -11 49 394 48 40 85 102 44 hstemhm
          -14 44 21 80 -61 52 296 52 hintmask 11111011
          244 -11 rmoveto
          170 56 200 97 3 0 4 -1 4 hvcurveto
          1 12 0 13 13 vvcurveto
          130 -41 140 -92 79 vhcurveto
          44 46 6 6 3 7 -14 14 rlinecurve
          -13 14 -7 4 -6 -8 -52 -54 rcurveline
          24 -41 -49 14 -57 hhcurveto
          -81 -84 -40 -103 -48 28 -40 53 hvcurveto
          hintmask 11111101
          30 34 17 30 21 -19 17 -19 -27 -15 -24 -21 hvcurveto
          hintmask 11111011
          -19 8 -2 24 17 vvcurveto
          75 77 23 49 43 37 -9 -17 31 vhcurveto
          -62 -64 -8 -8 4 -4 14 -14 rlinecurve
          13 -14 6 0 8 9 65 68 rcurveline
          64 -54 33 -89 14 -91 rrcurveto
          34 -28 -40 26 -54 hhcurveto
          -170 -56 -200 -96 -113 66 -82 108 hvcurveto
          -122 202 rmoveto
          107 62 134 114 97 23 -81 -72 -107 -61 -134 -114 -93 -28 83 70 vhcurveto
          endchar
        </CharString>
        <CharString name="exclam">
          -298 10 -21 hstem
          19 140 vstem
          188 685 rmoveto
          -41 -140 -48 -185 -27 -155 rrcurveto
          -15 15 -9 16 6 5 2 6 1 vhcurveto
          29 154 46 187 44 149 rrcurveto
          12 -15 5 -12 -9 -8 -3 -8 -2 vhcurveto
          -104 -594 rmoveto
          12 -11 -12 5 -11 hhcurveto
          -17 -14 -15 -22 -45 43 -37 20 27 50 33 44 26 -20 13 -21 -12 -13 -5 -9 -9 hvcurveto
          endchar
        </CharString>
        <CharString name="exclamdown">
          -285 -303 -21 591 116 hstem
          100 140 vstem
          71 -313 rmoveto
          41 140 48 185 27 155 rrcurveto
          15 -15 9 -16 -6 -5 -2 -6 -1 vhcurveto
          -29 -154 -46 -187 -44 -149 rrcurveto
          -12 15 -5 12 9 8 3 8 2 vhcurveto
          104 594 rmoveto
          -12 11 12 -5 11 hhcurveto
          17 14 15 22 45 -43 37 -20 -27 -50 -33 -44 -26 20 -13 21 12 13 5 9 9 hvcurveto
          endchar
        </CharString>
        <CharString name="f">
          -43 -75 43 62 90 162 37 34 39 32 42 242 45 hstemhm
          23 42 -9 47 29 74 45 50 -47 53 113 48 -45 67 hintmask 1111110101010000
          hintmask 1111111001001000
          122 -32 rmoveto
          -37 -20 27 26 9 1 10 5 10 hvcurveto
          -12 8 17 -8 16 hhcurveto
          25 20 20 25 25 -20 20 -25 -39 -50 -31 -60 -71 44 -33 64 157 4 239 215 9 hvcurveto
          -15 27 29 -11 34 hhcurveto
          52 47 19 60 24 -16 17 -19 -25 -7 -20 -17 -12 3 -12 4 -9 hvcurveto
          -8 -12 -10 -3 -11 hhcurveto
          -34 -30 15 19 -30 hvcurveto
          3 1 3 3 vvcurveto
          hintmask 1111110100110000
          89 25 75 65 125 vvcurveto
          66 -28 37 -42 -36 -44 -27 -60 -26 vhcurveto
          -23 -52 -10 -70 -5 -75 rrcurveto
          -2 -14 -14 -1 -14 hhcurveto
          -78 -78 -7 -93 -57 44 -27 40 hvcurveto
          hintmask 1111110111010000
          35 31 20 37 22 -16 17 -21 -20 -17 -17 -22 -7 1 -6 3 -6 hvcurveto
          -1 -3 -2 0 -3 hhcurveto
          hintmask 1111110101010000
          -17 -8 20 16 61 30 8 83 12 11 1 1 12 hvcurveto
          hintmask 1111111001001000
          -216 -11 14 -242 -132 hhcurveto
          hintmask 1111110100110000
          215 679 rmoveto
          43 18 21 18 17 hhcurveto
          18 9 -21 -34 -95 -50 -52 -63 -24 hvcurveto
          5 65 8 58 17 42 rrcurveto
          endchar
        </CharString>
        <CharString name="five">
          29 -11 47 172 39 102 48 93 47 9 51 -26 51 -51 75 0 -20 68 45 hstemhm
          25 50 36 49 -1 93 83 45 -22 54 98 49 hintmask 1111000111100110
          135 337 rmoveto
          6 28 28 6 27 hhcurveto
          76 64 -37 -104 -88 -62 -84 -98 -66 -57 30 70 45 32 27 38 hvcurveto
          hintmask 1111000111010110
          21 27 -11 -14 5 hvcurveto
          -20 -15 -19 -20 -17 vvcurveto
          -26 23 -15 23 24 23 15 33 77 -56 32 -57 -61 -53 -40 -78 -99 92 -41 87 139 69 110 100 130 -87 68 -109 vhcurveto
          hintmask 1111100111100110
          -18 -19 -2 -4 -19 hvcurveto
          79 -5 76 78 vhcurveto
          59 60 -56 79 hhcurveto
          hintmask 1111001011101010
          84 44 63 62 79 -60 45 -61 -51 -52 -23 -63 -51 46 -31 35 25 18 16 22 20 -16 17 -19 -13 -13 -13 -11 -6 hvcurveto
          -6 -6 11 9 hvcurveto
          hintmask 1111010011101010
          41 37 11 28 49 16 -37 -37 -38 -27 -45 -55 vhcurveto
          -76 -69 60 -64 hhcurveto
          -115 -4 7 -143 -90 vvcurveto
          hintmask 1111100111100110
          -17 7 -7 11 2 2 0 1 2 vhcurveto
          endchar
        </CharString>
        <CharString name="foundryicon">
          956 -182 22 150 23 -19 24 -18 20 3 7 -5 19 -18 9 -5 7 1 23 -21 7 79 129 hstemhm
          217 7 37 18 92 10 11 10 20 7 16 81 59 46 -32 66 -39 71 34 64 37 59 29 60 8 64 27 26 14 56 27 61 -52 14 69 71 31 41 hintmask 10010000000110101010101001011100
          hintmask 00100000000000000000000000101100
          1382 -6 rmoveto
          75 7 101 45 -7 hvcurveto
          -2 11 -2 -6 -5 vvcurveto
          -12 -62 -21 -39 -28 -21 rrcurveto
          -18 26 -8 35 43 vvcurveto
          46 21 25 86 71 vvcurveto
          75 -20 32 -73 12 vhcurveto
          -49 -88 -14 -154 23 -116 2 -8 rcurveline
          -5 -10 -14 -28 -12 3 -18 62 6 100 9 65 rrcurveto
          hintmask 00010000000000000000000001000000
          -9 10 -32 13 -14 -3 -4 -4 -8 -34 -1 -6 rrcurveto
          4 -13 -17 4 -14 hhcurveto
          -29 -31 -10 -41 -2 -45 rrcurveto
          -33 vlineto
          hintmask 00010000000000000000000010000000
          -8 -20 -14 -29 -23 -10 -12 8 -5 17 -4 17 rrcurveto
          34 11 18 47 42 vvcurveto
          61 -38 22 -53 -4 vhcurveto
          hintmask 00010000000000000000000100010000
          -15 -26 -10 -53 -1 -45 rrcurveto
          -60 -3 22 -57 65 hhcurveto
          27 3 18 19 10 17 rrcurveto
          -23 7 17 -16 32 hhcurveto
          16 2 22 13 4 17 rrcurveto
          hintmask 00100000000000000000000000011000
          -17 7 19 -21 23 hhcurveto
          21 15 19 18 5 hvcurveto
          hintmask 00100000000000000000000000101100
          -24 14 23 -13 30 hhcurveto
          hintmask 11000000000000001001100000000000
          -594 241 rmoveto
          -16 18 -35 14 -21 -2 7 -47 18 -94 -17 -77 -1 -5 -3 -10 -9 -2 -18 57 0 64 4 67 -16 15 -31 6 -12 2 rrcurveto
          -7 -14 -5 -22 -30 vvcurveto
          -33 3 -34 8 -28 vhcurveto
          -9 -21 -20 -36 -32 -10 -79 56 29 251 41 39 rrcurveto
          hintmask 01000000000000001100100000000000
          11 -14 12 -52 -5 -33 -1 -3 0 -7 7 8 rrcurveto
          23 20 17 25 30 vvcurveto
          78 -57 13 -38 8 vhcurveto
          -68 -59 -24 -103 1 -101 rrcurveto
          -88 2 36 -91 96 hhcurveto
          41 20 30 25 9 hvcurveto
          hintmask 10010000000000000010100000000000
          -27 13 21 -18 29 hhcurveto
          8 8 6 5 3 hvcurveto
          -10 -82 -2 -55 -51 -34 -6 24 4 32 3 23 rrcurveto
          17 -16 -25 6 -20 hhcurveto
          -5 -16 -4 -19 -20 vvcurveto
          -45 11 -24 44 vhcurveto
          hintmask 11000000000000001001100000000000
          123 35 220 197 -24 hvcurveto
          hintmask 00010000000000000000000010101100
          -535 -166 rmoveto
          7 hlineto
          1 hlineto
          -1 3 -5 3 vhcurveto
          -2 -1 -1 -1 -2 vvcurveto
          -2 12 -3 13 -7 vhcurveto
          -5 -2 -3 0 -5 -4 3 -2 rcurveline
          3 7 1 1 7 hhcurveto
          8 1 6 -4 6 -6 rrcurveto
          hintmask 00010000000000000000000100000000
          0 1 0 1 2 vhcurveto
          hintmask 00010000000000000000000010101100
          -2 5 -5 2 -4 2 rrcurveto
          hintmask 00000000100010000000000000000000
          8 4 -2 -2 6 hvcurveto
          1 1 0 -1 1 vvcurveto
          -10 7 -9 0 -6 -1 -10 5 -10 4 -9 3 4 3 rcurveline
          hintmask 00000000010010000000000000000000
          5 2 0 6 1 vvcurveto
          63 18 10 81 24 38 10 13 rcurveline
          0 1 0 -1 1 vhcurveto
          -13 hlineto
          4 13 rlineto
          0 1 2 -2 vhcurveto
          -13 -5 rlineto
          3 -5 -7 2 -7 hhcurveto
          -17 -18 -13 -21 -6 hvcurveto
          hintmask 00000000100010000000000000000000
          -12 -11 -67 -11 -69 -13 rrcurveto
          -13 -84 9 1 -2 hvcurveto
          -3 -2 -4 -3 4 hvcurveto
          18 -17 47 2 13 -13 18 -19 27 -36 40 -14 rrcurveto
          -2 0 -5 3 -3 vhcurveto
          -3 -2 -1 -1 -1 vvcurveto
          -3 12 -5 11 -9 vhcurveto
          -7 -1 -6 0 -5 -2 rrcurveto
          -1 0 -1 1 -1 vhcurveto
          7 2 8 1 6 -2 7 -1 5 -7 4 -6 rrcurveto
          2 1 0 1 hvcurveto
          -2 6 -4 5 -3 2 8 -1 2 -2 5 -5 rrcurveto
          hintmask 00000100000100000000000000000000
          1 1 1 0 1 vvcurveto
          -7 9 -10 0 -5 1 -25 18 rcurveline
          1 2 0 2 1 vhcurveto
          4 -1 4 6 1 2 rrcurveto
          -1 5 5 0 6 hhcurveto
          545 178 rmoveto
          hintmask 00000000100100000000000000000000
          27 -66 3 -110 4 -75 rrcurveto
          hintmask 00000100000100000000000000000000
          28 -4 17 19 7 26 rrcurveto
          7 18 0 34 21 vvcurveto
          hintmask 00000000100100000000000000000000
          5 23 17 17 7 17 5 -34 20 -13 34 9 -5 30 3 41 5 30 -9 15 -24 8 -26 2 rrcurveto
          -5 -10 -5 -18 -12 vvcurveto
          -5 -16 -9 -19 -15 -27 -2 34 -8 23 -9 17 rrcurveto
          hintmask 00000000100010000000000000000000
          -7 8 -9 5 -11 2 rrcurveto
          hintmask 00100000001000000000010000000000
          -10 2 -13 2 -17 1 rrcurveto
          384 -224 rmoveto
          -17 52 18 94 19 23 -2 -23 -1 -57 12 -46 rrcurveto
          hintmask 00000000001000000000001000000000
          -2 -17 -17 -18 -10 -8 rrcurveto
          183 128 rmoveto
          3 64 12 75 13 51 9 -50 -9 -100 -28 -40 rrcurveto
          -297 44 rmoveto
          hintmask 00000000001000000000010000000000
          5 -8 6 -16 -18 vvcurveto
          -30 -9 -36 -18 -3 vhcurveto
          40 5 37 11 34 vhcurveto
          hintmask 00100000001000000000010000000000
          -646 -165 rmoveto
          hintmask 00000010000000010000000000000000
          -1 vlineto
          -2 2 -1 2 2 1 1 1 vhcurveto
          0 1 0 1 vvcurveto
          1 vlineto
          1 -1 1 2 vvcurveto
          -1 0 1 0 hvcurveto
          -1 0 1 0 hvcurveto
          -1 hlineto
          -1 hlineto
          -3 -3 rlineto
          -51 1 rmoveto
          hintmask 00000001000001000000000000000000
          -3 2 -1 3 4 1 1 3 2 -1 1 -4 -3 -2 -1 -2 vhcurveto
          21 -7 rmoveto
          hintmask 00001000000000100000000000000000
          -1 vlineto
          -1 1 -1 1 -1 vhcurveto
          3 hlineto
          3 2 1 3 1 -1 1 -1 hvcurveto
          1 -1 0 -1 vhcurveto
          -1 hlineto
          -3 -2 -1 -1 hvcurveto
          -43 201 rmoveto
          -1 vlineto
          endchar
        </CharString>
        <CharString name="four">
          -52 -11 39 195 47 324 43 hstemhm
          26 49 170 47 64 93 -30 48 hintmask 11111010
          hintmask 11111100
          356 103 rmoveto
          -21 13 -22 19 -8 vhcurveto
          -19 -10 -20 -5 -13 hhcurveto
          -45 -8 72 61 24 1 23 1 15 hvcurveto
          hintmask 11111010
          129 13 44 178 123 vvcurveto
          59 -23 41 -50 -127 -15 -276 -91 -6 vhcurveto
          -126 1 -45 88 111 49 8 53 36 vvcurveto
          12 -2 3 -24 -22 -2 -4 -13 -1 vhcurveto
          -4 -47 -2 -41 -40 vvcurveto
          -145 56 -102 164 -8 vhcurveto
          -22 -1 -24 -25 vvcurveto
          -80 11 -83 92 vhcurveto
          hintmask 11111100
          52 49 56 58 32 -23 15 -24 -22 -24 -15 -32 hvcurveto
          hintmask 11111010
          33 491 rmoveto
          17 13 -24 -51 -101 -43 -146 -82 -2 hvcurveto
          51 25 273 70 vhcurveto
          endchar
        </CharString>
        <CharString name="foursuperior">
          -188 267 40 86 34 hstem
          64 243 vstem
          276 267 rmoveto
          11 7 11 10 9 -7 10 -11 hvcurveto
          -73 hlineto
          103 197 rlineto
          14 5 -9 10 -16 hhcurveto
          -9 -10 -4 -7 -4 hvcurveto
          -14 -29 -18 -34 -14 -27 rrcurveto
          -100 hlineto
          26 42 24 48 25 38 8 19 -47 10 -6 -17 -69 -119 rcurveline
          -7 -11 -4 -11 -9 vvcurveto
          -15 9 -9 22 1 vhcurveto
          16 31 -1 54 hhcurveto
          -45 -86 rlineto
          -72 hlineto
          -11 -7 -10 -9 -10 7 -11 11 hvcurveto
          endchar
        </CharString>
        <CharString name="fraction">
          -268 -26 642 hstem
          -22 329 vstem
          263 608 rmoveto
          -69 -129 -158 -328 -58 -147 -4 -20 38 -20 5 16 60 145 156 331 74 136 2 18 -38 17 -8 -19 rrcurveto
          endchar
        </CharString>
        <CharString name="g">
          99 -330 47 275 46 96 34 91 34 -32 36 30 81 25 47 -24 49 hstemhm
          32 51 -28 51 57 36 111 88 196 39 hintmask 1111010101111000
          337 28 rmoveto
          -6 -31 -2 -15 -3 -13 rrcurveto
          hintmask 1111010110111000
          -102 -15 -192 -42 -106 vvcurveto
          -75 72 -61 71 vhcurveto
          271 -85 786 190 hhcurveto
          26 17 -19 -22 -5 0 -2 -1 -4 hvcurveto
          3 -5 -7 1 -6 hhcurveto
          -25 -20 -18 -23 -23 20 -17 25 43 15 48 34 47 -30 49 -64 -38 -36 -31 -36 -24 hvcurveto
          hintmask 1111011001111000
          30 -25 -39 12 -37 hhcurveto
          -135 -150 -137 -181 -93 52 -77 122 hvcurveto
          hintmask 1111010101111000
          36 40 9 27 32 hvcurveto
          11 57 rmoveto
          -33 -32 -42 -14 -33 hhcurveto
          -96 -39 55 69 136 110 135 129 25 30 -9 -16 25 hvcurveto
          -36 -80 -18 -129 -23 -114 rrcurveto
          -179 -368 rmoveto
          -51 -35 40 44 70 110 44 120 3 hvcurveto
          -113 -29 -40 -88 -75 hhcurveto
          hintmask 1111011001111000
          82 554 rmoveto
          19 -11 -16 7 -19 hhcurveto
          hintmask 1111010101111000
          -23 -19 -20 -30 hvcurveto
          hintmask 1111010110111000
          -62 49 -51 36 42 62 41 65 35 -27 18 -28 -13 -18 -4 -18 -15 vhcurveto
          -30 vmoveto
          hintmask 1110110101111000
          8 7 15 10 8 hhcurveto
          18 11 -10 -17 -38 -37 -26 -22 -18 -34 28 38 hvcurveto
          hintmask 1111010101111000
          19 9 8 16 vhcurveto
          hintmask 1111010110111000
          7 15 -10 -10 5 hvcurveto
          endchar
        </CharString>
        <CharString name="germandbls">
          144 -20 51 -47 60 151 46 176 65 292 48 hstemhm
          24 53 142 46 13 54 90 44 121 46 -25 57 hintmask 0111111010100000
          437 449 rmoveto
          -23 14 -9 24 77 56 -65 -99 vhcurveto
          hintmask 1011111110100000
          -118 -86 -104 -108 -43 -39 23 65 46 17 30 44 15 14 -7 -17 vhcurveto
          -19 -43 -5 -29 vvcurveto
          -13 10 -14 26 -2 vhcurveto
          36 3 15 29 35 vvcurveto
          58 -29 27 -54 -64 -41 -58 -57 -83 39 -63 92 145 111 140 138 98 -35 59 -79 42 vhcurveto
          hintmask 0111111011000000
          54 53 28 69 64 vvcurveto
          117 -60 62 -110 vhcurveto
          -341 165 -778 -183 hhcurveto
          -19 -8 9 12 hvcurveto
          19 30 16 17 vvcurveto
          10 -10 9 -15 -36 -22 -23 -41 -54 40 -34 41 vhcurveto
          246 -184 790 307 hhcurveto
          79 34 -65 -69 -77 -43 -81 -69 hvcurveto
          hintmask 0111111010100000
          -24 -14 -7 -26 hvcurveto
          endchar
        </CharString>
        <CharString name="grave">
          -405 529 150 hstem
          23 101 vstem
          55 679 rmoveto
          -20 -12 -11 -18 hvcurveto
          -44 8 62 -77 13 hhcurveto
          6 12 5 10 33 -42 102 -27 hvcurveto
          endchar
        </CharString>
        <CharString name="grave.case">
          -395 667 150 hstem
          24 109 vstem
          64 817 rmoveto
          -20 -20 -18 -18 hvcurveto
          -44 8 70 -70 13 hhcurveto
          6 12 5 10 33 -42 102 -27 hvcurveto
          endchar
        </CharString>
        <CharString name="greater">
          -105 175 388 hstem
          42 382 vstem
          407 390 rmoveto
          -331 170 -10 5 -5 1 -7 -19 rlinecurve
          -8 -19 -1 -3 13 -8 78 -44 146 -73 66 -33 -66 -30 -150 -75 -79 -42 -14 -7 1 -3 6 -19 7 -19 6 1 10 4 337 164 rcurveline
          24 14 0 23 -23 12 rrcurveto
          endchar
        </CharString>
        <CharString name="guillemotleft">
          8 109 380 hstem
          35 495 vstem
          490 443 rmoveto
          11 11 0 1 -9 18 -9 18 -6 2 -9 -8 -219 -188 rcurveline
          -20 -14 1 -20 24 -14 251 -138 rcurveline
          10 -5 6 2 5 19 5 19 2 2 -15 8 -215 124 rcurveline
          -13 163 rmoveto
          11 11 0 1 -9 18 -9 18 -6 2 -9 -8 -219 -188 rcurveline
          -20 -14 1 -20 24 -14 251 -138 rcurveline
          10 -5 6 2 5 19 5 19 2 2 -15 8 -215 124 rcurveline
          endchar
        </CharString>
        <CharString name="guillemotright">
          3 109 380 hstem
          33 494 vstem
          259 280 rmoveto
          -215 -124 -15 -8 2 -2 5 -19 rlinecurve
          5 -19 6 -2 10 5 251 138 rcurveline
          24 14 1 20 -20 14 -219 188 rcurveline
          -9 8 -6 -2 -9 -18 -9 -18 0 -1 11 -11 rrcurveto
          387 -163 rmoveto
          -215 -124 -15 -8 2 -2 5 -19 rlinecurve
          5 -19 6 -2 10 5 251 138 rcurveline
          24 14 1 20 -20 14 -219 188 rcurveline
          -9 8 -6 -2 -9 -18 -9 -18 0 -1 11 -11 rrcurveto
          endchar
        </CharString>
        <CharString name="guilsinglleft">
          -189 109 380 hstem
          35 295 vstem
          290 443 rmoveto
          11 11 0 1 -9 18 -9 18 -6 2 -9 -8 -219 -188 rcurveline
          -20 -14 1 -20 24 -14 251 -138 rcurveline
          10 -5 6 2 5 19 5 19 2 2 -15 8 -215 124 rcurveline
          endchar
        </CharString>
        <CharString name="guilsinglright">
          -186 109 380 hstem
          33 294 vstem
          259 280 rmoveto
          -215 -124 -15 -8 2 -2 5 -19 rlinecurve
          5 -19 6 -2 10 5 251 138 rcurveline
          24 14 1 20 -20 14 -219 188 rcurveline
          -9 8 -6 -2 -9 -18 -9 -18 0 -1 11 -11 rrcurveto
          endchar
        </CharString>
        <CharString name="h">
          6 -11 42 86 99 216 52 223 46 hstemhm
          89 61 123 52 -28 51 35 50 64 40 hintmask 1111101110000000
          33 25 rmoveto
          -3 -9 0 -2 -2 vvcurveto
          -15 18 -10 21 4 3 1 2 1 vhcurveto
          34 93 15 107 13 106 rrcurveto
          67 48 88 69 51 hhcurveto
          43 14 -26 -32 hvcurveto
          -99 -86 -75 -97 vvcurveto
          -63 37 -51 73 74 56 48 78 56 -33 45 -46 -44 -20 -31 -25 -20 13 -23 23 30 18 27 18 4 vhcurveto
          11 -15 4 -16 -14 vvcurveto
          -44 -43 -42 -47 -46 -13 39 38 vhcurveto
          90 85 75 106 vvcurveto
          57 -26 48 -77 -56 -87 -64 -53 -39 vhcurveto
          6 47 rlineto
          hintmask 1111110110000000
          32 36 139 137 91 vvcurveto
          28 -22 47 -56 vhcurveto
          hintmask 1111101110000000
          -151 14 -510 -218 -77 hvcurveto
          hintmask 1111110110000000
          172 622 rmoveto
          33 12 14 27 15 hhcurveto
          19 8 -21 -14 -45 -54 -76 -52 -54 hvcurveto
          9 53 12 50 17 47 rrcurveto
          endchar
        </CharString>
        <CharString name="hryvnia">
          -556 endchar
        </CharString>
        <CharString name="hyphen">
          -166 245 58 hstem
          76 265 vstem
          318 245 rmoveto
          14 9 16 13 14 -9 15 -14 hvcurveto
          -219 hlineto
          -14 -9 -15 -14 -13 9 -16 14 hvcurveto
          endchar
        </CharString>
        <CharString name="i">
          -194 -10 45 416 42 83 49 77 51 hstemhm
          31 74 -26 53 -7 45 29 50 -16 93 -68 47 hintmask 1111010100000000
          hintmask 1111001101000000
          125 659 rmoveto
          -49 36 -34 50 48 46 33 59 49 -36 36 -49 -58 -37 -47 -47 vhcurveto
          91 43 rmoveto
          24 18 -12 -25 -29 -24 -11 -23 -24 -17 12 24 28 22 13 24 hvcurveto
          hintmask 1111010010000000
          43 -640 rmoveto
          -17 -19 -39 -10 -26 hhcurveto
          -32 -11 18 28 hvcurveto
          hintmask 1111010100000000
          95 117 188 58 vvcurveto
          50 -36 21 -42 vhcurveto
          hintmask 1111100100000000
          -61 -79 -40 -67 -29 8 -31 29 20 17 18 22 18 -15 14 -14 5 hvcurveto
          21 13 54 27 30 hhcurveto
          15 11 -7 -19 hvcurveto
          hintmask 1111010100000000
          -68 -120 -178 -106 vvcurveto
          -58 44 -25 49 vhcurveto
          hintmask 1111010010000000
          61 93 41 67 27 -21 23 -26 -28 -18 -23 -24 -16 8 -15 18 -8 hvcurveto
          endchar
        </CharString>
        <CharString name="iacute">
          -92 -12 42 299 40 43 75 89 46 hstemhm
          16 46 63 57 -23 36 116 59 -36 96 hintmask 1101110100000000
          hintmask 1101110010000000
          334 148 rmoveto
          -23 24 -19 18 -7 vhcurveto
          -41 -19 -60 -28 -46 hhcurveto
          -39 -30 22 51 hvcurveto
          hintmask 1101110100000000
          130 188 114 154 vvcurveto
          74 -61 47 -85 -99 -109 -67 -123 -67 41 -36 52 vhcurveto
          hintmask 1111101100000000
          55 31 48 42 32 -12 36 -35 -23 -19 -17 -21 -21 23 -16 30 hvcurveto
          -27 -7 -23 -16 -20 hhcurveto
          -34 -13 29 30 103 95 45 62 65 27 -37 -49 hvcurveto
          hintmask 1101110100000000
          -148 -186 -83 -147 vvcurveto
          -71 48 -53 84 vhcurveto
          hintmask 1101110010000000
          93 80 74 86 29 -22 23 -26 -26 -22 -23 -29 hvcurveto
          -56 669 rmoveto
          -27 -42 -102 -33 -10 12 -5 6 13 70 70 44 8 hvcurveto
          18 -20 18 -20 vhcurveto
          endchar
        </CharString>
        <CharString name="icircumflex">
          -92 -12 42 299 40 43 75 89 46 hstemhm
          16 46 63 57 -23 36 116 59 -36 96 hintmask 1101110100000000
          hintmask 1101110010000000
          334 148 rmoveto
          -23 24 -19 18 -7 vhcurveto
          -41 -19 -60 -28 -46 hhcurveto
          -39 -30 22 51 hvcurveto
          hintmask 1101110100000000
          130 188 114 154 vvcurveto
          74 -61 47 -85 -99 -109 -67 -123 -67 41 -36 52 vhcurveto
          hintmask 1111101100000000
          55 31 48 42 32 -12 36 -35 -23 -19 -17 -21 -21 23 -16 30 hvcurveto
          -27 -7 -23 -16 -20 hhcurveto
          -34 -13 29 30 103 95 45 62 65 27 -37 -49 hvcurveto
          hintmask 1101110100000000
          -148 -186 -83 -147 vvcurveto
          -71 48 -53 84 vhcurveto
          hintmask 1101110010000000
          93 80 74 86 29 -22 23 -26 -26 -22 -23 -29 hvcurveto
          -109 643 rmoveto
          -28 -29 -38 -29 -29 -29 -11 -11 34 -35 16 12 1 1 61 54 19 19 77 -75 rcurveline
          9 -11 40 37 -8 9 -95 87 rcurveline
          -20 18 -12 -3 -16 -15 rrcurveto
          endchar
        </CharString>
        <CharString name="idieresis">
          -92 -12 42 299 40 43 75 89 46 45 86 hstemhm
          16 46 63 57 -33 107 -97 36 91 107 -82 59 -36 96 hintmask 1101011000100000
          hintmask 1101011000010000
          334 148 rmoveto
          -23 24 -19 18 -7 vhcurveto
          -41 -19 -60 -28 -46 hhcurveto
          -39 -30 22 51 hvcurveto
          hintmask 1101011000100000
          130 188 114 154 vvcurveto
          74 -61 47 -85 -99 -109 -67 -123 -67 41 -36 52 vhcurveto
          hintmask 1111010010100000
          55 31 48 42 32 -12 36 -35 -23 -19 -17 -21 -21 23 -16 30 hvcurveto
          -27 -7 -23 -16 -20 hhcurveto
          -34 -13 29 30 103 95 45 62 65 27 -37 -49 hvcurveto
          hintmask 1101011000100000
          -148 -186 -83 -147 vvcurveto
          -71 48 -53 84 vhcurveto
          hintmask 1101011000010000
          93 80 74 86 29 -22 23 -26 -26 -22 -23 -29 hvcurveto
          hintmask 1101110100100000
          -136 589 rmoveto
          9 -7 -12 9 -9 hhcurveto
          -12 -9 -8 -19 -33 33 -28 16 20 38 26 33 19 -12 8 -16 -10 -11 -8 -8 -9 hvcurveto
          hintmask 1101111001000000
          137 hmoveto
          9 -7 -11 9 -9 hhcurveto
          -13 -9 -8 -19 -33 33 -28 16 20 38 26 33 19 -13 8 -15 -10 -11 -8 -8 -9 hvcurveto
          endchar
        </CharString>
        <CharString name="igrave">
          -92 -12 42 299 40 43 75 89 46 hstemhm
          16 46 63 57 -23 36 116 59 -36 96 hintmask 1101110100000000
          hintmask 1101110010000000
          334 148 rmoveto
          -23 24 -19 18 -7 vhcurveto
          -41 -19 -60 -28 -46 hhcurveto
          -39 -30 22 51 hvcurveto
          hintmask 1101110100000000
          130 188 114 154 vvcurveto
          74 -61 47 -85 -99 -109 -67 -123 -67 41 -36 52 vhcurveto
          hintmask 1111101100000000
          55 31 48 42 32 -12 36 -35 -23 -19 -17 -21 -21 23 -16 30 hvcurveto
          -27 -7 -23 -16 -20 hhcurveto
          -34 -13 29 30 103 95 45 62 65 27 -37 -49 hvcurveto
          hintmask 1101110100000000
          -148 -186 -83 -147 vvcurveto
          -71 48 -53 84 vhcurveto
          hintmask 1101110010000000
          93 80 74 86 29 -22 23 -26 -26 -22 -23 -29 hvcurveto
          -98 669 rmoveto
          -20 -20 -18 -18 hvcurveto
          -44 8 70 -70 13 hhcurveto
          6 12 5 10 33 -42 102 -27 hvcurveto
          endchar
        </CharString>
        <CharString name="j">
          -178 -240 49 93 83 37 41 243 72 52 57 -38 51 70 46 67 46 -44 48 hstemhm
          -55 49 62 37 22 45 39 50 84 55 hintmask 1111011101101100
          hintmask 1111101101101100
          328 456 rmoveto
          50 11 -53 -26 -24 hhcurveto
          hintmask 1111011101101100
          -43 -21 20 -50 hhcurveto
          -63 -29 -59 -45 -46 28 -44 45 22 19 13 22 23 -20 14 -22 -10 -15 -3 -7 -9 hvcurveto
          -1 4 0 4 5 vvcurveto
          37 31 31 37 vhcurveto
          37 36 -19 38 hhcurveto
          hintmask 1111101101111100
          1 hlineto
          -179 -40 52 -442 -214 hhcurveto
          -45 -32 33 56 58 33 66 48 17 23 -12 -25 hvcurveto
          -31 -16 -25 -23 -24 19 -11 19 41 13 44 28 45 -40 44 -48 -82 -45 -82 -76 -92 61 -53 75 253 -56 481 215 50 hvcurveto
          hintmask 1111101101101100
          -41 251 rmoveto
          hintmask 1111011101101100
          19 -11 -16 7 -19 hhcurveto
          hintmask 1111011011101100
          -23 -19 -20 -30 -62 49 -51 36 42 62 41 65 35 -27 18 -28 hvcurveto
          hintmask 1111011101101100
          -13 -18 -4 -18 -15 hvcurveto
          -36 vmoveto
          6 7 9 6 8 hhcurveto
          12 10 -6 -15 -26 -30 -20 -16 -12 -26 22 26 15 7 6 10 7 9 -7 -7 5 hvcurveto
          endchar
        </CharString>
        <CharString name="k">
          -11 46 -46 50 55 90 -87 82 271 41 81 79 56 46 hstemhm
          25 48 184 41 105 67 -34 50 -35 52 -14 41 20 83 -13 50 hintmask 0100101110100010
          hintmask 0110111110001010
          530 652 rmoveto
          55 -33 46 -67 vhcurveto
          -13 -298 233 -701 -238 hhcurveto
          -37 -17 20 26 9 1 10 5 10 hvcurveto
          -12 8 14 -8 16 hhcurveto
          25 20 20 25 25 -20 20 -25 -39 -53 -31 -60 -71 44 -33 64 hvcurveto
          118 2 31 124 13 144 rrcurveto
          hintmask 0100101110010010
          16 27 45 17 29 hhcurveto
          26 29 -12 -35 hvcurveto
          -42 -15 -75 -33 vvcurveto
          hintmask 0101101110100010
          -73 53 -33 56 64 61 50 65 34 -21 41 -36 -25 -17 -18 -24 -1 vhcurveto
          -30 2 23 -10 25 hhcurveto
          -36 -3 -39 -26 -38 hhcurveto
          hintmask 1000101110100010
          -24 -30 19 36 hvcurveto
          45 17 44 65 vvcurveto
          48 -27 34 -43 10 vhcurveto
          hintmask 0100101110010100
          60 11 16 54 69 hhcurveto
          18 15 -7 -16 12 hvcurveto
          -18 -10 -6 -15 -17 vvcurveto
          -20 15 -19 23 27 18 30 24 62 -57 29 -51 -100 -23 -77 -76 -15 vhcurveto
          -30 -3 -34 -10 -24 -16 rrcurveto
          191 14 -4 207 128 hhcurveto
          32 20 -23 -22 -27 -8 -13 -11 -3 hvcurveto
          hintmask 0100111110001010
          17 -4 -13 15 -16 hhcurveto
          -23 -11 -17 -18 hvcurveto
          hintmask 0100111111000010
          -31 27 -13 26 48 26 36 44 vhcurveto
          endchar
        </CharString>
        <CharString name="l">
          -189 -11 44 37 90 29 37 368 72 54 44 hstemhm
          34 41 -23 51 59 91 -57 50 54 42 hintmask 1010101011000000
          200 -11 rmoveto
          72 70 42 101 63 -36 31 -43 hvcurveto
          hintmask 1010101101000000
          -45 -56 -38 -62 hvcurveto
          hintmask 1110101101000000
          -27 16 -29 30 25 20 20 25 23 -17 19 -22 3 vhcurveto
          hintmask 1010101101000000
          20 12 17 9 15 hhcurveto
          22 20 -19 -33 -66 -38 -38 -68 -62 -29 56 51 hvcurveto
          hintmask 1010101011000000
          157 143 147 176 vvcurveto
          63 -34 81 -84 vhcurveto
          hintmask 1011110011000000
          -48 -46 -38 -59 -31 24 -42 46 17 24 12 28 12 -10 20 -21 -11 -13 -6 -10 -8 hvcurveto
          -5 3 -2 7 9 vvcurveto
          22 14 29 37 53 17 -55 -45 vhcurveto
          hintmask 1010101011000000
          -170 -144 -145 -169 vvcurveto
          -83 63 -64 85 vhcurveto
          endchar
        </CharString>
        <CharString name="less">
          -95 197 378 hstem
          27 392 vstem
          42 376 rmoveto
          -22 -14 2 -23 25 -11 348 -130 rcurveline
          10 -3 6 0 5 19 5 19 1 4 -14 6 -82 35 -155 55 -69 25 63 38 141 84 74 50 12 9 -1 3 -9 18 -9 18 -5 -1 -10 -5 rrcurveto
          endchar
        </CharString>
        <CharString name="logicalnot">
          41 245 58 hstem
          473 58 vstem
          531 278 rmoveto
          3 -1 3 -2 3 vhcurveto
          9 -3 -8 7 -9 hhcurveto
          -419 hlineto
          -14 -9 -15 -14 -13 9 -16 14 hvcurveto
          384 -186 hlineto
          -14 15 -9 14 13 16 9 14 vhcurveto
          212 vlineto
          3 vlineto
          endchar
        </CharString>
        <CharString name="m">
          507 -12 43 -43 49 -46 37 157 36 226 45 hstemhm
          35 49 54 80 -59 97 216 49 124 48 79 54 56 56 -7 97 hintmask 0011111011110000
          hintmask 0011110111110000
          160 185 rmoveto
          12 13 -3 -7 13 hvcurveto
          -18 -7 -21 -20 -26 vvcurveto
          -23 23 -12 19 25 30 21 38 49 -44 26 -55 -81 -41 -57 -58 -58 46 -57 89 169 74 233 139 1 vhcurveto
          35 31 72 49 63 hhcurveto
          54 11 -31 -36 hvcurveto
          hintmask 1001111011110000
          -97 -110 -76 -161 -69 vvcurveto
          -26 8 -26 33 112 62 243 132 6 vhcurveto
          46 47 51 36 47 hhcurveto
          24 20 -11 -30 hvcurveto
          -95 -110 -122 -114 vvcurveto
          -59 40 -26 49 vhcurveto
          hintmask 1001111011101000
          74 93 60 76 25 -24 19 -25 -32 -16 -18 -22 -17 14 -18 19 -10 hvcurveto
          -28 -18 -42 -24 -34 hhcurveto
          -25 -19 13 34 hvcurveto
          hintmask 0011111011110000
          113 112 106 115 vvcurveto
          58 -43 23 -50 -48 -58 -29 -37 -46 vhcurveto
          40 -7 -26 26 -60 hhcurveto
          -65 -85 -34 -46 -42 hvcurveto
          47 -13 -35 32 -62 hhcurveto
          -83 -77 -68 -86 -23 17 -22 24 22 17 20 23 19 -11 18 -19 5 hvcurveto
          43 23 41 26 40 hhcurveto
          51 22 -37 -54 -106 -68 -222 -125 -60 -28 41 39 hvcurveto
          hintmask 0011110111110000
          40 25 37 51 vhcurveto
          hintmask 0101111011110000
          361 -138 rmoveto
          47 46 108 67 89 vhcurveto
          -120 -20 -54 -134 -33 hhcurveto
          -3 -3 3 7 hvcurveto
          endchar
        </CharString>
        <CharString name="macron">
          -58 582 48 hstem
          41 408 vstem
          433 582 rmoveto
          9 7 3 20 19 0 6 -11 hvcurveto
          -386 hlineto
          -11 0 -6 -19 -20 6 -3 9 hvcurveto
          endchar
        </CharString>
        <CharString name="minus">
          -1 230 48 hstem
          66 423 vstem
          473 230 rmoveto
          9 7 3 20 19 0 6 -11 hvcurveto
          -401 hlineto
          -11 0 -6 -19 -20 6 -3 9 hvcurveto
          endchar
        </CharString>
        <CharString name="mu">
          106 -233 39 182 38 -16 46 0 77 hstemhm
          61 49 52 83 143 51 130 32 hintmask 11001111
          hintmask 10101111
          400 144 rmoveto
          -54 -14 -65 -34 -58 hhcurveto
          -52 -46 27 63 9 1 10 2 11 hvcurveto
          56 287 rlineto
          12 -15 8 -13 -10 -9 -4 -10 -1 vhcurveto
          -112 -578 rlineto
          -62 -14 42 -62 65 hhcurveto
          39 49 25 59 24 -13 21 -30 -21 -19 -17 -23 -16 10 -16 17 -6 hvcurveto
          -8 -9 -11 -4 -10 hhcurveto
          -36 -19 39 30 6 hvcurveto
          40 209 rlineto
          -53 14 42 -21 44 hhcurveto
          55 60 31 42 23 hvcurveto
          hintmask 11001111
          -59 1 42 -36 62 hhcurveto
          51 57 30 57 hvcurveto
          hintmask 11011111
          33 -33 25 -29 -17 -19 -10 -24 -25 24 -18 23 7 6 1 4 6 vhcurveto
          hintmask 11001111
          -24 -18 -26 -11 -25 hhcurveto
          -45 -22 35 39 6 hvcurveto
          65 333 rlineto
          12 -1 -14 7 -12 hhcurveto
          -10 -10 -5 -9 -1 hvcurveto
          endchar
        </CharString>
        <CharString name="multiply">
          -86 160 309 hstem
          67 336 vstem
          363 164 rmoveto
          8 -6 6 -2 13 15 13 14 4 4 -8 8 -128 115 rcurveline
          126 115 7 6 3 6 -13 16 rlinecurve
          -12 14 -5 3 -8 -6 -134 -121 rcurveline
          -134 121 -8 6 -5 -3 -12 -14 rlinecurve
          -13 -16 3 -6 7 -6 126 -115 rcurveline
          -128 -115 -8 -8 4 -4 13 -14 rlinecurve
          13 -15 6 2 8 6 128 116 rcurveline
          endchar
        </CharString>
        <CharString name="n">
          237 -14 45 -38 46 127 37 59 45 128 51 -21 48 hstemhm
          37 49 -39 92 161 50 148 52 16 49 -27 77 54 45 hintmask 0111011010101000
          hintmask 1011100110101000
          139 80 rmoveto
          24 -19 11 -22 -24 -27 -17 -37 -51 47 -24 39 106 67 204 129 28 vhcurveto
          47 41 88 69 62 hhcurveto
          33 8 -22 -24 hvcurveto
          -91 -68 -109 -86 vvcurveto
          hintmask 0111011011011000
          -74 62 -36 64 69 71 42 82 52 -46 34 -45 -66 -19 -49 -41 -25 19 -13 20 19 19 12 24 13 -7 15 -10 8 vhcurveto
          11 14 8 15 20 22 -14 -30 -53 -48 -30 -45 -39 -37 21 43 vhcurveto
          70 65 122 92 vvcurveto
          55 -22 44 -68 vhcurveto
          hintmask 0111101010101000
          -54 -78 -45 -46 -45 hvcurveto
          1 9 1 7 5 vvcurveto
          54 -23 43 -71 vhcurveto
          hintmask 1011011010101000
          -101 -118 -82 -95 -54 35 -20 36 34 38 16 34 23 -19 17 -22 hvcurveto
          -41 4 -45 -4 hhcurveto
          -8 -4 13 11 73 101 61 63 40 10 -21 -26 -80 -81 -307 -90 -8 -8 2 3 -7 hvcurveto
          20 11 13 16 17 vvcurveto
          endchar
        </CharString>
        <CharString name="nbspace">
          -254 endchar
        </CharString>
        <CharString name="nine">
          -143 -9 47 121 36 68 48 278 49 hstemhm
          35 48 -45 53 237 52 hintmask 10110110
          327 318 rmoveto
          hintmask 11111010
          -79 -13 -26 -201 -126 hhcurveto
          -39 -40 20 42 19 6 34 30 6 hvcurveto
          -30 7 15 -21 23 hhcurveto
          25 20 18 24 36 -38 9 -27 -92 -17 -62 -34 -74 67 -34 63 194 21 329 121 148 -78 49 -86 hvcurveto
          hintmask 10110110
          -94 -84 -68 -129 -114 73 -64 92 34 55 14 41 35 hvcurveto
          1 123 rmoveto
          -85 -62 -45 -60 -58 -57 41 89 96 56 52 64 62 55 -33 -115 vhcurveto
          endchar
        </CharString>
        <CharString name="noBreak">
          -556 endchar
        </CharString>
        <CharString name="nonmarkingreturn">
          -556 endchar
        </CharString>
        <CharString name="ntilde">
          237 -14 45 -38 46 127 37 59 45 128 51 -21 48 16 79 -69 79 hstemhm
          37 49 -39 92 161 50 -15 58 105 52 -47 57 6 49 -27 77 54 45 hintmask 011101001010001010000000
          hintmask 101110000110001010000000
          139 80 rmoveto
          24 -19 11 -22 -24 -27 -17 -37 -51 47 -24 39 106 67 204 129 28 vhcurveto
          47 41 88 69 62 hhcurveto
          33 8 -22 -24 hvcurveto
          -91 -68 -109 -86 vvcurveto
          hintmask 011101001010100110000000
          -74 62 -36 64 69 71 42 82 52 -46 34 -45 -66 -19 -49 -41 -25 19 -13 20 19 19 12 24 13 -7 15 -10 8 vhcurveto
          11 14 8 15 20 22 -14 -30 -53 -48 -30 -45 -39 -37 21 43 vhcurveto
          70 65 122 92 vvcurveto
          55 -22 44 -68 vhcurveto
          hintmask 011110001010001010000000
          -54 -78 -45 -46 -45 hvcurveto
          1 9 1 7 5 vvcurveto
          54 -23 43 -71 vhcurveto
          hintmask 101101001010001010000000
          -101 -118 -82 -95 -54 35 -20 36 34 38 16 34 23 -19 17 -22 hvcurveto
          -41 4 -45 -4 hhcurveto
          -8 -4 13 11 73 101 61 63 40 10 -21 -26 -80 -81 -307 -90 -8 -8 2 3 -7 hvcurveto
          20 11 13 16 17 vvcurveto
          hintmask 101101000110001010000000
          368 449 rmoveto
          hintmask 101110000110001010000000
          28 25 12 34 hvcurveto
          hintmask 011101101010010010000000
          19 -12 14 -18 -22 -5 -18 -14 vhcurveto
          10 -42 -30 32 -43 hhcurveto
          -29 -24 -12 -35 hvcurveto
          hintmask 011101011001001010000000
          -19 14 -13 15 22 7 15 15 vhcurveto
          -10 40 31 -30 43 hhcurveto
          endchar
        </CharString>
        <CharString name="numbersign">
          55 113 46 -45 41 -38 45 137 44 -41 49 -45 46 hstemhm
          28 554 hintmask 00100110
          hintmask 01010010
          564 155 rmoveto
          -32 2 -39 1 -42 1 11 47 11 48 12 47 84 -3 rcurveline
          8 2 5 9 10 vvcurveto
          12 -7 13 -11 vhcurveto
          -67 3 12 46 13 44 12 42 rlinecurve
          12 -15 5 -12 -9 -8 -3 -8 -2 vhcurveto
          hintmask 00100110
          -38 -137 rlineto
          2 -73 -65 2 -87 hhcurveto
          11 44 12 43 12 40 rrcurveto
          12 -15 5 -12 -9 -8 -3 -8 -2 vhcurveto
          hintmask 10001010
          -12 -41 -13 -46 -12 -47 -45 -1 -44 -1 -42 -2 rrcurveto
          -12 -3 -6 -15 -12 vvcurveto
          -8 3 -7 7 41 42 2 1 44 vhcurveto
          -12 -47 -12 -49 -11 -48 -84 -3 rcurveline
          -12 -3 -6 -15 -12 vvcurveto
          -8 3 -7 7 26 28 0 1 27 vhcurveto
          -8 -37 -7 -37 -6 -35 rrcurveto
          -15 15 -9 16 6 5 2 6 1 vhcurveto
          hintmask 00100110
          26 127 rlineto
          26 25 1 26 hhcurveto
          49 43 -1 -1 58 hvcurveto
          -8 -38 -8 -37 -6 -35 rrcurveto
          -15 15 -9 16 6 5 2 6 1 vhcurveto
          hintmask 01000110
          8 40 8 42 10 43 47 -2 45 -1 36 -2 rrcurveto
          8 2 5 9 10 vvcurveto
          hintmask 01010010
          12 -7 13 -11 vhcurveto
          hintmask 00100110
          -320 151 rmoveto
          62 61 -1 -2 71 hvcurveto
          -12 -47 -12 -48 -10 -47 -80 2 -65 2 -81 -3 11 48 12 48 12 48 rrcurveto
          endchar
        </CharString>
        <CharString name="o">
          -9 -9 42 163 12 2 53 -46 41 6 14 169 42 hstemhm
          34 52 133 48 -40 15 37 49 -30 12 152 52 hintmask 1100111000010000
          245 -9 rmoveto
          198 71 186 105 118 -72 89 -140 -200 -68 -187 -104 -118 70 -89 141 hvcurveto
          42 vmoveto
          -123 -36 97 76 108 77 133 141 123 35 -97 -76 -108 -76 -133 -141 hvcurveto
          hintmask 1101011100010000
          -6 233 rmoveto
          hintmask 1101011010010000
          -5 -3 -4 -5 -2 -4 rrcurveto
          3 -4 -18 1 -6 hhcurveto
          -13 -4 -6 -13 -17 6 -5 10 3 21 1 4 4 hvcurveto
          hintmask 1100111011010000
          2 -4 3 -5 3 -3 rrcurveto
          -12 -9 -19 -11 -7 vvcurveto
          -16 21 -15 14 12 8 31 13 6 vhcurveto
          4 -1 6 0 4 1 rrcurveto
          hintmask 1010011001010000
          -28 3 4 -15 9 hhcurveto
          14 19 8 15 10 -14 12 -9 9 hvcurveto
          hintmask 1010011000110000
          4 4 4 3 2 5 rrcurveto
          -4 10 7 -5 8 hhcurveto
          17 8 14 17 13 -3 9 -16 -7 -13 -7 -5 -10 hvcurveto
          -1 4 -2 3 -3 3 rrcurveto
          hintmask 1100111100010000
          15 7 16 8 5 vvcurveto
          15 -21 16 -15 -12 -4 -24 -12 -5 vhcurveto
          1 -4 -4 1 -9 hhcurveto
          hintmask 1101011100010000
          10 -2 1 28 -12 hhcurveto
          -14 -21 -12 -12 -6 12 -13 8 -7 hvcurveto
          hintmask 1100111010110000
          3 -30 rmoveto
          15 13 13 15 15 13 -13 -15 -15 -13 -13 -15 -15 -13 13 15 vhcurveto
          endchar
        </CharString>
        <CharString name="oacute">
          -9 -9 42 163 12 2 53 -46 41 6 14 169 42 hstemhm
          34 52 133 48 -40 15 37 49 -30 12 152 52 hintmask 1100111000010000
          245 -9 rmoveto
          198 71 186 105 118 -72 89 -140 -200 -68 -187 -104 -118 70 -89 141 hvcurveto
          42 vmoveto
          -123 -36 97 76 108 77 133 141 123 35 -97 -76 -108 -76 -133 -141 hvcurveto
          hintmask 1101011100010000
          -6 233 rmoveto
          hintmask 1101011010010000
          -5 -3 -4 -5 -2 -4 rrcurveto
          3 -4 -18 1 -6 hhcurveto
          -13 -4 -6 -13 -17 6 -5 10 3 21 1 4 4 hvcurveto
          hintmask 1100111011010000
          2 -4 3 -5 3 -3 rrcurveto
          -12 -9 -19 -11 -7 vvcurveto
          -16 21 -15 14 12 8 31 13 6 vhcurveto
          4 -1 6 0 4 1 rrcurveto
          hintmask 1010011001010000
          -28 3 4 -15 9 hhcurveto
          14 19 8 15 10 -14 12 -9 9 hvcurveto
          hintmask 1010011000110000
          4 4 4 3 2 5 rrcurveto
          -4 10 7 -5 8 hhcurveto
          17 8 14 17 13 -3 9 -16 -7 -13 -7 -5 -10 hvcurveto
          -1 4 -2 3 -3 3 rrcurveto
          hintmask 1100111100010000
          15 7 16 8 5 vvcurveto
          15 -21 16 -15 -12 -4 -24 -12 -5 vhcurveto
          1 -4 -4 1 -9 hhcurveto
          hintmask 1101011100010000
          10 -2 1 28 -12 hhcurveto
          -14 -21 -12 -12 -6 12 -13 8 -7 hvcurveto
          hintmask 1100111010110000
          3 -30 rmoveto
          15 13 13 15 15 13 -13 -15 -15 -13 -13 -15 -15 -13 13 15 vhcurveto
          106 443 rmoveto
          -27 -42 -102 -33 -10 12 -5 6 13 62 77 44 8 hvcurveto
          18 -12 11 -20 vhcurveto
          endchar
        </CharString>
        <CharString name="ocircumflex">
          -9 -9 42 163 12 2 53 -46 41 6 14 169 42 hstemhm
          34 52 133 48 -40 15 37 49 -30 12 152 52 hintmask 1100111000010000
          245 -9 rmoveto
          198 71 186 105 118 -72 89 -140 -200 -68 -187 -104 -118 70 -89 141 hvcurveto
          42 vmoveto
          -123 -36 97 76 108 77 133 141 123 35 -97 -76 -108 -76 -133 -141 hvcurveto
          hintmask 1101011100010000
          -6 233 rmoveto
          hintmask 1101011010010000
          -5 -3 -4 -5 -2 -4 rrcurveto
          3 -4 -18 1 -6 hhcurveto
          -13 -4 -6 -13 -17 6 -5 10 3 21 1 4 4 hvcurveto
          hintmask 1100111011010000
          2 -4 3 -5 3 -3 rrcurveto
          -12 -9 -19 -11 -7 vvcurveto
          -16 21 -15 14 12 8 31 13 6 vhcurveto
          4 -1 6 0 4 1 rrcurveto
          hintmask 1010011001010000
          -28 3 4 -15 9 hhcurveto
          14 19 8 15 10 -14 12 -9 9 hvcurveto
          hintmask 1010011000110000
          4 4 4 3 2 5 rrcurveto
          -4 10 7 -5 8 hhcurveto
          17 8 14 17 13 -3 9 -16 -7 -13 -7 -5 -10 hvcurveto
          -1 4 -2 3 -3 3 rrcurveto
          hintmask 1100111100010000
          15 7 16 8 5 vvcurveto
          15 -21 16 -15 -12 -4 -24 -12 -5 vhcurveto
          1 -4 -4 1 -9 hhcurveto
          hintmask 1101011100010000
          10 -2 1 28 -12 hhcurveto
          -14 -21 -12 -12 -6 12 -13 8 -7 hvcurveto
          hintmask 1100111010110000
          3 -30 rmoveto
          15 13 13 15 15 13 -13 -15 -15 -13 -13 -15 -15 -13 13 15 vhcurveto
          43 417 rmoveto
          -28 -29 -27 -29 -29 -29 -11 -11 34 -35 16 12 1 1 50 54 19 19 66 -75 rcurveline
          9 -11 40 37 -8 9 -84 87 rcurveline
          -18 20 -14 -5 -16 -15 rrcurveto
          endchar
        </CharString>
        <CharString name="odieresis">
          -9 -9 42 163 12 2 53 -46 41 6 14 169 42 40 86 hstemhm
          34 52 103 83 -53 48 -40 15 37 49 -30 12 15 83 54 52 hintmask 1100111100000010
          245 -9 rmoveto
          198 71 186 105 118 -72 89 -140 -200 -68 -187 -104 -118 70 -89 141 hvcurveto
          42 vmoveto
          -123 -36 97 76 108 77 133 141 123 35 -97 -76 -108 -76 -133 -141 hvcurveto
          hintmask 0001000001000000
          -6 233 rmoveto
          hintmask 0001000000100000
          -5 -3 -4 -5 -2 -4 rrcurveto
          3 -4 -18 1 -6 hhcurveto
          -13 -4 -6 -13 -17 6 -5 10 3 21 1 4 4 hvcurveto
          hintmask 0100000000110000
          2 -4 3 -5 3 -3 rrcurveto
          -12 -9 -19 -11 -7 vvcurveto
          -16 21 -15 14 12 8 31 13 6 vhcurveto
          4 -1 6 0 4 1 rrcurveto
          hintmask 0010000000010000
          -28 3 4 -15 9 hhcurveto
          14 19 8 15 10 -14 12 -9 9 hvcurveto
          hintmask 0010000000001000
          4 4 4 3 2 5 rrcurveto
          -4 10 7 -5 8 hhcurveto
          17 8 14 17 13 -3 9 -16 -7 -13 -7 -5 -10 hvcurveto
          -1 4 -2 3 -3 3 rrcurveto
          hintmask 0000100001000000
          15 7 16 8 5 vvcurveto
          15 -21 16 -15 -12 -4 -24 -12 -5 vhcurveto
          1 -4 -4 1 -9 hhcurveto
          hintmask 0001000001000000
          10 -2 1 28 -12 hhcurveto
          -14 -21 -12 -12 -6 12 -13 8 -7 hvcurveto
          hintmask 0100100000101000
          3 -30 rmoveto
          15 13 13 15 15 13 -13 -15 -15 -13 -13 -15 -15 -13 13 15 vhcurveto
          hintmask 0000001010000100
          -11 293 rmoveto
          27 14 21 22 21 -14 22 -27 -28 -14 -22 -21 -21 14 -22 28 hvcurveto
          136 hmoveto
          27 14 21 22 21 -14 22 -27 -28 -14 -22 -21 -21 14 -22 28 hvcurveto
          endchar
        </CharString>
        <CharString name="oe">
          218 -11 52 -49 39 162 40 199 53 -41 43 hstemhm
          35 59 274 43 282 46 hintmask 01101111
          593 109 rmoveto
          -15 9 -12 13 -4 vhcurveto
          -40 -13 -44 -7 -29 hhcurveto
          -62 -56 63 82 13 1 14 3 12 hvcurveto
          -14 29 44 -8 34 hhcurveto
          105 112 62 110 83 -49 39 -92 -70 -73 -33 -64 -37 hvcurveto
          hintmask 10110111
          82 -36 -44 13 -51 hhcurveto
          -124 -128 -191 -146 -100 64 -59 77 66 76 45 100 50 hvcurveto
          hintmask 01101111
          -96 7 75 -46 76 hhcurveto
          67 43 21 77 30 hvcurveto
          19 7 -11 34 -34 hhcurveto
          -19 -16 -15 -19 hvcurveto
          hintmask 10110111
          -203 245 rmoveto
          -17 -68 -16 -62 -19 -52 rrcurveto
          -77 -28 -65 -54 -62 hhcurveto
          -48 -41 34 83 116 94 158 104 37 34 -22 -56 27 hvcurveto
          35 -99 rmoveto
          hintmask 01101111
          118 27 56 71 101 hhcurveto
          44 40 -21 -61 -81 -84 -48 -97 hvcurveto
          hintmask 10110111
          -26 -34 7 15 -27 hvcurveto
          endchar
        </CharString>
        <CharString name="ograve">
          -9 -9 42 163 12 2 53 -46 41 6 14 169 42 hstemhm
          34 52 133 48 -40 15 37 49 -30 12 152 52 hintmask 1100111000010000
          245 -9 rmoveto
          198 71 186 105 118 -72 89 -140 -200 -68 -187 -104 -118 70 -89 141 hvcurveto
          42 vmoveto
          -123 -36 97 76 108 77 133 141 123 35 -97 -76 -108 -76 -133 -141 hvcurveto
          hintmask 1101011100010000
          -6 233 rmoveto
          hintmask 1101011010010000
          -5 -3 -4 -5 -2 -4 rrcurveto
          3 -4 -18 1 -6 hhcurveto
          -13 -4 -6 -13 -17 6 -5 10 3 21 1 4 4 hvcurveto
          hintmask 1100111011010000
          2 -4 3 -5 3 -3 rrcurveto
          -12 -9 -19 -11 -7 vvcurveto
          -16 21 -15 14 12 8 31 13 6 vhcurveto
          4 -1 6 0 4 1 rrcurveto
          hintmask 1010011001010000
          -28 3 4 -15 9 hhcurveto
          14 19 8 15 10 -14 12 -9 9 hvcurveto
          hintmask 1010011000110000
          4 4 4 3 2 5 rrcurveto
          -4 10 7 -5 8 hhcurveto
          17 8 14 17 13 -3 9 -16 -7 -13 -7 -5 -10 hvcurveto
          -1 4 -2 3 -3 3 rrcurveto
          hintmask 1100111100010000
          15 7 16 8 5 vvcurveto
          15 -21 16 -15 -12 -4 -24 -12 -5 vhcurveto
          1 -4 -4 1 -9 hhcurveto
          hintmask 1101011100010000
          10 -2 1 28 -12 hhcurveto
          -14 -21 -12 -12 -6 12 -13 8 -7 hvcurveto
          hintmask 1100111010110000
          3 -30 rmoveto
          15 13 13 15 15 13 -13 -15 -15 -13 -13 -15 -15 -13 13 15 vhcurveto
          40 443 rmoveto
          -20 -12 -11 -18 hvcurveto
          -44 8 62 -77 13 hhcurveto
          6 12 5 10 33 -42 102 -27 hvcurveto
          endchar
        </CharString>
        <CharString name="one">
          57 -11 43 -32 48 81 41 19 44 hstemhm
          23 49 344 85 40 42 hintmask 01101110
          hintmask 01111110
          484 233 rmoveto
          -36 -32 -34 -29 -32 20 -16 21 22 22 18 34 5 -1 6 -1 4 hvcurveto
          30 -12 12 -23 -25 vvcurveto
          -39 -32 -42 -44 -62 -70 73 27 -41 vhcurveto
          24 51 138 375 29 vvcurveto
          20 -24 18 -21 -4 -5 -1 -3 -3 vhcurveto
          -26 -19 -130 -106 -73 -69 rrcurveto
          -4 -4 -2 -2 -3 vvcurveto
          -6 21 -26 10 4 3 3 3 4 vhcurveto
          58 46 66 65 64 48 rrcurveto
          hintmask 10101110
          -50 -148 -41 -118 -58 -138 rrcurveto
          4 -14 -20 3 -21 hhcurveto
          -104 -61 -67 -50 -46 39 -18 40 76 55 43 73 42 hvcurveto
          hintmask 01101110
          -46 62 58 -59 72 hhcurveto
          76 40 64 62 hvcurveto
          hintmask 01111110
          54 -32 52 -67 1 vhcurveto
          hintmask 10101110
          -258 -108 rmoveto
          -43 -14 -69 -50 -41 hhcurveto
          -21 -9 9 13 52 67 23 53 14 9 -1 -3 11 hvcurveto
          endchar
        </CharString>
        <CharString name="onehalf">
          -23 34 35 -15 39 169 38 28 41 hstemhm
          278 39 -13 37 75 39 -6 29 hintmask 00011010
          hintmask 10011001
          478 78 rmoveto
          -1 8 -27 2 -1 -9 rrcurveto
          -5 -1 -5 -5 -6 hhcurveto
          hintmask 01011010
          -13 -30 24 -18 hhcurveto
          hintmask 10111010
          -27 -9 -21 -18 hhcurveto
          -3 -2 1 2 hvcurveto
          40 138 4 103 vvcurveto
          38 -22 40 -52 vhcurveto
          hintmask 00110110
          -45 -2 -32 -24 -40 vvcurveto
          -29 26 -10 16 -2 vhcurveto
          7 4 6 16 -12 7 rrcurveto
          -3 3 -3 5 5 vvcurveto
          19 17 10 18 20 20 -12 -26 vhcurveto
          hintmask 10011010
          -82 -138 5 -70 vvcurveto
          -22 17 -21 27 vhcurveto
          hintmask 01011010
          19 17 20 19 hhcurveto
          hintmask 10011001
          17 14 -20 29 hhcurveto
          29 12 21 23 hvcurveto
          hintmask 00011010
          -293 250 rmoveto
          10 6 11 10 10 -6 10 -10 hvcurveto
          -54 hlineto
          90 176 6 14 -33 16 -10 -5 rlinecurve
          -32 -26 -90 -40 -23 -20 -9 -9 26 -30 19 11 6 1 43 32 31 9 -4 -16 -43 -73 -23 -40 rrcurveto
          -56 hlineto
          -10 -6 -10 -10 -10 6 -11 10 hvcurveto
          344 280 rmoveto
          -69 -129 -158 -328 -58 -147 -4 -20 38 -20 5 16 60 145 156 331 74 136 2 18 -38 17 -8 -19 rrcurveto
          endchar
        </CharString>
        <CharString name="onequarter">
          80 38 41 249 41 hstem
          72 475 vstem
          472 189 rmoveto
          -19 7 -48 3 -11 2 21 37 27 64 30 44 5 13 -31 14 -7 -8 -21 -16 -63 -147 -15 -17 35 -15 52 1 29 -12 -10 -16 -21 -44 -10 -20 rrcurveto
          -56 hlineto
          -10 -6 -10 -10 -10 6 -11 10 hvcurveto
          156 hlineto
          10 6 11 10 10 -6 10 -10 hvcurveto
          -61 hlineto
          32 61 62 112 -1 23 -1 18 -15 1 -7 -3 rrcurveto
          -280 37 rmoveto
          10 6 11 10 10 -6 10 -10 hvcurveto
          -54 hlineto
          90 176 6 14 -33 16 -10 -5 rlinecurve
          -32 -26 -90 -40 -23 -20 -9 -9 26 -30 19 11 6 1 43 32 31 9 -4 -16 -43 -73 -23 -40 rrcurveto
          -56 hlineto
          -10 -6 -10 -10 -10 6 -11 10 hvcurveto
          335 280 rmoveto
          -69 -129 -158 -328 -58 -147 -4 -20 38 -20 5 16 60 145 156 331 74 136 2 18 -38 17 -8 -19 rrcurveto
          endchar
        </CharString>
        <CharString name="onesuperior">
          -162 273 40 hstem
          61 272 vstem
          288 273 rmoveto
          11 7 11 10 9 -7 10 -11 hvcurveto
          -83 hlineto
          128 252 rlineto
          3 vlineto
          14 -24 13 -15 vhcurveto
          -2 -2 -1 -2 hhcurveto
          -63 -49 -76 -28 -55 -36 rrcurveto
          -1 -2 -1 -1 -2 vvcurveto
          -12 9 -9 19 23 83 57 22 45 vhcurveto
          -12 -23 -67 -129 -33 -55 -4 -7 -4 -4 -2 -3 rrcurveto
          -70 hlineto
          -11 -7 -10 -9 -10 7 -11 11 hvcurveto
          endchar
        </CharString>
        <CharString name="ordfeminine">
          -93 353 35 -30 40 55 28 103 41 hstemhm
          61 47 144 39 13 49 20 29 hintmask 01111101
          342 452 rmoveto
          1 4 3 0 4 hhcurveto
          13 7 -18 -10 hvcurveto
          hintmask 10111101
          -20 -17 -17 -28 -30 -7 22 23 9 2 11 2 10 vhcurveto
          30 147 rlineto
          15 -12 2 -10 -10 -5 -5 -11 -3 vhcurveto
          -2 -8 -2 -8 -1 -8 rrcurveto
          23 -16 -28 15 -43 hhcurveto
          -105 -27 -99 -56 hvcurveto
          hintmask 01111101
          -65 27 -47 77 41 30 15 21 20 vhcurveto
          hintmask 10111101
          -24 9 21 -17 40 hhcurveto
          42 34 28 45 35 -17 20 -32 hvcurveto
          hintmask 01111111
          -34 -15 -25 -21 -21 12 -10 15 15 7 13 13 hvcurveto
          hintmask 01111101
          9 -3 8 -8 5 vhcurveto
          -177 -54 rmoveto
          -54 -3 42 34 50 24 60 63 53 4 -42 -34 -49 -24 -61 -63 hvcurveto
          endchar
        </CharString>
        <CharString name="ordmasculine">
          -174 355 44 180 45 hstem
          61 51 159 50 vstem
          176 355 rmoveto
          107 38 99 56 65 -38 49 -79 -106 -37 -99 -57 -65 38 -48 77 hvcurveto
          44 vmoveto
          -51 -13 41 32 49 32 58 62 51 14 -40 -33 -48 -33 -59 -62 hvcurveto
          endchar
        </CharString>
        <CharString name="orn1">
          98 603 43 20 42 hstemhm
          32 43 511 43 hintmask 10110000
          190 124 rmoveto
          139 130 300 86 230 vvcurveto
          hintmask 11110000
          98 -52 40 -63 -74 -88 -56 -80 -31 vhcurveto
          hintmask 10110000
          43 -26 -52 31 -50 hhcurveto
          -90 -71 -76 -81 -103 69 -140 22 -106 hvcurveto
          -25 5 15 -14 11 hhcurveto
          10 11 8 15 15 hvcurveto
          -115 368 rmoveto
          57 52 54 61 vhcurveto
          76 40 -99 19 hhcurveto
          hintmask 11110000
          19 31 78 33 33 hvcurveto
          33 33 38 18 33 hhcurveto
          43 33 -29 -65 -196 -277 -74 -147 -147 hvcurveto
          hintmask 10110000
          -13 112 -74 110 115 vvcurveto
          endchar
        </CharString>
        <CharString name="orn2">
          143 216 28 -10 25 102 27 74 31 -23 32 56 20 -19 28 109 30 -3 31 hstemhm
          25 138 25 23 -23 29 3 75 -51 28 2 24 34 60 -59 27 67 22 -17 21 -13 22 7 31 -25 109 -54 20 3 33 53 31 hintmask 10110011000100101010001010000000
          hintmask 00000010000000000100001010000000
          492 463 rmoveto
          5 2 3 4 6 vvcurveto
          13 -8 5 -11 -9 -3 -6 -8 -7 7 -10 10 2 2 0 1 2 vhcurveto
          94 18 rmoveto
          12 -3 -5 9 -7 hhcurveto
          -2 -16 -6 -15 -8 9 -3 5 9 9 4 5 1 hvcurveto
          -104 -64 rmoveto
          -4 -2 -3 -4 -7 vvcurveto
          hintmask 00000000100000001010000000000000
          -30 37 -11 12 8 52 12 34 9 -5 3 -5 vhcurveto
          hintmask 00000001000100001000000000000000
          -25 12 -31 -33 -24 -4 28 -13 hhcurveto
          -1 -2 0 -1 -2 hvcurveto
          hintmask 10000000010000000000000000000000
          -135 165 rmoveto
          -2 -6 -4 0 -7 hhcurveto
          -52 -61 46 36 13 14 23 29 hvcurveto
          hintmask 01000000001001000000000000000000
          46 24 -78 -38 17 hvcurveto
          13 85 rmoveto
          26 4 32 33 26 9 -19 -21 -36 -23 -46 -31 -14 vhcurveto
          -9 19 -9 19 40 vvcurveto
          -118 -366 rmoveto
          7 -16 7 -14 6 -10 rrcurveto
          -75 1 -24 58 62 vvcurveto
          58 19 61 57 24 vhcurveto
          -13 -29 -6 -34 -39 vvcurveto
          hintmask 01000000000000100000000000000000
          -41 7 -42 15 -39 vhcurveto
          90 168 rmoveto
          -78 17 -88 32 -53 vhcurveto
          -3 -9 -15 -1 -11 hhcurveto
          -26 48 -25 84 75 vvcurveto
          48 14 42 30 17 vhcurveto
          -5 -28 -2 -32 -31 vvcurveto
          129 -209 rmoveto
          -50 78 -19 69 53 vvcurveto
          hintmask 01000000000001000000000000000000
          39 10 34 14 28 vhcurveto
          hintmask 10000000000000000100000000000000
          91 -11 132 -13 -103 vvcurveto
          -90 -100 -75 -78 -9 vhcurveto
          37 -15 rmoveto
          hintmask 10000000000000000001000000000000
          11 -33 21 -30 -29 -11 -2 -10 -9 vvcurveto
          -11 4 -9 8 8 2 9 10 vhcurveto
          4 -1 6 10 vvcurveto
          hintmask 10000000000000000100000000000000
          -9 18 5 -21 9 hhcurveto
          5 3 5 6 23 -27 19 -13 6 hvcurveto
          -9 18 -16 42 -5 23 rrcurveto
          hintmask 00000010000000000100001010000000
          75 33 76 68 81 vvcurveto
          hintmask 10000101000010010000000000000000
          116 -140 37 -101 vhcurveto
          -10 hlineto
          19 19 15 49 37 vvcurveto
          44 -26 18 -24 -29 -39 -30 -44 -2 vhcurveto
          23 -14 -25 23 -29 hhcurveto
          -47 -30 -30 -33 -42 34 -42 33 -14 hvcurveto
          hintmask 00000101000100000000000000000000
          -66 -35 -43 -48 -35 -48 -15 -21 rcurveline
          hintmask 10000101000010010000000000000000
          -16 -5 -55 -5 -16 vvcurveto
          hintmask 01000010010010010000000010000000
          -31 51 11 24 -7 vhcurveto
          18 -41 23 -47 30 -12 rrcurveto
          4 -51 13 -29 -32 -18 -8 -11 -12 vvcurveto
          -9 7 -7 6 vhcurveto
          18 -10 33 12 22 -4 -37 10 hhcurveto
          5 6 10 11 21 -26 23 -15 5 hvcurveto
          24 -10 26 25 vvcurveto
          5 1 6 1 6 vhcurveto
          hintmask 00000000100000001010000000000000
          16 -8 9 -2 16 -5 rrcurveto
          -17 12 -62 18 -28 vhcurveto
          -6 vlineto
          -14 3 -16 13 vhcurveto
          6 2 2 4 4 vvcurveto
          hintmask 00010000000000000000100000000000
          5 -3 4 2 vvcurveto
          1 2 3 6 vhcurveto
          9 2 -22 11 hhcurveto
          7 4 6 7 36 -37 -4 -14 14 hvcurveto
          -9 23 -3 25 -1 28 rrcurveto
          hintmask 00001000000000000000000100000000
          -8 32 30 -5 32 hhcurveto
          19 20 1 5 22 hvcurveto
          2 -26 16 -30 2 -22 rrcurveto
          -3 -7 -4 -12 -13 vvcurveto
          -11 4 -16 10 vhcurveto
          hintmask 00100000000000000000010000000000
          7 1 6 6 hvcurveto
          7 vlineto
          5 0 4 4 vhcurveto
          11 3 -22 9 hhcurveto
          6 2 9 5 15 -18 18 -8 7 hvcurveto
          -5 13 -17 47 20 vvcurveto
          1 28 8 21 9 vhcurveto
          endchar
        </CharString>
        <CharString name="oslash">
          -28 -9 42 -12 -21 447 42 hstemhm
          24 52 376 52 hintmask 10111000
          235 -9 rmoveto
          198 71 186 105 85 -37 69 -73 33 hvcurveto
          23 43 4 18 -40 17 -8 -19 rlinecurve
          -6 -11 -9 -16 -9 -18 rrcurveto
          4 -17 -20 2 -20 hhcurveto
          -200 -68 -187 -104 hvcurveto
          hintmask 01111000
          -81 32 -67 66 -35 vhcurveto
          -7 -15 -6 -15 -4 -11 rrcurveto
          -20 29 -20 10 16 vhcurveto
          5 13 7 17 9 20 rrcurveto
          hintmask 10111000
          -6 21 23 -3 26 hhcurveto
          42 vmoveto
          -19 -17 2 4 -15 hvcurveto
          52 113 82 167 55 110 rrcurveto
          60 -32 19 -67 -56 vvcurveto
          -108 -76 -133 -141 vhcurveto
          -93 26 rmoveto
          -49 34 -17 61 52 vvcurveto
          108 77 133 141 12 12 -1 -2 11 vhcurveto
          -55 -108 -81 -166 -51 -111 rrcurveto
          endchar
        </CharString>
        <CharString name="otilde">
          -9 -9 42 163 12 2 53 -46 41 6 14 169 42 40 79 -69 79 hstemhm
          34 52 101 58 -26 48 -40 15 37 49 -30 12 45 57 50 52 hintmask 1100110010000001
          245 -9 rmoveto
          198 71 186 105 118 -72 89 -140 -200 -68 -187 -104 -118 70 -89 141 hvcurveto
          42 vmoveto
          -123 -36 97 76 108 77 133 141 123 35 -97 -76 -108 -76 -133 -141 hvcurveto
          hintmask 1101010010100001
          -6 233 rmoveto
          hintmask 1101010010010001
          -5 -3 -4 -5 -2 -4 rrcurveto
          3 -4 -18 1 -6 hhcurveto
          -13 -4 -6 -13 -17 6 -5 10 3 21 1 4 4 hvcurveto
          hintmask 1100110010011001
          2 -4 3 -5 3 -3 rrcurveto
          -12 -9 -19 -11 -7 vvcurveto
          -16 21 -15 14 12 8 31 13 6 vhcurveto
          4 -1 6 0 4 1 rrcurveto
          hintmask 1010010010001001
          -28 3 4 -15 9 hhcurveto
          14 19 8 15 10 -14 12 -9 9 hvcurveto
          hintmask 1010010010000101
          4 4 4 3 2 5 rrcurveto
          -4 10 7 -5 8 hhcurveto
          17 8 14 17 13 -3 9 -16 -7 -13 -7 -5 -10 hvcurveto
          -1 4 -2 3 -3 3 rrcurveto
          hintmask 1100110010100001
          15 7 16 8 5 vvcurveto
          15 -21 16 -15 -12 -4 -24 -12 -5 vhcurveto
          1 -4 -4 1 -9 hhcurveto
          hintmask 1101010010100001
          10 -2 1 28 -12 hhcurveto
          -14 -21 -12 -12 -6 12 -13 8 -7 hvcurveto
          hintmask 1100111010010111
          3 -30 rmoveto
          15 13 13 15 15 13 -13 -15 -15 -13 -13 -15 -15 -13 13 15 vhcurveto
          117 293 rmoveto
          28 25 12 34 19 -12 14 -18 -22 -5 -18 -14 hvcurveto
          hintmask 1100110111000101
          10 -42 -30 32 -43 hhcurveto
          -29 -24 -12 -35 -19 14 -13 15 22 7 15 15 hvcurveto
          hintmask 1100111010010111
          -10 40 31 -30 43 hhcurveto
          endchar
        </CharString>
        <CharString name="p">
          81 -324 51 206 47 9 46 252 39 122 44 hstemhm
          -126 52 120 74 -62 43 23 71 67 49 234 51 hintmask 1010110101100000
          236 142 rmoveto
          -160 -11 -28 -255 -175 hhcurveto
          -69 -27 50 54 hvcurveto
          hintmask 1110111001100000
          60 3 42 42 46 hhcurveto
          14 14 -7 -9 12 hvcurveto
          -6 -7 -5 -12 -14 vvcurveto
          -29 16 -12 21 19 18 15 31 58 -53 33 -58 -82 -53 -78 -78 -97 73 -51 78 162 61 160 177 27 vhcurveto
          hintmask 1011110101100000
          -17 38 38 -7 36 hhcurveto
          116 93 96 159 162 -144 86 -180 -101 -113 -28 -96 -54 42 -27 37 hvcurveto
          hintmask 1011110111100000
          30 28 18 36 21 -15 17 -19 -18 -17 -17 -22 -2 hvcurveto
          -5 1 -5 2 -4 vhcurveto
          hintmask 1011110101100000
          -21 1 -5 13 19 vvcurveto
          67 4 73 22 81 hhcurveto
          3 hlineto
          hintmask 1010110101100000
          -7 -109 -10 -98 -9 -99 rrcurveto
          53 -7 rmoveto
          8 87 8 133 6 90 rrcurveto
          152 -14 82 -77 -112 vvcurveto
          -126 -79 -81 -91 -30 -33 10 23 -30 vhcurveto
          3 22 2 23 2 22 rrcurveto
          endchar
        </CharString>
        <CharString name="paragraph">
          47 -267 50 35 88 33 45 445 85 9 48 hstemhm
          5 52 112 47 126 57 101 88 hintmask 1010111110000000
          hintmask 1011111110000000
          500 471 rmoveto
          -24 18 -18 24 31 15 27 31 vhcurveto
          hintmask 1110111110000000
          39 -24 45 -42 -45 -47 -52 -64 -20 vhcurveto
          35 -35 -43 16 -43 hhcurveto
          -122 -97 -148 -115 -73 40 -60 98 52 48 28 21 34 hvcurveto
          -154 -42 2 -222 -154 hhcurveto
          -48 -43 27 58 48 30 23 31 24 27 -13 -25 hvcurveto
          -4 vlineto
          6 -8 -9 3 -10 hhcurveto
          -24 -20 -20 -24 -25 20 -19 24 50 24 33 37 45 -36 51 -66 -71 -38 -65 -62 -76 75 -48 77 48 48 19 43 31 hvcurveto
          188 135 -25 540 130 hhcurveto
          8 5 -4 -5 3 hvcurveto
          hintmask 1011111110000000
          -23 -1 -17 -19 -23 vvcurveto
          endchar
        </CharString>
        <CharString name="parenleft">
          -214 695 38 hstem
          30 49 vstem
          161 -37 rmoveto
          11 -4 18 4 16 vvcurveto
          8 -3 10 -23 5 vhcurveto
          -67 27 -18 100 93 vvcurveto
          198 94 275 125 26 1 9 8 11 -5 10 -26 -203 -61 -352 -177 -100 28 -104 103 -37 vhcurveto
          endchar
        </CharString>
        <CharString name="parenright">
          -217 -38 37 hstem
          257 52 vstem
          42 -38 rmoveto
          109 1 70 89 32 94 rrcurveto
          28 81 28 123 114 vvcurveto
          123 -42 111 -99 35 vhcurveto
          2 -7 -6 1 -4 hhcurveto
          -14 -7 -11 -9 -6 4 -6 18 -6 hvcurveto
          67 -24 38 -105 -120 vvcurveto
          -180 -76 -263 -129 -7 vhcurveto
          -4 -3 1 -3 hhcurveto
          -19 -5 -12 -8 -12 13 -6 11 hvcurveto
          endchar
        </CharString>
</ttFont>
